<?xml version="1.0" standalone="no"?>
<!DOCTYPE svg PUBLIC "-//W3C//DTD SVG 1.1//EN" "http://www.w3.org/Graphics/SVG/1.1/DTD/svg11.dtd" >
<svg>
<metadata>
Created by FontForge 20090914 at Tue Jun 24 10:00:53 2014
 By www-data
Font data copyright Google 2013
</metadata>
<defs>
<font id="RobotoCondensed-Light" horiz-adv-x="927" >
  <font-face 
    font-family="Roboto Condensed"
    font-weight="300"
    font-stretch="normal"
    units-per-em="2048"
    panose-1="0 0 0 0 0 0 0 0 0 0"
    ascent="1536"
    descent="-512"
    x-height="1082"
    cap-height="1456"
    bbox="-861.993 -555.002 1907 2146"
    underline-thickness="100"
    underline-position="-100"
    unicode-range="U+0002-U+FFFD"
  />
<missing-glyph horiz-adv-x="420" 
 />
    <glyph glyph-name="fi" unicode="fi" horiz-adv-x="900" 
d="M183 0v981h-137v101h137v136c0 118 25.333 208 76 270s123.334 93 218.001 93c36 0 71.5 -5 106.5 -15s72.167 -25 111.5 -45l-19 -105c-28.667 16 -58.334 28.667 -89.001 38s-64.667 14 -102 14c-63.333 0 -110 -20.833 -140 -62.5s-45 -104.167 -45 -187.5v-136h187
v-101h-187v-981h-117zM756 0h-118v1082h118v-1082z" />
    <glyph glyph-name=".notdef" horiz-adv-x="420" 
 />
    <glyph glyph-name="NULL" horiz-adv-x="0" 
 />
    <glyph glyph-name="NULL" horiz-adv-x="0" 
 />
    <glyph glyph-name="uni0002" horiz-adv-x="27" 
 />
    <glyph glyph-name="uni0009" unicode="&#x9;" horiz-adv-x="27" 
 />
    <glyph glyph-name="nonmarkingreturn" unicode="&#xd;" horiz-adv-x="420" 
 />
    <glyph glyph-name="space" unicode=" " horiz-adv-x="420" 
 />
    <glyph glyph-name="exclam" unicode="!" horiz-adv-x="412" 
d="M264 478h-118v978h118v-978zM269 0h-128v168h128v-168z" />
    <glyph glyph-name="quotedbl" unicode="&#x22;" horiz-adv-x="533" 
d="M206 1407l-29 -327h-66v480h95v-153zM422 1407l-29 -327h-66l2 325v155h93v-153z" />
    <glyph glyph-name="numbersign" unicode="#" horiz-adv-x="1022" 
d="M581 410h-226l-61 -410h-94l61 410h-194v96h208l65 435h-213v99h228l62 416h94l-62 -416h227l63 416h94l-62 -416h169v-99h-184l-65 -435h190v-96h-205l-61 -410h-95zM369 506h227l65 435h-227z" />
    <glyph glyph-name="dollar" unicode="$" horiz-adv-x="921" 
d="M702 359c0 74.667 -17.332 134.667 -51.999 180s-97 89.666 -187 132.999c-110.667 44.667 -191.5 97.334 -242.5 158.001s-76.5 148.334 -76.5 263.001c0 109.333 25 197.333 75 264s120.333 105.667 211 117v203h97v-204c91.333 -12.667 161.5 -56.667 210.5 -132
s73.5 -180.333 73.5 -315h-117c0 102.667 -18.833 185.167 -56.5 247.5s-91.167 93.5 -160.5 93.5c-72 0 -126 -25.167 -162 -75.5s-54 -115.5 -54 -195.5c0 -76.667 16.5 -137.5 49.5 -182.5s97.5 -89.167 193.5 -132.5c109.333 -46.667 189.333 -99.834 240 -159.501
s76 -146.5 76 -260.5c0 -112 -26.667 -200.333 -80 -265s-127.333 -102.667 -222 -114v-190h-96v190c-94.667 10 -171.667 49.167 -231 117.5s-89 174.833 -89 319.5h118c0 -120 23.667 -205.333 71 -256s105.333 -76 174 -76c73.333 0 131.166 25.333 173.499 76
s63.5 116 63.5 196z" />
    <glyph glyph-name="percent" unicode="%" horiz-adv-x="1266" 
d="M103 1176c0 86 21.5 157.667 64.5 215s100.833 86 173.5 86s130.5 -28.5 173.5 -85.5s64.5 -128.833 64.5 -215.5v-77c0 -86 -21.333 -157.333 -64 -214s-100 -85 -172 -85c-74 0 -132.5 28.333 -175.5 85s-64.5 128 -64.5 214v77zM196 1099
c0 -59.333 12.332 -109.166 36.999 -149.499s61.334 -60.5 110.001 -60.5c46.667 0 82.167 20.167 106.5 60.5s36.5 90.166 36.5 149.499v77c0 59.333 -12.5 109.5 -37.5 150.5s-60.833 61.5 -107.5 61.5c-47.333 0 -83.333 -20.5 -108 -61.5s-37 -91.167 -37 -150.5v-77z
M695.999 357c0 86 21.5 157.5 64.5 214.5s101.167 85.5 174.5 85.5c72.667 0 130.667 -28.5 174 -85.5s65 -128.5 65 -214.5v-78c0 -86.667 -21.5 -158.334 -64.5 -215.001s-100.5 -85 -172.5 -85c-74 0 -132.667 28.333 -176 85s-65 128.334 -65 215.001v78zM789.999 279
c0 -59.333 12.332 -109.333 36.999 -150s61.334 -61 110.001 -61c46.667 0 82.167 20.167 106.5 60.5s36.5 90.5 36.5 150.5v78c0 61.333 -12.333 111.833 -37 151.5s-60.667 59.5 -108 59.5s-83.333 -20 -108 -60s-37 -90.333 -37 -151v-78zM386.998 120l-69 49l556 1138
l69 -49z" />
    <glyph glyph-name="ampersand" unicode="&#x26;" horiz-adv-x="1067" 
d="M327 791c-47.333 69.333 -81.832 131 -103.499 185s-32.5 110.333 -32.5 169c0 108 24.833 190.333 74.5 247s119.167 85 208.5 85c83.333 0 149 -26.833 197 -80.5s72 -122.167 72 -205.5c0 -62 -13 -114.333 -39 -157s-64 -86 -114 -130l-123 -116l327 -469
c24.667 46.667 43.667 97.667 57 153s20 115.333 20 180h109c0 -86.667 -10 -165 -30 -235s-49.667 -134.333 -89 -193l156 -224h-144l-89 129c-47.333 -49.333 -97.833 -86.666 -151.5 -111.999s-111.834 -38 -174.501 -38c-118 0 -210.333 35.167 -277 105.5
s-100 166.166 -100 287.499c0 82.667 20 155.167 60 217.5s100 127.5 180 195.5zM458.001 83c49.333 0 96.501 11.168 141.501 33.501s86.5 55.5 124.5 99.5l-333 483c0.666992 -1.33301 -0.333008 -0.333008 -3 3s-4.33398 6 -5.00098 8l-34 -32
c-60.667 -62.667 -100.5 -118.334 -119.5 -167.001s-28.5 -95 -28.5 -139c0 -84.667 21.5 -154 64.5 -208s107.167 -81 192.5 -81zM311.002 1147c0 -42.667 8.16602 -86.501 24.499 -131.501s41.5 -93.833 75.5 -146.5l134 124c32.667 29.333 55 59.833 67 91.5
s18 67.167 18 106.5c0 52.667 -13.667 95.834 -41 129.501s-65.666 50.5 -114.999 50.5c-53.333 0 -93.833 -21.167 -121.5 -63.5s-41.5 -95.833 -41.5 -160.5z" />
    <glyph glyph-name="quotesingle" unicode="'" horiz-adv-x="316" 
d="M209 1420l-38 -332h-67l6 323v149h99v-140z" />
    <glyph glyph-name="parenleft" unicode="(" horiz-adv-x="541" 
d="M121 588c0 244.667 38 461.668 114 651.001s160.333 320.666 253 393.999l26 -84c-74.667 -70.667 -139.334 -192 -194.001 -364s-82 -370 -82 -594v-20c0 -224 27.333 -421.833 82 -593.5s119.334 -294.167 194.001 -367.5l-26 -80
c-93.333 74 -177.833 203.833 -253.5 389.5s-113.5 403.5 -113.5 653.5v15z" />
    <glyph glyph-name="parenright" unicode=")" horiz-adv-x="548" 
d="M418 573c0 -250 -38.168 -467.667 -114.501 -653s-160.833 -315.333 -253.5 -390l-27 80c74 70 138.5 191.333 193.5 364s82.5 371.667 82.5 597v20c0 222 -28.167 420 -84.5 594s-120.166 297 -191.499 369l27 79c92 -73.333 176.333 -204.833 253 -394.5
s115 -406.5 115 -650.5v-15z" />
    <glyph glyph-name="asterisk" unicode="*" horiz-adv-x="745" 
d="M300 999l-263 106l31 104l263 -122l-5 369h102l-8 -372l258 126l31 -104l-265 -114l174 -293l-82 -64l-166 304l-161 -302l-83 63z" />
    <glyph glyph-name="plus" unicode="+" horiz-adv-x="978" 
d="M544 742h352v-116h-352v-480h-120v480h-348v116h348v464h120v-464z" />
    <glyph glyph-name="comma" unicode="," horiz-adv-x="338" 
d="M239 49c0 -62.667 -10.667 -123 -32 -181s-51.333 -108 -90 -150l-68 53c24.667 46 43 90.167 55 132.5s18 89.833 18 142.5v144h117v-141z" />
    <glyph glyph-name="hyphen" unicode="-" horiz-adv-x="478" 
d="M425 589h-378v104h378v-104z" />
    <glyph glyph-name="period" unicode="." horiz-adv-x="428" 
d="M268 0h-125v160h125v-160z" />
    <glyph glyph-name="slash" unicode="/" horiz-adv-x="675" 
d="M136 -125h-103l475 1581h103z" />
    <glyph glyph-name="zero" unicode="0" horiz-adv-x="921" 
d="M815 564c0 -192 -30.6689 -337.499 -92.002 -436.499s-148.666 -148.5 -261.999 -148.5s-201 49.667 -263 149s-93 244.666 -93 435.999v326c0 190.667 30.833 336.167 92.5 436.5s148.834 150.5 261.501 150.5c113.333 0 201 -50 263 -150s93 -245.667 93 -437v-326z
M697.998 911.001c0 151.333 -20.001 265.832 -60.001 343.499s-99.667 116.5 -179 116.5c-78.667 0 -137.667 -38.833 -177 -116.5s-59 -192.167 -59 -343.5v-366c0 -150 20 -264.5 60 -343.5s99.333 -118.5 178 -118.5s137.834 39.333 177.501 118
s59.5 193.334 59.5 344.001v366z" />
    <glyph glyph-name="one" unicode="1" horiz-adv-x="921" 
d="M551 0h-117v1320l-254 -40v87l371 92v-1459z" />
    <glyph glyph-name="two" unicode="2" horiz-adv-x="921" 
d="M834 0l-719 0.00195312v94l373 540c68.667 100 116.167 182.333 142.5 247s39.5 129 39.5 193c0 91.333 -18.333 163.666 -55 216.999s-88.667 80 -156 80c-84.667 0 -147.5 -29.667 -188.5 -89s-61.5 -141.333 -61.5 -246h-118c0 127.333 32.333 232.666 97 315.999
s155 125 271 125c102 0 182.333 -35.5 241 -106.5s88 -168.5 88 -292.5c0 -82 -19 -163.833 -57 -245.5s-91.667 -172.5 -161 -272.5l-312 -456h576v-104z" />
    <glyph glyph-name="three" unicode="3" horiz-adv-x="921" 
d="M324 794l119.001 0.00292969c78.667 0 136 25.5 172 76.5s54 119.5 54 205.5c0 92.667 -18.167 165 -54.5 217s-91.5 78 -165.5 78c-69.333 0 -124.833 -26.5 -166.5 -79.5s-62.5 -125.167 -62.5 -216.5h-118c0 119.333 32 216.166 96 290.499s147.667 111.5 251 111.5
c104.667 0 187.334 -35 248.001 -105s91 -170 91 -300c0 -70 -15.833 -134.5 -47.5 -193.5s-78.5 -103.167 -140.5 -132.5c74 -26 127.167 -69 159.5 -129s48.5 -133.667 48.5 -221c0 -132.667 -32.667 -235.334 -98 -308.001s-151 -109 -257 -109
c-104.667 0 -191.5 35.5 -260.5 106.5s-103.5 173.833 -103.5 308.5h118c0 -94.667 22.167 -170.167 66.5 -226.5s104.166 -84.5 179.499 -84.5s133.5 26.167 174.5 78.5s61.5 129.166 61.5 230.499c0 104 -20.333 179.5 -61 226.5s-102.334 70.5 -185.001 70.5h-119v105z
" />
    <glyph glyph-name="four" unicode="4" horiz-adv-x="921" 
d="M705 470h171v-104h-171v-366h-118v366h-524v71l516 1019h126v-986zM196 470h391v802l-3 1l-31 -85z" />
    <glyph glyph-name="five" unicode="5" horiz-adv-x="921" 
d="M157 659l64 796.997h560v-115h-459l-41 -508l3 -1c25.333 30.667 53.833 54.834 85.5 72.501s73.5 27.5 125.5 29.5c102 2 182.333 -38.833 241 -122.5s88 -199.5 88 -347.5c0 -150 -29 -268.333 -87 -355s-146.333 -130 -265 -130c-97.333 0 -177 33.167 -239 99.5
s-93 167.833 -93 304.5h112c0 -99.333 19.667 -174.166 59 -224.499s93 -75.5 161 -75.5c78.667 0 137.5 32 176.5 96s58.5 158.333 58.5 283c0 110 -19.667 197 -59 261s-95.333 96 -168 96c-69.333 0 -120.333 -14.167 -153 -42.5s-57 -73.166 -73 -134.499z" />
    <glyph glyph-name="six" unicode="6" horiz-adv-x="921" 
d="M529 1477c40.667 0 79.667 -5.6709 117 -17.0039s69.666 -27.666 96.999 -48.999l-27 -100c-28 20.667 -56 35.834 -84 45.501s-62.333 14.5 -103 14.5c-85.333 0 -154.166 -41 -206.499 -123s-78.5 -192.667 -78.5 -332v-93l3 -1c32 43.333 70.667 77.333 116 102
s95.666 37 150.999 37c104 0 185.333 -44.5 244 -133.5s88 -206.833 88 -353.5c0 -147.333 -31.5 -266.666 -94.5 -357.999s-147.5 -137 -253.5 -137c-109.333 0 -198.666 49.167 -267.999 147.5s-104 236.5 -104 414.5v363c0 172.667 38.167 311.334 114.5 416.001
s172.5 157 288.5 157zM489 860.996c-60.667 0 -112 -17.8311 -154 -53.498s-72.333 -83.834 -91 -144.501v-131c0 -142 23.5 -252.5 70.5 -331.5s108.167 -118.5 183.5 -118.5c72 0 128.333 37.333 169 112s61 168 61 280c0 117.333 -20.333 211.166 -61 281.499
s-100 105.5 -178 105.5z" />
    <glyph glyph-name="seven" unicode="7" horiz-adv-x="921" 
d="M831 1350c-130.667 -182 -224.833 -364.999 -282.5 -548.999s-97.5 -410 -119.5 -678l-10 -123h-118l10 123c22.667 252 66.667 475.167 132 669.5s155 380.166 269 557.499h-639v106h758v-106z" />
    <glyph glyph-name="eight" unicode="8" horiz-adv-x="921" 
d="M797 1081c0 -80.667 -17.667 -149.833 -53 -207.5s-83.666 -100.167 -144.999 -127.5c70.667 -28 126.667 -73.333 168 -136s62 -137.334 62 -224.001c0 -133.333 -33.833 -234.5 -101.5 -303.5s-156.5 -103.5 -266.5 -103.5c-112 0 -201.333 34.333 -268 103
s-100 170 -100 304c0 87.333 20.167 162.166 60.5 224.499s96.166 107.5 167.499 135.5c-62 27.333 -110.333 69.833 -145 127.5s-52 126.834 -52 207.501c0 128 30.5 226 91.5 294s142.5 102 244.5 102c100.667 0 182 -34.167 244 -102.5s93 -166.166 93 -293.499z
M711 386.001c0 92.667 -23.5 167.167 -70.5 223.5s-107.167 84.5 -180.5 84.5c-74.667 0 -135 -28 -181 -84s-69 -130.667 -69 -224c0 -96.667 22.667 -171.334 68 -224.001s106.333 -79 183 -79c74.667 0 135 26.333 181 79s69 127.334 69 224.001zM679 1081
c0 85.333 -20.501 155 -61.501 209s-93.5 81 -157.5 81c-66 0 -118.833 -25.833 -158.5 -77.5s-59.5 -122.5 -59.5 -212.5c0 -87.333 19.833 -156.166 59.5 -206.499s92.834 -75.5 159.501 -75.5c64.667 0 117.167 25.167 157.5 75.5s60.5 119.166 60.5 206.499z" />
    <glyph glyph-name="nine" unicode="9" horiz-adv-x="921" 
d="M413 83c83.333 0 149.001 36.334 197.001 109.001s72 179 72 319v123l-3 1c-26 -56 -60.167 -98.833 -102.5 -128.5s-90.166 -44.5 -143.499 -44.5c-108 0 -193.667 45.167 -257 135.5s-95 210.5 -95 360.5c0 149.333 33.333 273.166 100 371.499s150 147.5 250 147.5
c115.333 0 206.166 -45 272.499 -135s99.5 -224.333 99.5 -403v-426c0 -172.667 -35.5 -304.834 -106.5 -396.501s-165.5 -137.5 -283.5 -137.5c-40 0 -80.333 5 -121 15s-79.334 25 -116.001 45l20 104c34 -21.333 67.667 -36.666 101 -45.999s72 -14 116 -14z
M433.001 566.001c64 0 116.832 21.168 158.499 63.501s71.834 95.833 90.501 160.5v158c0 141.333 -21.5 247.166 -64.5 317.499s-104.167 105.5 -183.5 105.5c-67.333 0 -123 -39.833 -167 -119.5s-66 -177.5 -66 -293.5c0 -114 20.5 -207.833 61.5 -281.5
s97.833 -110.5 170.5 -110.5z" />
    <glyph glyph-name="colon" unicode=":" horiz-adv-x="393" 
d="M262 0h-125v160h125v-160zM263 921h-125v160h125v-160z" />
    <glyph glyph-name="semicolon" unicode=";" horiz-adv-x="398" 
d="M264 921h-125v160h125v-160zM262 49c0 -62.667 -10.667 -123 -32 -181s-51.333 -108 -90 -150l-68 53c24.667 46 43 90.167 55 132.5s18 89.833 18 142.5v144h117v-141z" />
    <glyph glyph-name="less" unicode="&#x3c;" horiz-adv-x="844" 
d="M252 683l-85 -28l-1 -3l86 -29l464 -266v-130l-645 379v99l645 378v-129z" />
    <glyph glyph-name="equal" unicode="=" horiz-adv-x="926" 
d="M783 828h-651v109h651v-109zM783 416h-651v110h651v-110z" />
    <glyph glyph-name="greater" unicode="&#x3e;" horiz-adv-x="861" 
d="M114 959v126l664 -378v-99l-664 -379v127l483 272l86 29v4l-86 29z" />
    <glyph glyph-name="question" unicode="?" horiz-adv-x="768" 
d="M301 404c0.666992 88.667 6.66504 149.668 17.998 183.001s42.333 79.333 93 138c56.667 82 96.667 145.833 120 191.5s35 107.167 35 184.5c0 86 -16.333 151.833 -49 197.5s-80 68.5 -142 68.5c-56 0 -102 -22.333 -138 -67s-54 -106 -54 -184h-118
c1.33301 115.333 30.333 204.333 87 267s131 94 223 94c98.667 0 174.834 -33 228.501 -99s80.5 -157.667 80.5 -275c0 -91.333 -17 -170.333 -51 -237s-83.667 -140.334 -149 -221.001c-31.333 -36 -50.166 -68.667 -56.499 -98s-9.5 -77 -9.5 -143h-118z
M428.998 0.000976562h-129v157h129v-157z" />
    <glyph glyph-name="at" unicode="@" horiz-adv-x="1553" 
d="M1446 512c-5.33301 -147.333 -37.0049 -273.001 -95.0049 -377.001s-146 -156 -264 -156c-43.333 0 -79.333 15.833 -108 47.5s-47.667 76.167 -57 133.5h-3c-28.667 -61.333 -63 -106.833 -103 -136.5s-87.667 -44.5 -143 -44.5c-72 0 -126.5 39.333 -163.5 118
s-50.167 185 -39.5 319c12.667 173.333 50.334 310.333 113.001 411s141 151 235 151c54 0 96.833 -8.66699 128.5 -26s67.834 -44.666 108.501 -81.999l-2 -2h2l-41 -575c-6 -90 1 -150.333 21 -181s45.333 -46 76 -46c75.333 0 134.333 40.833 177 122.5
s66.667 189.5 72 323.5c10 264 -29.333 466.667 -118 608s-231.334 212 -428.001 212c-178 0 -321.5 -77 -430.5 -231s-168.167 -361.667 -177.5 -623c-10.667 -257.333 32 -462.333 128 -615s235.667 -229 419 -229c48.667 0 97.334 7.16699 146.001 21.5
s90.334 33.5 125.001 57.5l28 -77c-37.333 -28 -83.666 -49.833 -138.999 -65.5s-109.666 -23.5 -162.999 -23.5c-212.667 0 -374.667 81.667 -486 245s-162.333 392 -153 686c10.667 288.667 78.5 518 203.5 688s292.5 255 502.5 255c216 0 377.167 -79.5 483.5 -238.5
s154.833 -382.5 145.5 -670.5zM578.995 415.999c-8 -104.667 -1.50098 -186.999 19.499 -246.999s56.167 -90 105.5 -90c43.333 0 82.333 12.5 117 37.5s65.667 71.5 93 139.5v15c0 4.66699 0.666992 12 2 22l39 550c-17.333 13.333 -35.5 23.666 -54.5 30.999
s-40.167 11 -63.5 11c-73.333 0 -131.666 -38.5 -174.999 -115.5s-71 -194.833 -83 -353.5z" />
    <glyph glyph-name="A" unicode="A" horiz-adv-x="1059" 
d="M777 409h-495l-118 -409h-122l437 1456h106l431 -1456h-122zM313 514h434l-215 748h-3z" />
    <glyph glyph-name="B" unicode="B" horiz-adv-x="1033" 
d="M159 0l0.00292969 1456h349c120.667 0 213.667 -31.333 279 -94s98 -159.334 98 -290.001c0 -74.667 -16.833 -139 -50.5 -193s-78.834 -91.667 -135.501 -113v-3c71.333 -14.667 128.166 -55.167 170.499 -121.5s63.5 -145.166 63.5 -236.499
c0 -133.333 -32.833 -234.166 -98.5 -302.499s-155.834 -102.5 -270.501 -102.5h-405zM277.003 700.999v-597h287c79.333 0 140.833 25.667 184.5 77s65.5 125.333 65.5 222c0 89.333 -19.333 161.333 -58 216s-96.667 82 -174 82h-305zM277.003 803.999h267
c70.667 2 125.5 25.667 164.5 71s58.5 112.333 58.5 201c0 92.667 -21.667 161.5 -65 206.5s-108 67.5 -194 67.5h-231v-546z" />
    <glyph glyph-name="C" unicode="C" horiz-adv-x="1026" 
d="M939 421c-3.33301 -148 -39.5 -258.668 -108.5 -332.001s-166.167 -110 -291.5 -110c-130 0 -231.167 46.333 -303.5 139s-108.5 228.667 -108.5 408v403c0 178.667 36.167 314.667 108.5 408s173.5 140 303.5 140c126.667 0 224.167 -36.167 292.5 -108.5
s104.166 -184.166 107.499 -335.499h-118c-4 118 -28.667 203.833 -74 257.5s-114.666 80.5 -207.999 80.5c-95.333 0 -168 -36.667 -218 -110s-75 -183 -75 -329v-406c0 -148 25 -258.833 75 -332.5s122.667 -110.5 218 -110.5c94 0 163.5 25.667 208.5 77
s69.5 138.333 73.5 261h118z" />
    <glyph glyph-name="D" unicode="D" horiz-adv-x="1101" 
d="M159 0l-0.000976562 1456h314c162.667 0 286.334 -48.333 371.001 -145s127 -246.667 127 -450v-268c0 -204.667 -42.667 -354.667 -128 -450s-212.333 -143 -381 -143h-303zM276.999 1350v-1246h185c135.333 0 234.5 39.5 297.5 118.5s94.5 202.5 94.5 370.5v270
c0 168 -31 291.167 -93 369.5s-158 117.5 -288 117.5h-196z" />
    <glyph glyph-name="E" unicode="E" horiz-adv-x="955" 
d="M814 703h-537v-599h618v-104h-736v1456h730v-106h-612v-543h537v-104z" />
    <glyph glyph-name="F" unicode="F" horiz-adv-x="955" 
d="M817 679h-540v-679h-118v1456h737v-106h-619v-565h540v-106z" />
    <glyph glyph-name="G" unicode="G" horiz-adv-x="1111" 
d="M967 198c-26.667 -56.667 -72.166 -107.333 -136.499 -152s-149.5 -67 -255.5 -67c-140.667 0 -251.667 45.333 -333 136s-122 224.667 -122 402v433c0 174 38.333 305.333 115 394s183 133 319 133c131.333 0 231 -35.167 299 -105.5s105.667 -172.833 113 -307.5h-118
c-3.33301 100 -28.5 176.167 -75.5 228.5s-119.833 78.5 -218.5 78.5c-101.333 0 -179.333 -34.833 -234 -104.5s-82 -174.5 -82 -314.5v-435c0 -144.667 29.667 -253.167 89 -325.5s142 -108.5 248 -108.5c77.333 0 137.666 14.333 180.999 43s74.333 64.667 93 108v378
h-276v105h394v-519z" />
    <glyph glyph-name="H" unicode="H" horiz-adv-x="1164" 
d="M1004 0h-118v669h-609v-669h-118v1456h118v-683h609v683h118v-1456z" />
    <glyph glyph-name="I" unicode="I" horiz-adv-x="468" 
d="M293 0h-118v1456h118v-1456z" />
    <glyph glyph-name="J" unicode="J" horiz-adv-x="910" 
d="M640 1456l118.999 0.000976562v-1044c0 -135.333 -31 -241.333 -93 -318s-144 -115 -246 -115c-110 0 -196.167 35 -258.5 105s-93.5 175.667 -93.5 317h118c0 -106.667 19.833 -186.334 59.5 -239.001s97.834 -79 174.501 -79c65.333 0 118.333 29.167 159 87.5
s61 138.833 61 241.5v1044z" />
    <glyph glyph-name="K" unicode="K" horiz-adv-x="1054" 
d="M422 683h-145v-683h-118v1456h118v-669h140l433 669h137l-471 -714l504 -742h-146z" />
    <glyph glyph-name="L" unicode="L" horiz-adv-x="890" 
d="M278 104h553v-104h-672v1456h119v-1352z" />
    <glyph glyph-name="M" unicode="M" horiz-adv-x="1374" 
d="M304 1456l380 -1279h4l380 1279h152v-1456h-117v639l12 597l-3 1l-387 -1237h-78l-386 1237l-3 -1l12 -597v-639h-116v1456h150z" />
    <glyph glyph-name="N" unicode="N" horiz-adv-x="1167" 
d="M1007 0h-118l-608 1218l-3 -1v-1217h-119v1456h119l608 -1218l3 1v1217h118v-1456z" />
    <glyph glyph-name="O" unicode="O" horiz-adv-x="1125" 
d="M994 523c0 -179.333 -38.5 -314.834 -115.5 -406.501s-184.167 -137.5 -321.5 -137.5c-134.667 0 -239.5 46 -314.5 138s-112.5 227.333 -112.5 406v408c0 178.667 37.5 314.334 112.5 407.001s179.833 139 314.5 139c136.667 0 243.667 -46.5 321 -139.5
s116 -228.5 116 -406.5v-408zM876 933.999c0 146 -27.167 254.833 -81.5 326.5s-133.5 107.5 -237.5 107.5c-100.667 0 -177.167 -35.833 -229.5 -107.5s-78.5 -180.5 -78.5 -326.5v-411c0 -147.333 26.167 -257 78.5 -329s128.833 -108 229.5 -108
c104 0 183.167 35.833 237.5 107.5s81.5 181.5 81.5 329.5v411z" />
    <glyph glyph-name="P" unicode="P" horiz-adv-x="1032" 
d="M277 603v-602.999h-118v1456h410c122.667 0 216.5 -38.333 281.5 -115s97.5 -180.334 97.5 -311.001c0 -132 -32.5 -236.167 -97.5 -312.5s-158.833 -114.5 -281.5 -114.5h-292zM277 708.001h291.998c88.667 0 154.334 30 197.001 90s64 136.667 64 230
c0 94.667 -21.167 172 -63.5 232s-108.166 90 -197.499 90h-292v-642z" />
    <glyph glyph-name="Q" unicode="Q" horiz-adv-x="1130" 
d="M994 523c0 -109.333 -14.667 -201.834 -44 -277.501s-72.333 -136.167 -129 -181.5l194 -230l-81 -77l-209 252c-26.667 -10 -53.667 -17.5 -81 -22.5s-56.333 -7.5 -87 -7.5c-134.667 0 -239.5 46 -314.5 138s-112.5 227.333 -112.5 406v408
c0 178.667 37.5 314.334 112.5 407.001s179.833 139 314.5 139c136.667 0 243.667 -46.5 321 -139.5s116 -228.5 116 -406.5v-408zM876 933.999c0 146 -27.167 254.833 -81.5 326.5s-133.5 107.5 -237.5 107.5c-100.667 0 -177.167 -35.833 -229.5 -107.5
s-78.5 -180.5 -78.5 -326.5v-411c0 -147.333 26.167 -257 78.5 -329s128.833 -108 229.5 -108c104 0 183.167 35.833 237.5 107.5s81.5 181.5 81.5 329.5v411z" />
    <glyph glyph-name="R" unicode="R" horiz-adv-x="1084" 
d="M276 657l-0.000976562 -657.001h-118v1455h396c126 0 221.167 -33.667 285.5 -101s96.5 -168 96.5 -302c0 -78.667 -17.5 -147.834 -52.5 -207.501s-85.167 -103.834 -150.5 -132.501c70.667 -23.333 120.834 -63.666 150.501 -120.999s44.5 -130.666 44.5 -219.999v-137
c0 -46 4 -86.667 12 -122s21.667 -64.666 41 -87.999v-24h-121c-20.667 24 -34.167 56.667 -40.5 98s-9.5 87.333 -9.5 138v133c0 90 -20.167 160.5 -60.5 211.5s-97.5 76.5 -171.5 76.5h-302zM275.999 760.999l265.001 0.000976562c97.333 0 167.666 25.833 210.999 77.5
s65 123.167 65 214.5c0 97.333 -21.167 171.166 -63.5 221.499s-108.833 75.5 -199.5 75.5h-278v-589z" />
    <glyph glyph-name="S" unicode="S" horiz-adv-x="997" 
d="M797 357c0 80.667 -21.0049 145.332 -63.0049 193.999s-118.667 92.334 -230 131.001c-128 41.333 -223.667 93.5 -287 156.5s-95 149.5 -95 259.5c0 114 35.5 205.667 106.5 275s164.833 104 281.5 104c122.667 0 220 -41.333 292 -124s108 -186.667 108 -312h-118
c0 98.667 -24.667 178.334 -74 239.001s-118.666 91 -207.999 91c-87.333 0 -154.166 -25.333 -200.499 -76s-69.5 -115.334 -69.5 -194.001c0 -73.333 22.5 -134 67.5 -182s123.167 -90.667 234.5 -128c124.667 -40.667 217.834 -94.334 279.501 -161.001
s92.5 -157 92.5 -271c0 -119.333 -36.5 -212.5 -109.5 -279.5s-169.5 -100.5 -289.5 -100.5c-117.333 0 -218.333 36.333 -303 109s-127 181.334 -127 326.001h118c0 -115.333 29.833 -199.333 89.5 -252s133.834 -79 222.501 -79c86.667 0 155.334 24.667 206.001 74
s76 116 76 200z" />
    <glyph glyph-name="T" unicode="T" horiz-adv-x="949" 
d="M892 1350h-360v-1350h-116v1350h-358v106h834v-106z" />
    <glyph glyph-name="U" unicode="U" horiz-adv-x="1068" 
d="M937 1456l0.000976562 -1019c0 -151.333 -37 -265.5 -111 -342.5s-172.667 -115.5 -296 -115.5c-120.667 0 -217 38.5 -289 115.5s-108 191.167 -108 342.5v1019h116v-1019c0 -116.667 25.5 -204.834 76.5 -264.501s119.167 -89.5 204.5 -89.5
c89.333 0 160.166 28.667 212.499 86s78.5 146.666 78.5 267.999v1019h116z" />
    <glyph glyph-name="V" unicode="V" horiz-adv-x="1041" 
d="M494 252l25 -94h3l25 94l323 1204h127l-424 -1456h-106l-424 1456h128z" />
    <glyph glyph-name="W" unicode="W" horiz-adv-x="1397" 
d="M358 417l28 -197h3l37 197l219 1039h105l220 -1039l36 -200h3l30 200l173 1039h117l-264 -1456h-106l-234 1111l-25 134h-3l-24 -134l-237 -1111h-106l-264 1456h117z" />
    <glyph glyph-name="X" unicode="X" horiz-adv-x="1021" 
d="M511 836l300 620h143l-373 -718l384 -738h-142l-310 639l-309 -639h-143l383 738l-371 718h141z" />
    <glyph glyph-name="Y" unicode="Y" horiz-adv-x="974" 
d="M487 689l315 767h135l-395 -924v-532h-115v542l-390 914h134z" />
    <glyph glyph-name="Z" unicode="Z" horiz-adv-x="951" 
d="M209 104h658v-104h-781v95l631 1256h-616v105h742v-90z" />
    <glyph glyph-name="bracketleft" unicode="[" horiz-adv-x="448" 
d="M428 1558h-166v-1764h166v-106h-286v1976h286v-106z" />
    <glyph glyph-name="backslash" unicode="\" horiz-adv-x="671" 
d="M48 1456h114l476 -1581h-114z" />
    <glyph glyph-name="bracketright" unicode="]" horiz-adv-x="448" 
d="M17 1664h287v-1976h-287v106h166v1764h-166v106z" />
    <glyph glyph-name="asciicircum" unicode="^" horiz-adv-x="695" 
d="M180 729h-111l234 727h84l233 -727h-111l-144 481l-20 91h-3l-20 -91z" />
    <glyph glyph-name="underscore" unicode="_" horiz-adv-x="733" 
d="M717 -104h-702v104h702v-104z" />
    <glyph glyph-name="grave" unicode="`" horiz-adv-x="523" 
d="M395 1210h-107l-206 266h154z" />
    <glyph glyph-name="a" unicode="a" horiz-adv-x="896" 
d="M662 0c-6.66699 43.333 -11.168 74.832 -13.501 94.499s-3.5 40.5 -3.5 62.5l-3 1c-30 -52 -69 -94.667 -117 -128s-102 -50 -162 -50c-86.667 0 -152.5 27.333 -197.5 82s-67.5 130 -67.5 226c0 102.667 32.833 183.334 98.5 242.001s156.5 88 272.5 88h176v133
c0 78 -17.667 138.333 -53 181s-85.666 64 -150.999 64c-61.333 0 -111 -20.333 -149 -61s-57 -91.667 -57 -153l-118 1c0 86 30.5 160.667 91.5 224s140.5 95 238.5 95c96 0 172.667 -29.833 230 -89.5s86 -147.5 86 -263.5v-531c0 -38.667 1.5 -75.667 4.5 -111
s8.5 -71 16.5 -107h-122zM378.999 87.999c62.667 0 117.5 18.5 164.5 55.5s80.833 85.833 101.5 146.5v235h-179c-78 0 -139.167 -22.833 -183.5 -68.5s-66.5 -103.167 -66.5 -172.5c0 -59.333 14 -106.833 42 -142.5s68.333 -53.5 121 -53.5z" />
    <glyph glyph-name="b" unicode="b" 
d="M830 446c0 -144.667 -28.334 -258.498 -85.001 -341.498s-136.667 -124.5 -240 -124.5c-60 0 -111.167 13.667 -153.5 41s-76.833 66.666 -103.5 117.999h-3l-11 -139h-102v1560h118v-617h3c26.667 51.333 60.5 90.666 101.5 117.999s90.5 41 148.5 41
c104.667 0 185.334 -44 242.001 -132s85 -208 85 -360v-164zM712.999 610.002c0 116 -19.332 209.001 -57.999 279.001s-98 105 -178 105c-58.667 0 -106 -18.667 -142 -56s-64.333 -87 -85 -149v-515c21.333 -59.333 50.5 -105.5 87.5 -138.5s84.167 -49.5 141.5 -49.5
c79.333 0 138.166 32.167 176.499 96.5s57.5 152.166 57.5 263.499v164z" />
    <glyph glyph-name="c" unicode="c" horiz-adv-x="865" 
d="M458 83c58.667 0 110.169 22.168 154.502 66.501s65.833 107.166 64.5 188.499h112c1.33301 -105.333 -31.334 -191.333 -98.001 -258s-144.334 -100 -233.001 -100c-121.333 0 -213 43.667 -275 131s-93 202.333 -93 345v168c0 142 31.167 257.167 93.5 345.5
s153.833 132.5 274.5 132.5c98 0 178 -34.833 240 -104.5s92.333 -164.5 91 -284.5h-112c1.33301 88.667 -18.667 158 -60 208s-94.333 75 -159 75c-89.333 0 -153.333 -34.5 -192 -103.5s-58 -158.5 -58 -268.5v-168c0 -111.333 19.333 -201.333 58 -270
s102.667 -103 192 -103z" />
    <glyph glyph-name="d" unicode="d" 
d="M97 531c0 176.667 28.1689 316 84.502 418s137.166 153 242.499 153c55.333 0 103.166 -13 143.499 -39s74.166 -63 101.499 -111l3 1v607h119v-1560h-104l-10 132h-3c-28 -49.333 -62.667 -87 -104 -113s-90.666 -39 -147.999 -39c-104.667 0 -185 47.167 -241 141.5
s-84 223.833 -84 388.5v21zM214.002 510c0 -132.667 18.832 -236.5 56.499 -311.5s96.834 -112.5 177.501 -112.5c55.333 0 101 15.5 137 46.5s65 74.833 87 131.5v539c-21.333 58 -49.833 104.333 -85.5 139s-81.167 52 -136.5 52c-80.667 0 -140.167 -42 -178.5 -126
s-57.5 -196.333 -57.5 -337v-21z" />
    <glyph glyph-name="e" unicode="e" horiz-adv-x="862" 
d="M459 -20c-110.667 0 -200.168 43.168 -268.501 129.501s-102.5 198.5 -102.5 336.5v180c0 139.333 34.5 253.5 103.5 342.5s153.833 133.5 254.5 133.5c110 0 194.167 -39.833 252.5 -119.5s87.5 -189.167 87.5 -328.5v-119h-580v-89
c0 -106.667 22.167 -193.834 66.5 -261.501s106.5 -101.5 186.5 -101.5c62 0 113.167 10.333 153.5 31s73.5 50 99.5 88l48 -85c-30.667 -43.333 -70.667 -77 -120 -101s-109.666 -36 -180.999 -36zM445.999 996.001c-70 0 -127 -33.832 -171 -101.499
s-67 -152.834 -69 -255.501h463v46c0 91.333 -19.167 166 -57.5 224s-93.5 87 -165.5 87z" />
    <glyph glyph-name="f" unicode="f" horiz-adv-x="565" 
d="M202 0l-0.000976562 981h-136v101h136v156c0 111.333 21.833 196.333 65.5 255s106.5 88 188.5 88c17.333 0 35 -1.66699 53 -5s36.333 -8.33301 55 -15l-15 -101c-11.333 4 -23.666 7.16699 -36.999 9.5s-28 3.5 -44 3.5c-49.333 0 -86.333 -20 -111 -60
s-37 -98.333 -37 -175v-156h191v-101h-191v-981h-118z" />
    <glyph glyph-name="g" unicode="g" horiz-adv-x="926" 
d="M97 594c0 156.667 28.668 280.501 86.001 371.501s138.666 136.5 243.999 136.5c58 0 107.667 -14.167 149 -42.5s76 -68.833 104 -121.5h3l11 144h100v-1083c0 -140.667 -30.5 -248.334 -91.5 -323.001s-148.833 -112 -263.5 -112c-43.333 0 -88 6.33301 -134 19
s-88.333 31 -127 55l31 99c35.333 -22 71.833 -39 109.5 -51s77.167 -18 118.5 -18c81.333 0 141.5 28 180.5 84s58.5 138.333 58.5 247v122l-3 1c-28 -46 -62.333 -81.167 -103 -105.5s-89 -36.5 -145 -36.5c-104.667 0 -185.5 41.5 -242.5 124.5
s-85.5 196.833 -85.5 341.5v148zM216.001 446.001c0 -111.333 19.168 -199.167 57.501 -263.5s97.833 -96.5 178.5 -96.5c55.333 0 101 15.667 137 47s65 76 87 134v533c-21.333 58.667 -50 105.667 -86 141s-81.667 53 -137 53c-80.667 0 -140.334 -36.333 -179.001 -109
s-58 -169.667 -58 -291v-148z" />
    <glyph glyph-name="h" unicode="h" 
d="M251 921l3 -1c28 56.667 64.333 101.167 109 133.5s95.667 48.5 153 48.5c91.333 0 161 -34.5 209 -103.5s72 -179.167 72 -330.5v-668h-118v670c0 118.667 -16.167 202.5 -48.5 251.5s-81.5 73.5 -147.5 73.5c-53.333 0 -99.5 -19.333 -138.5 -58
s-70.167 -89 -93.5 -151v-786h-118v1560h118v-639z" />
    <glyph glyph-name="i" unicode="i" horiz-adv-x="407" 
d="M262 0h-117v1082h117v-1082zM262 1390h-117v170h117v-170z" />
    <glyph glyph-name="j" unicode="j" horiz-adv-x="420" 
d="M270 1082l-0.000976562 -1171c0 -113.333 -21.167 -199.666 -63.5 -258.999s-102.5 -89 -180.5 -89c-16 0 -30.333 1.5 -43 4.5s-27 7.83301 -43 14.5l10 105c8.66699 -4 19.834 -7.66699 33.501 -11s25.5 -5 35.5 -5c41.333 0 73.833 20 97.5 60s35.5 100 35.5 180v1171
h118zM264.999 1394h-117v166h117v-166z" />
    <glyph glyph-name="k" unicode="k" horiz-adv-x="827" 
d="M358 525h-106v-525h-119v1560h119v-929h98l282 451h142l-327 -494l365 -588h-141z" />
    <glyph glyph-name="l" unicode="l" horiz-adv-x="407" 
d="M262 0h-117v1560h117v-1560z" />
    <glyph glyph-name="m" unicode="m" horiz-adv-x="1439" 
d="M778 0h-117.999v665c0 121.333 -16 206.666 -48 255.999s-79.667 74 -143 74c-58.667 0 -105.667 -20 -141 -60s-62 -92.667 -80 -158v-777h-118v1082h106l9 -163h3c26.667 57.333 62.167 102.166 106.5 134.499s97.166 48.5 158.499 48.5c62 0 113.5 -17.667 154.5 -53
s70.5 -89.666 88.5 -162.999h3c26 66 62 118.5 108 157.5s101.667 58.5 167 58.5c88 0 156 -36 204 -108s72 -185.333 72 -340v-654h-118v655c0 128 -15.833 216.667 -47.5 266s-79.167 74 -142.5 74c-70 -1.33301 -124.667 -36.166 -164 -104.499
s-59.333 -143.5 -60 -225.5v-665z" />
    <glyph glyph-name="n" unicode="n" 
d="M239 1082l9.00098 -174h3c28 60.667 64 108.167 108 142.5s95.667 51.5 155 51.5c92 0 162 -34 210 -102s72 -177.333 72 -328v-672h-119v670c0 122 -16 206.667 -48 254s-81 71 -147 71c-54.667 0 -101.334 -20.167 -140.001 -60.5s-69 -92.833 -91 -157.5v-777h-118
v1082h106z" />
    <glyph glyph-name="o" unicode="o" 
d="M87 620c0 142.667 33.5 258.667 100.5 348s158.5 134 274.5 134c116.667 0 208.5 -44.5 275.5 -133.5s100.5 -205.167 100.5 -348.5v-159c0 -144.667 -33.333 -261 -100 -349s-158 -132 -274 -132c-117.333 0 -209.5 44 -276.5 132s-100.5 204.333 -100.5 349v159z
M205 461c0 -110 22 -200.499 66 -271.499s108.333 -106.5 193 -106.5c82.667 0 146.167 35.667 190.5 107s66.5 161.666 66.5 270.999v159c0 108 -22.167 197.667 -66.5 269s-108.5 107 -192.5 107s-147.833 -35.667 -191.5 -107s-65.5 -161 -65.5 -269v-159z" />
    <glyph glyph-name="p" unicode="p" 
d="M830 446c0 -144.667 -28.3359 -258.5 -85.0029 -341.5s-137 -124.5 -241 -124.5c-57.333 0 -106.666 12 -147.999 36s-75.666 58.667 -102.999 104l-3 -1v-535h-118v1498h101l12 -141h3c27.333 52 62 91.833 104 119.5s92.333 41.5 151 41.5
c104.667 0 185.334 -45.333 242.001 -136s85 -214.667 85 -372v-148zM711.997 594c0 120.667 -19.999 217.501 -59.999 290.501s-100.333 109.5 -181 109.5c-56 0 -101.667 -17.167 -137 -51.5s-63.333 -80.5 -84 -138.5v-546c21.333 -56.667 49.666 -100 84.999 -130
s81.333 -45 138 -45c80 0 139.833 32.667 179.5 98s59.5 153.666 59.5 264.999v148z" />
    <glyph glyph-name="q" unicode="q" 
d="M97 594c0 156.667 28.168 280.5 84.501 371.5s137.166 136.5 242.499 136.5c55.333 0 103 -12.833 143 -38.5s73.667 -62.5 101 -110.5h3l10 129h104v-1498h-119v529h-3c-27.333 -43.333 -60.833 -76.333 -100.5 -99s-86.5 -34 -140.5 -34
c-104.667 0 -185 41.5 -241 124.5s-84 196.833 -84 341.5v148zM214.001 446c0 -112 18.8311 -200.501 56.498 -265.501s96.834 -97.5 177.501 -97.5c52.667 0 96.5 14.5 131.5 43.5s63.833 70.167 86.5 123.5v567c-22 54.667 -50.167 98.167 -84.5 130.5
s-78.166 48.5 -131.499 48.5c-80.667 0 -140.167 -36.667 -178.5 -110s-57.5 -170.666 -57.5 -291.999v-148z" />
    <glyph glyph-name="r" unicode="r" horiz-adv-x="579" 
d="M530 974l-77 5.99902c-52 0 -94.5 -17.667 -127.5 -53s-57.833 -85.666 -74.5 -150.999v-776h-118v1082h104l12 -167l3 -1c23.333 59.333 54 105.5 92 138.5s83.667 49.5 137 49.5c12.667 0 24.667 -1.16699 36 -3.5s21 -4.83301 29 -7.5z" />
    <glyph glyph-name="s" unicode="s" horiz-adv-x="829" 
d="M623 259c0 50 -14.667 92.499 -44 127.499s-85 72.5 -167 112.5c-106 46.667 -182.667 92.834 -230 138.501s-71 107.167 -71 184.5c0 79.333 28.333 145.833 85 199.5s132 80.5 226 80.5c98.667 0 176 -30 232 -90s84 -138 84 -234h-117
c0 59.333 -17.833 110.5 -53.5 153.5s-84.167 64.5 -145.5 64.5c-64.667 0 -113 -16.667 -145 -50s-48 -73.333 -48 -120c0 -48.667 12.667 -87.167 38 -115.5s81.333 -64.833 168 -109.5c104.667 -44 181.667 -91 231 -141s74 -114.667 74 -194
c0 -87.333 -28.667 -156.833 -86 -208.5s-134.666 -77.5 -231.999 -77.5c-108 0 -191.5 31 -250.5 93s-88.5 139 -88.5 231h117c3.33301 -79.333 26.333 -136 69 -170s93.667 -51 153 -51c63.333 0 112.666 16.833 147.999 50.5s53 75.5 53 125.5z" />
    <glyph glyph-name="t" unicode="t" horiz-adv-x="536" 
d="M287 1358l-0.000976562 -276.001h170v-101h-170v-702c0 -71.333 8.33301 -121.166 25 -149.499s38.667 -42.5 66 -42.5c13.333 0 26.333 1 39 3s25.334 4.66699 38.001 8l17 -93c-14 -7.33301 -31.667 -13.333 -53 -18s-43.333 -7 -66 -7c-58.667 0 -104 23.333 -136 70
s-48 123 -48 229v702h-132v101h132v276h118z" />
    <glyph glyph-name="u" unicode="u" 
d="M680 161l-3 0.000976562c-26 -58 -60.667 -102.667 -104 -134s-95.333 -47 -156 -47c-92 0 -162.833 37.667 -212.5 113s-74.5 195.666 -74.5 360.999v628h118v-630c0 -134 15.5 -228.5 46.5 -283.5s77.5 -82.5 139.5 -82.5c65.333 0 117.5 18.167 156.5 54.5
s67.5 87.5 85.5 153.5v788h118v-1082h-105z" />
    <glyph glyph-name="v" unicode="v" horiz-adv-x="820" 
d="M390 273l23 -107h3l25 107l215 809h121l-317 -1082h-92l-319 1082h121z" />
    <glyph glyph-name="w" unicode="w" horiz-adv-x="1240" 
d="M329 353l27 -169h3l33 169l176 729h98l175 -729l35 -178h3l32 178l145 729h119l-245 -1082h-98l-179 735l-36 176h-4l-36 -176l-175 -735h-98l-246 1082h119z" />
    <glyph glyph-name="x" unicode="x" horiz-adv-x="820" 
d="M407 642l209 440h139l-282 -532l293 -550h-137l-221 458l-219 -458h-137l293 550l-283 532h137z" />
    <glyph glyph-name="y" unicode="y" horiz-adv-x="820" 
d="M380 298l26.999 -107.998h3l240 892h132l-363 -1255c-24 -74.667 -53.667 -137.334 -89 -188.001s-87.333 -76 -156 -76c-12 0 -26.167 1.66699 -42.5 5s-29.166 6.33301 -38.499 9l13 103c6.66699 -1.33301 17 -2.83301 31 -4.5s24.333 -2.5 31 -2.5
c38.667 0 67.5 14.667 86.5 44s40.167 80.666 63.5 153.999l43 145l-323 1066h131z" />
    <glyph glyph-name="z" unicode="z" horiz-adv-x="792" 
d="M212 104h516v-104h-645v90l482 885h-472v107h603v-91z" />
    <glyph glyph-name="braceleft" unicode="{" horiz-adv-x="562" 
d="M509 -402c-99.333 37.333 -169.167 94.833 -209.5 172.5s-60.5 174.167 -60.5 289.5v225c0 82.667 -14 146.334 -42 191.001s-72 67 -132 67v106c60 0 104 21.833 132 65.5s42 107.167 42 190.5v227c0 116 20.167 213.167 60.5 291.5s110.166 136.166 209.499 173.499
l26 -82c-64 -27.333 -109.667 -73.5 -137 -138.5s-41 -146.5 -41 -244.5v-227c0 -74.667 -12.167 -138.5 -36.5 -191.5s-62.5 -92.5 -114.5 -118.5c52 -26.667 90.167 -66.5 114.5 -119.5s36.5 -116.5 36.5 -190.5v-225c0 -96.667 13.833 -177 41.5 -241
s73.834 -110.333 138.501 -139z" />
    <glyph glyph-name="bar" unicode="|" horiz-adv-x="399" 
d="M249 -270h-98v1726h98v-1726z" />
    <glyph glyph-name="braceright" unicode="}" horiz-adv-x="562" 
d="M24 -320c63.333 28.667 108.997 75 136.997 139s42 144.333 42 241v225c0 75.333 12.833 139.666 38.5 192.999s65.834 92.333 120.501 117c-55.333 24.667 -95.666 63.334 -120.999 116.001s-38 117.334 -38 194.001v227c0 98 -13.667 179.5 -41 244.5
s-72.666 111.167 -135.999 138.5l25 82c99.333 -37.333 169.166 -95 209.499 -173s60.5 -175.333 60.5 -292v-227c0 -82.667 13.833 -146 41.5 -190s71.834 -66 132.501 -66v-106c-60.667 0 -104.834 -22.333 -132.501 -67s-41.5 -108.334 -41.5 -191.001v-225
c0 -115.333 -20.167 -211.833 -60.5 -289.5s-110.166 -135.167 -209.499 -172.5z" />
    <glyph glyph-name="asciitilde" unicode="~" horiz-adv-x="1120" 
d="M999 740c0 -88.667 -21.332 -164 -63.999 -226s-97.334 -93 -164.001 -93c-47.333 0 -89.5 11.667 -126.5 35s-78.5 61.333 -124.5 114c-32.667 36.667 -62.667 63.834 -90 81.501s-55 26.5 -83 26.5c-40 0 -72.833 -19.833 -98.5 -59.5s-38.5 -93.167 -38.5 -160.5
l-89 16c0 89.333 20.833 164 62.5 224s96.167 90 163.5 90c46.667 0 88.667 -12 126 -36s79.666 -61.667 126.999 -113c32.667 -38.667 62 -66.334 88 -83.001s53.667 -25 83 -25c38.667 0 71.334 20.833 98.001 62.5s40 95.5 40 161.5z" />
    <glyph glyph-name="nonbreakingspace" unicode="&#xa0;" horiz-adv-x="420" 
 />
    <glyph glyph-name="exclamdown" unicode="&#xa1;" horiz-adv-x="399" 
d="M250 -374h-118v978h118v-978zM255 896h-129v186h129v-186z" />
    <glyph glyph-name="cent" unicode="&#xa2;" horiz-adv-x="902" 
d="M473 83c58.667 0 110.167 22.167 154.5 66.5s65.833 107.166 64.5 188.499h112c0.666992 -94.667 -26.166 -174 -80.499 -238s-120.833 -102.667 -199.5 -116v-229h-118v231c-99.333 16.667 -174.333 67.167 -225 151.5s-76 190.5 -76 318.5v168
c0 127.333 25.333 233.5 76 318.5s125.667 136.167 225 153.5v222h118v-220c84.667 -13.333 152.667 -53.666 204 -120.999s76.666 -155.333 75.999 -264h-112c1.33301 88.667 -18.667 158 -60 208s-94.333 75 -159 75c-89.333 0 -153.333 -34.5 -192 -103.5
s-58 -158.5 -58 -268.5v-168c0 -111.333 19.333 -201.333 58 -270s102.667 -103 192 -103z" />
    <glyph glyph-name="sterling" unicode="&#xa3;" horiz-adv-x="950" 
d="M332 641l5.99902 -174.998c0 -72.667 -5.83301 -140.334 -17.5 -203.001s-28.5 -115.667 -50.5 -159h595l-1 -104h-747v104h8c32 10 56 52.5 72 127.5s24 153.167 24 234.5l-6 175h-148v104h145l-9 295c0 138.667 27.833 246.167 83.5 322.5s132.167 114.5 229.5 114.5
c101.333 0 178 -34.333 230 -103s78 -163.334 78 -284.001h-118c0 99.333 -17 171 -51 215s-80.333 66 -139 66c-61.333 0 -109.166 -28.333 -143.499 -85s-51.5 -138.667 -51.5 -246l8 -295h343v-104h-340z" />
    <glyph glyph-name="currency" unicode="&#xa4;" horiz-adv-x="1237" 
d="M934 124c-44.667 -47.333 -93.332 -83.1689 -145.999 -107.502s-108.667 -36.5 -168 -36.5c-60.667 0 -117.167 12.167 -169.5 36.5s-100.5 59.833 -144.5 106.5l-119 -149l-85 88l129 160c-33.333 54.667 -58.5 114.167 -75.5 178.5s-25.5 133.5 -25.5 207.5
c0 76 9.16699 147 27.5 213s45.166 127 80.499 183l-136 170l85 90l129 -162c43.333 42.667 90.333 75.334 141 98.001s105 34 163 34c57.333 0 111.333 -11.333 162 -34s98 -55.667 142 -99l132 164l85 -91l-139 -173c34 -55.333 60.167 -115.833 78.5 -181.5
s27.5 -136.167 27.5 -211.5c0 -73.333 -8.5 -141.666 -25.5 -204.999s-41.5 -122.333 -73.5 -177l132 -164l-85 -89zM243.002 607.997c0 -145.333 36.167 -267.333 108.5 -366s161.833 -148 268.5 -148c105.333 0 194.166 49.333 266.499 148s108.5 220.667 108.5 366
c0 143.333 -36.167 264.333 -108.5 363s-161.166 148 -266.499 148c-106.667 0 -196.167 -49.333 -268.5 -148s-108.5 -219.667 -108.5 -363z" />
    <glyph glyph-name="yen" unicode="&#xa5;" horiz-adv-x="990" 
d="M491 767l312 689h135l-352 -749h280v-90h-318v-203h318v-88h-318v-326h-118v326h-312v88h312v203h-312v90h277l-351 749h136z" />
    <glyph glyph-name="brokenbar" unicode="&#xa6;" horiz-adv-x="392" 
d="M134 -270v772h118v-772h-118zM252 698h-118v758h118v-758z" />
    <glyph glyph-name="section" unicode="&#xa7;" horiz-adv-x="1003" 
d="M898 431c0 -66.667 -15.667 -123.168 -47 -169.501s-76.333 -80.833 -135 -103.5c50 -34 87.167 -73.833 111.5 -119.5s36.5 -104.5 36.5 -176.5c0 -113.333 -33.333 -201.166 -100 -263.499s-158.334 -93.5 -275.001 -93.5c-114.667 0 -210 33.833 -286 101.5
s-114 177.5 -114 329.5l118 2c0 -116 27.167 -199.5 81.5 -250.5s121.166 -76.5 200.499 -76.5c81.333 0 144.333 22.833 189 68.5s67 105.834 67 180.501c0 70.667 -19.167 125.334 -57.5 164.001s-113.166 78.667 -224.499 120c-128.667 42 -222.5 91.667 -281.5 149
s-88.5 143.333 -88.5 258c0 66 15 122.167 45 168.5s73.667 81.166 131 104.499c-48 33.333 -83.333 73 -106 119s-34 104.667 -34 176c0 110 33.333 197.167 100 261.5s158.334 96.5 275.001 96.5c120 0 212.833 -36.833 278.5 -110.5s98.5 -180.5 98.5 -320.5h-118
c0 94.667 -22.667 172.5 -68 233.5s-109 91.5 -191 91.5c-86.667 0 -151.167 -23 -193.5 -69s-63.5 -106 -63.5 -180c0 -76.667 18.167 -134 54.5 -172s112.5 -78.333 228.5 -121c131.333 -45.333 225.5 -94.833 282.5 -148.5s85.5 -136.834 85.5 -249.501zM482 726.999
c-24 7.33301 -44.833 14.168 -62.5 20.501s-34.167 13.166 -49.5 20.499c-54 -10 -93.833 -34 -119.5 -72s-38.5 -85.667 -38.5 -143c0 -78.667 18.667 -136.834 56 -174.501s117.333 -79.5 240 -125.5l51.5 -19.5l47.5 -18.5c56 10 99 33.833 129 71.5
s45 84.834 45 141.501c0 72 -20.667 128.5 -62 169.5s-120.333 84.167 -237 129.5z" />
    <glyph glyph-name="dieresis" unicode="&#xa8;" horiz-adv-x="832" 
d="M690 1296h-155v160h155v-160zM304 1296h-156v160h156v-160z" />
    <glyph glyph-name="copyright" unicode="&#xa9;" horiz-adv-x="1363" 
d="M934 596c0 -105.333 -23.001 -184 -69.001 -236s-111 -78 -195 -78c-86 0 -153.833 35 -203.5 105s-74.5 164 -74.5 282v119c0 117.333 24.833 211.166 74.5 281.499s117.5 105.5 203.5 105.5c84 0 149.167 -26.167 195.5 -78.5s69.5 -130.5 69.5 -234.5h-96
c0 75.333 -14.167 130.833 -42.5 166.5s-70.5 53.5 -126.5 53.5c-58.667 0 -103.667 -27 -135 -81s-47 -124.667 -47 -212v-120c0 -90 15.667 -161.667 47 -215s76.333 -80 135 -80c56.667 0 98.834 17.333 126.501 52s41.5 91.334 41.5 170.001h96zM175.999 729
c0 -189.333 48.333 -347.166 145 -473.499s216 -189.5 358 -189.5c141.333 0 260.5 63.167 357.5 189.5s145.5 284.166 145.5 473.499c0 187.333 -48.5 343.833 -145.5 469.5s-216.167 188.5 -357.5 188.5c-142 0 -261.333 -62.833 -358 -188.5s-145 -282.167 -145 -469.5z
M95.999 729c0 214 55.833 391.998 167.5 533.998s250.167 213 415.5 213c164.667 0 303 -71 415 -213s168 -320 168 -534c0 -215.333 -56 -394.166 -168 -536.499s-250.333 -213.5 -415 -213.5s-303 71.333 -415 214s-168 321.334 -168 536.001z" />
    <glyph glyph-name="ordfeminine" unicode="&#xaa;" horiz-adv-x="739" 
d="M510 706c-4.66699 16 -8.5 32.501 -11.5 49.501s-5.16699 34.5 -6.5 52.5h-3c-17.333 -34 -41 -61.833 -71 -83.5s-66.333 -32.5 -109 -32.5c-63.333 0 -111.5 20 -144.5 60s-49.5 96 -49.5 168c0 71.333 20.667 126 62 164s103.333 57 186 57h128v61
c0 56.667 -9.33301 100.167 -28 130.5s-46.667 45.5 -84 45.5c-44 0 -77.333 -12.167 -100 -36.5s-34 -60.5 -34 -108.5l-105 11c0 69.333 21.667 125.5 65 168.5s101.333 64.5 174 64.5c68 0 121.333 -23.333 160 -70s58 -115.334 58 -206.001v-314
c0 -35.333 1.33301 -67.333 4 -96s8 -57 16 -85h-107zM332 789.001c32.667 0 64.668 12.333 96.001 37s52.333 52.667 63 84v145h-128c-46.667 0 -82.334 -12.5 -107.001 -37.5s-37 -56.167 -37 -93.5c0 -44 9 -77.5 27 -100.5s46.667 -34.5 86 -34.5z" />
    <glyph glyph-name="guillemotleft" unicode="&#xab;" horiz-adv-x="768" 
d="M219 520l210 -389h-97l-230 380v19l230 379h97zM468 520l210 -389h-97l-230 380v19l230 379h97z" />
    <glyph glyph-name="logicalnot" unicode="&#xac;" horiz-adv-x="907" 
d="M754 385h-118v283h-524v109h642v-392z" />
    <glyph glyph-name="uni00AD" unicode="&#xad;" horiz-adv-x="478" 
d="M425 589h-378v104h378v-104z" />
    <glyph glyph-name="registered" unicode="&#xae;" horiz-adv-x="1365" 
d="M94 729c0 214 55.833 392.002 167.5 534.002s250.167 213 415.5 213c164.667 0 303 -71 415 -213s168 -320 168 -534c0 -214.667 -56.167 -393.334 -168.5 -536.001s-250.5 -214 -414.5 -214c-165.333 0 -303.833 71.167 -415.5 213.5s-167.5 321.166 -167.5 536.499z
M174 729.002c0 -189.333 48.167 -347.166 144.5 -473.499s215.833 -189.5 358.5 -189.5c141.333 0 260.333 63.167 357 189.5s145 284.166 145 473.499c0 187.333 -48.333 343.833 -145 469.5s-215.667 188.5 -357 188.5c-142.667 0 -262.167 -62.833 -358.5 -188.5
s-144.5 -282.167 -144.5 -469.5zM548 670.002v-353.999h-94v850h218c82.667 0 146 -20.833 190 -62.5s66 -103.834 66 -186.501c0 -45.333 -10 -84.166 -30 -116.499s-49.333 -58.833 -88 -79.5c38.667 -16.667 66.5 -42.5 83.5 -77.5s25.5 -77.833 25.5 -128.5v-56
c0 -26.667 1.16699 -50.834 3.5 -72.501s6.16602 -39.834 11.499 -54.501v-16h-99c-5.33301 14.667 -8.5 35.167 -9.5 61.5s-1.5 53.833 -1.5 82.5v54c0 56.667 -9.66699 96.834 -29 120.501s-52.666 35.5 -99.999 35.5h-147zM548 764.003h141c42 0 76.5 13 103.5 39
s40.5 63.333 40.5 112c0 57.333 -11.833 98 -35.5 122s-65.5 36 -125.5 36h-124v-309z" />
    <glyph glyph-name="macron" unicode="&#xaf;" horiz-adv-x="766" 
d="M670 1356h-564v100h564v-100z" />
    <glyph glyph-name="macron" unicode="&#x2c9;" horiz-adv-x="766" 
d="M670 1356h-564v100h564v-100z" />
    <glyph glyph-name="degree" unicode="&#xb0;" horiz-adv-x="660" 
d="M126 1226c0 69.333 19.833 128.5 59.5 177.5s88.167 73.5 145.5 73.5c56 0 103.667 -24.5 143 -73.5s59 -108.167 59 -177.5c0 -70.667 -19.5 -129.667 -58.5 -177s-86.833 -71 -143.5 -71c-57.333 0 -105.833 23.667 -145.5 71s-59.5 106.333 -59.5 177zM212 1226
c0 -45.333 11.333 -82.333 34 -111s51 -43 85 -43s62 14.167 84 42.5s33 65.5 33 111.5s-11 83.667 -33 113s-50 44 -84 44s-62.333 -14.833 -85 -44.5s-34 -67.167 -34 -112.5z" />
    <glyph glyph-name="plusminus" unicode="&#xb1;" horiz-adv-x="922" 
d="M528 831h312v-105h-312v-437h-109v437h-332v105h332v436h109v-436zM804 46h-654v104h654v-104z" />
    <glyph glyph-name="twosuperior" unicode="&#xb2;" horiz-adv-x="691" 
d="M560 667l-453.002 -0.00292969v92l243 281c38.667 46.667 64.334 84.334 77.001 113.001s19 59.334 19 92.001c0 43.333 -8.83301 77.5 -26.5 102.5s-45.5 37.5 -83.5 37.5c-42 0 -73.833 -13.5 -95.5 -40.5s-32.5 -62.833 -32.5 -107.5h-105
c0 69.333 20.833 127 62.5 173s98.5 69 170.5 69c68.667 0 121.834 -19.833 159.501 -59.5s56.5 -98.167 56.5 -175.5c0 -51.333 -12.5 -97.666 -37.5 -138.999s-64.833 -93 -119.5 -155l-155 -191h320v-92z" />
    <glyph glyph-name="threesuperior" unicode="&#xb3;" horiz-adv-x="702" 
d="M341 1120c42.667 0 73.5 11.335 92.5 34.002s28.5 55.667 28.5 99c0 39.333 -10.5 71 -31.5 95s-52.833 36 -95.5 36c-36 0 -65 -11.333 -87 -34s-33 -53.334 -33 -92.001h-105c0 67.333 21.167 120.833 63.5 160.5s96.166 59.5 161.499 59.5
c73.333 0 130.5 -19.333 171.5 -58s61.5 -94.667 61.5 -168c0 -39.333 -9.33301 -74.333 -28 -105s-45 -54.334 -79 -71.001c38.667 -15.333 67.834 -38.833 87.501 -70.5s29.5 -71.5 29.5 -119.5c0 -74 -22 -131 -66 -171s-103 -60 -177 -60
c-65.333 0 -120.833 19.167 -166.5 57.5s-68.5 96.833 -68.5 175.5h104c0 -42 11.833 -76 35.5 -102s55.5 -39 95.5 -39c44.667 0 78.834 12.167 102.501 36.5s35.5 58.5 35.5 102.5c0 50 -10.833 86.333 -32.5 109s-54.834 34 -99.501 34h-99v91h99z" />
    <glyph glyph-name="acute" unicode="&#xb4;" horiz-adv-x="522" 
d="M276 1478h152l-216 -266h-99z" />
    <glyph glyph-name="mu" unicode="&#xb5;" 
d="M255 1082v-632c0 -140.667 16.5 -237 49.5 -289s79.5 -78 139.5 -78c64 0 113.667 16.667 149 50s61.333 83 78 149v800h118v-1082h-103l-8 129l-3 1c-23.333 -49.333 -53.5 -86.833 -90.5 -112.5s-81.5 -38.5 -133.5 -38.5c-43.333 0 -81 8.5 -113 25.5
s-58.667 44.5 -80 82.5l-3 -1v-502h-117v1498h117z" />
    <glyph glyph-name="paragraph" unicode="&#xb6;" horiz-adv-x="799" 
d="M534 0v519.999h-77c-124 0 -219.333 42.5 -286 127.5s-100 198.5 -100 340.5c0 140.667 33.333 253.834 100 339.501s162 128.5 286 128.5h194v-1456h-117z" />
    <glyph glyph-name="periodcentered" unicode="&#xb7;" horiz-adv-x="432" 
d="M277 624h-135v181h135v-181z" />
    <glyph glyph-name="cedilla" unicode="&#xb8;" horiz-adv-x="420" 
d="M220 0l-9.00098 -63.001c36.667 -6 66.667 -22.167 90 -48.5s35 -67.166 35 -122.499c0 -62 -20.167 -111 -60.5 -147s-98.166 -54 -173.499 -54l-6 80c41.333 0 75.833 9.83301 103.5 29.5s41.5 49.5 41.5 89.5c0 38 -9.83301 64.333 -29.5 79s-53.5 24.667 -101.5 30
l23 127h87z" />
    <glyph glyph-name="onesuperior" unicode="&#xb9;" horiz-adv-x="442" 
d="M298 665h-105v700l-109 -7v96l214 23v-812z" />
    <glyph glyph-name="ordmasculine" unicode="&#xba;" horiz-adv-x="753" 
d="M115 1142c0 100.667 23 181.667 69 243s109.333 92 190 92s144.167 -30.667 190.5 -92s69.5 -142.333 69.5 -243v-117c0 -101.333 -23 -182.333 -69 -243s-109 -91 -189 -91c-82 0 -146 30.333 -192 91s-69 141.667 -69 243v117zM219 1025
c0 -72 13.001 -129.5 39.001 -172.5s65.333 -64.5 118 -64.5c50 0 88.167 21.5 114.5 64.5s39.5 100.5 39.5 172.5v117c0 69.333 -13.333 126 -40 170s-65.334 66 -116.001 66c-51.333 0 -90 -22 -116 -66s-39 -100.667 -39 -170v-117z" />
    <glyph glyph-name="guillemotright" unicode="&#xbb;" horiz-adv-x="765" 
d="M200 944l230 -384v-19l-230 -380h-96l208 389l-208 394h96zM456 944l230 -384v-19l-230 -380h-96l208 389l-208 394h96z" />
    <glyph glyph-name="onequarter" unicode="&#xbc;" horiz-adv-x="1259" 
d="M360 664h-105v700l-109 -7v96l214 23v-812zM342 128l-69 49l556 1138l69 -49zM1062 261h112v-93h-112v-168h-104v168h-332l-5 69l333 564h108v-540zM739 261h219v391l-3 1l-18 -36z" />
    <glyph glyph-name="onehalf" unicode="&#xbd;" horiz-adv-x="1297" 
d="M351 128l-69 49l556 1138l69 -49zM360 664h-105v700l-109 -7v96l214 23v-812zM1186 0l-453.002 -0.00292969v92l243 281c38.667 46.667 64.334 84.334 77.001 113.001s19 59.334 19 92.001c0 43.333 -8.83301 77.5 -26.5 102.5s-45.5 37.5 -83.5 37.5
c-42 0 -73.833 -13.5 -95.5 -40.5s-32.5 -62.833 -32.5 -107.5h-105c0 69.333 20.833 127 62.5 173s98.5 69 170.5 69c68.667 0 121.834 -19.833 159.501 -59.5s56.5 -98.167 56.5 -175.5c0 -51.333 -12.5 -97.666 -37.5 -138.999s-64.833 -93 -119.5 -155l-155 -191h320
v-92z" />
    <glyph glyph-name="threequarters" unicode="&#xbe;" horiz-adv-x="1389" 
d="M496 128l-69 49l556 1138l69 -49zM1219 261h112v-93h-112v-168h-104v168h-332l-5 69l333 564h108v-540zM896 261h219v391l-3 1l-18 -36zM358 1121c42.667 0 73.5 11.335 92.5 34.002s28.5 55.667 28.5 99c0 39.333 -10.5 71 -31.5 95s-52.833 36 -95.5 36
c-36 0 -65 -11.333 -87 -34s-33 -53.334 -33 -92.001h-105c0 67.333 21.167 120.833 63.5 160.5s96.166 59.5 161.499 59.5c73.333 0 130.5 -19.333 171.5 -58s61.5 -94.667 61.5 -168c0 -39.333 -9.33301 -74.333 -28 -105s-45 -54.334 -79 -71.001
c38.667 -15.333 67.834 -38.833 87.501 -70.5s29.5 -71.5 29.5 -119.5c0 -74 -22 -131 -66 -171s-103 -60 -177 -60c-65.333 0 -120.833 19.167 -166.5 57.5s-68.5 96.833 -68.5 175.5h104c0 -42 11.833 -76 35.5 -102s55.5 -39 95.5 -39
c44.667 0 78.834 12.167 102.501 36.5s35.5 58.5 35.5 102.5c0 50 -10.833 86.333 -32.5 109s-54.834 34 -99.501 34h-99v91h99z" />
    <glyph glyph-name="questiondown" unicode="&#xbf;" horiz-adv-x="794" 
d="M484 677c-1.33301 -88.667 -7.66797 -149.832 -19.001 -183.499s-42.333 -79.5 -93 -137.5c-56.667 -81.333 -96.5 -145 -119.5 -191s-34.5 -107 -34.5 -183c0 -86 16.167 -151.833 48.5 -197.5s79.833 -68.5 142.5 -68.5c56 0 101.833 22.333 137.5 67
s53.834 106 54.501 184h118c-2 -115.333 -31.5 -204.333 -88.5 -267s-130.833 -94 -221.5 -94c-99.333 0 -175.5 33 -228.5 99s-79.5 157.667 -79.5 275c0 89.333 16.833 167.333 50.5 234s83.167 141 148.5 223c30.667 35.333 49.167 67.666 55.5 96.999s9.5 77 9.5 143
h119zM355.998 1083h129v-158h-129v158z" />
    <glyph glyph-name="Agrave" unicode="&#xc0;" horiz-adv-x="1059" 
d="M777 409h-495l-118 -409h-122l437 1456h106l431 -1456h-122zM313 514h434l-215 748h-3zM591 1561h-107l-206 266h154z" />
    <glyph glyph-name="Aacute" unicode="&#xc1;" horiz-adv-x="1059" 
d="M777 409h-495l-118 -409h-122l437 1456h106l431 -1456h-122zM313 514h434l-215 748h-3zM627 1823h152l-216 -266h-99z" />
    <glyph glyph-name="Acircumflex" unicode="&#xc2;" horiz-adv-x="1059" 
d="M777 409h-495l-118 -409h-122l437 1456h106l431 -1456h-122zM313 514h434l-215 748h-3zM758 1620v-19h-103l-125 166l-123 -166h-102v21l184 222h83z" />
    <glyph glyph-name="Atilde" unicode="&#xc3;" horiz-adv-x="1059" 
d="M777 409h-495l-118 -409h-122l437 1456h106l431 -1456h-122zM313 514h434l-215 748h-3zM789 1823c0 -60 -14.668 -109.166 -44.001 -147.499s-66.666 -57.5 -111.999 -57.5c-38 0 -76.833 18.167 -116.5 54.5s-73.5 54.5 -101.5 54.5
c-24.667 0 -44.834 -11.333 -60.501 -34s-23.5 -52.334 -23.5 -89.001l-71 18c0 59.333 14.167 108.333 42.5 147s65.833 58 112.5 58c32.667 0 70.334 -18.333 113.001 -55s77.667 -55 105 -55c24 0 44 11.833 60 35.5s24 54.167 24 91.5z" />
    <glyph glyph-name="Adieresis" unicode="&#xc4;" horiz-adv-x="1059" 
d="M777 409h-495l-118 -409h-122l437 1456h106l431 -1456h-122zM313 514h434l-215 748h-3zM803 1638h-155v160h155v-160zM417 1638h-156v160h156v-160z" />
    <glyph glyph-name="Aring" unicode="&#xc5;" horiz-adv-x="1059" 
d="M777 409h-495l-118 -409h-122l437 1456h106l431 -1456h-122zM313 514h434l-215 748h-3zM379 1731c0 48 14.5 87.998 43.5 119.998s64.833 48 107.5 48c40.667 0 75.167 -16 103.5 -48s42.5 -72 42.5 -120c0 -49.333 -14 -89.166 -42 -119.499s-62.667 -45.5 -104 -45.5
c-42.667 0 -78.5 15.333 -107.5 46s-43.5 70.334 -43.5 119.001zM451 1731c0 -27.333 7.5 -49.5 22.5 -66.5s33.833 -25.5 56.5 -25.5c21.333 0 39.166 8.5 53.499 25.5s21.5 39.167 21.5 66.5s-7.16699 49.833 -21.5 67.5s-32.166 26.5 -53.499 26.5
c-22.667 0 -41.5 -9 -56.5 -27s-22.5 -40.333 -22.5 -67z" />
    <glyph glyph-name="AE" unicode="&#xc6;" horiz-adv-x="1504" 
d="M1460 0h-663l-13 387h-448l-177 -387h-144l689 1456h708v-106h-543l18 -540h461v-104h-457l19 -602h550v-104zM389 503h391l-26 800l-1 -5z" />
    <glyph glyph-name="Ccedilla" unicode="&#xc7;" horiz-adv-x="1026" 
d="M939 421c-3.33301 -148 -39.5 -258.668 -108.5 -332.001s-166.167 -110 -291.5 -110c-130 0 -231.167 46.333 -303.5 139s-108.5 228.667 -108.5 408v403c0 178.667 36.167 314.667 108.5 408s173.5 140 303.5 140c126.667 0 224.167 -36.167 292.5 -108.5
s104.166 -184.166 107.499 -335.499h-118c-4 118 -28.667 203.833 -74 257.5s-114.666 80.5 -207.999 80.5c-95.333 0 -168 -36.667 -218 -110s-75 -183 -75 -329v-406c0 -148 25 -258.833 75 -332.5s122.667 -110.5 218 -110.5c94 0 163.5 25.667 208.5 77
s69.5 138.333 73.5 261h118zM598 -9.00098l-9.00098 -63.001c36.667 -6 66.667 -22.167 90 -48.5s35 -67.166 35 -122.499c0 -62 -20.167 -111 -60.5 -147s-98.166 -54 -173.499 -54l-6 80c41.333 0 75.833 9.83301 103.5 29.5s41.5 49.5 41.5 89.5
c0 38 -9.83301 64.333 -29.5 79s-53.5 24.667 -101.5 30l23 127h87z" />
    <glyph glyph-name="Egrave" unicode="&#xc8;" horiz-adv-x="955" 
d="M814 703h-537v-599h618v-104h-736v1456h730v-106h-612v-543h537v-104zM563 1561h-107l-206 266h154z" />
    <glyph glyph-name="Eacute" unicode="&#xc9;" horiz-adv-x="955" 
d="M814 703h-537v-599h618v-104h-736v1456h730v-106h-612v-543h537v-104zM599 1823h152l-216 -266h-99z" />
    <glyph glyph-name="Ecircumflex" unicode="&#xca;" horiz-adv-x="955" 
d="M814 703h-537v-599h618v-104h-736v1456h730v-106h-612v-543h537v-104zM730 1620v-19h-103l-125 166l-123 -166h-102v21l184 222h83z" />
    <glyph glyph-name="Edieresis" unicode="&#xcb;" horiz-adv-x="955" 
d="M814 703h-537v-599h618v-104h-736v1456h730v-106h-612v-543h537v-104zM775 1638h-155v160h155v-160zM389 1638h-156v160h156v-160z" />
    <glyph glyph-name="Igrave" unicode="&#xcc;" horiz-adv-x="468" 
d="M293 0h-118v1456h118v-1456zM295 1561h-107l-206 266h154z" />
    <glyph glyph-name="Iacute" unicode="&#xcd;" horiz-adv-x="468" 
d="M293 0h-118v1456h118v-1456zM330 1823h152l-216 -266h-99z" />
    <glyph glyph-name="Icircumflex" unicode="&#xce;" horiz-adv-x="468" 
d="M293 0h-118v1456h118v-1456zM462 1620v-19h-103l-125 166l-123 -166h-102v21l184 222h83z" />
    <glyph glyph-name="Idieresis" unicode="&#xcf;" horiz-adv-x="468" 
d="M293 0h-118v1456h118v-1456zM507 1638h-155v160h155v-160zM121 1638h-156v160h156v-160z" />
    <glyph glyph-name="Eth" unicode="&#xd0;" horiz-adv-x="1131" 
d="M189 0l-0.000976562 688h-124v104h124v664h314c162.667 0 286.334 -48.333 371.001 -145s127 -246.667 127 -450v-268c0 -204.667 -42.667 -354.667 -128 -450s-212.333 -143 -381 -143h-303zM551.999 688h-245v-584h185c135.333 0 234.5 39.5 297.5 118.5
s94.5 202.5 94.5 370.5v270c0 168 -31 291.167 -93 369.5s-158 117.5 -288 117.5h-196v-558h245v-104z" />
    <glyph glyph-name="Ntilde" unicode="&#xd1;" horiz-adv-x="1167" 
d="M1007 0h-118l-608 1218l-3 -1v-1217h-119v1456h119l608 -1218l3 1v1217h118v-1456zM841 1823c0 -60 -14.668 -109.166 -44.001 -147.499s-66.666 -57.5 -111.999 -57.5c-38 0 -76.833 18.167 -116.5 54.5s-73.5 54.5 -101.5 54.5c-24.667 0 -44.834 -11.333 -60.501 -34
s-23.5 -52.334 -23.5 -89.001l-71 18c0 59.333 14.167 108.333 42.5 147s65.833 58 112.5 58c32.667 0 70.334 -18.333 113.001 -55s77.667 -55 105 -55c24 0 44 11.833 60 35.5s24 54.167 24 91.5z" />
    <glyph glyph-name="Ograve" unicode="&#xd2;" horiz-adv-x="1125" 
d="M994 523c0 -179.333 -38.5 -314.834 -115.5 -406.501s-184.167 -137.5 -321.5 -137.5c-134.667 0 -239.5 46 -314.5 138s-112.5 227.333 -112.5 406v408c0 178.667 37.5 314.334 112.5 407.001s179.833 139 314.5 139c136.667 0 243.667 -46.5 321 -139.5
s116 -228.5 116 -406.5v-408zM876 933.999c0 146 -27.167 254.833 -81.5 326.5s-133.5 107.5 -237.5 107.5c-100.667 0 -177.167 -35.833 -229.5 -107.5s-78.5 -180.5 -78.5 -326.5v-411c0 -147.333 26.167 -257 78.5 -329s128.833 -108 229.5 -108
c104 0 183.167 35.833 237.5 107.5s81.5 181.5 81.5 329.5v411zM623 1582h-107l-206 266h154z" />
    <glyph glyph-name="Oacute" unicode="&#xd3;" horiz-adv-x="1125" 
d="M994 523c0 -179.333 -38.5 -314.834 -115.5 -406.501s-184.167 -137.5 -321.5 -137.5c-134.667 0 -239.5 46 -314.5 138s-112.5 227.333 -112.5 406v408c0 178.667 37.5 314.334 112.5 407.001s179.833 139 314.5 139c136.667 0 243.667 -46.5 321 -139.5
s116 -228.5 116 -406.5v-408zM876 933.999c0 146 -27.167 254.833 -81.5 326.5s-133.5 107.5 -237.5 107.5c-100.667 0 -177.167 -35.833 -229.5 -107.5s-78.5 -180.5 -78.5 -326.5v-411c0 -147.333 26.167 -257 78.5 -329s128.833 -108 229.5 -108
c104 0 183.167 35.833 237.5 107.5s81.5 181.5 81.5 329.5v411zM659 1844h152l-216 -266h-99z" />
    <glyph glyph-name="Ocircumflex" unicode="&#xd4;" horiz-adv-x="1125" 
d="M994 523c0 -179.333 -38.5 -314.834 -115.5 -406.501s-184.167 -137.5 -321.5 -137.5c-134.667 0 -239.5 46 -314.5 138s-112.5 227.333 -112.5 406v408c0 178.667 37.5 314.334 112.5 407.001s179.833 139 314.5 139c136.667 0 243.667 -46.5 321 -139.5
s116 -228.5 116 -406.5v-408zM876 933.999c0 146 -27.167 254.833 -81.5 326.5s-133.5 107.5 -237.5 107.5c-100.667 0 -177.167 -35.833 -229.5 -107.5s-78.5 -180.5 -78.5 -326.5v-411c0 -147.333 26.167 -257 78.5 -329s128.833 -108 229.5 -108
c104 0 183.167 35.833 237.5 107.5s81.5 181.5 81.5 329.5v411zM790 1641v-19h-103l-125 166l-123 -166h-102v21l184 222h83z" />
    <glyph glyph-name="Otilde" unicode="&#xd5;" horiz-adv-x="1125" 
d="M994 523c0 -179.333 -38.5 -314.834 -115.5 -406.501s-184.167 -137.5 -321.5 -137.5c-134.667 0 -239.5 46 -314.5 138s-112.5 227.333 -112.5 406v408c0 178.667 37.5 314.334 112.5 407.001s179.833 139 314.5 139c136.667 0 243.667 -46.5 321 -139.5
s116 -228.5 116 -406.5v-408zM876 933.999c0 146 -27.167 254.833 -81.5 326.5s-133.5 107.5 -237.5 107.5c-100.667 0 -177.167 -35.833 -229.5 -107.5s-78.5 -180.5 -78.5 -326.5v-411c0 -147.333 26.167 -257 78.5 -329s128.833 -108 229.5 -108
c104 0 183.167 35.833 237.5 107.5s81.5 181.5 81.5 329.5v411zM821 1844c0 -60 -14.668 -109.166 -44.001 -147.499s-66.666 -57.5 -111.999 -57.5c-38 0 -76.833 18.167 -116.5 54.5s-73.5 54.5 -101.5 54.5c-24.667 0 -44.834 -11.333 -60.501 -34
s-23.5 -52.334 -23.5 -89.001l-71 18c0 59.333 14.167 108.333 42.5 147s65.833 58 112.5 58c32.667 0 70.334 -18.333 113.001 -55s77.667 -55 105 -55c24 0 44 11.833 60 35.5s24 54.167 24 91.5z" />
    <glyph glyph-name="Odieresis" unicode="&#xd6;" horiz-adv-x="1125" 
d="M994 523c0 -179.333 -38.5 -314.834 -115.5 -406.501s-184.167 -137.5 -321.5 -137.5c-134.667 0 -239.5 46 -314.5 138s-112.5 227.333 -112.5 406v408c0 178.667 37.5 314.334 112.5 407.001s179.833 139 314.5 139c136.667 0 243.667 -46.5 321 -139.5
s116 -228.5 116 -406.5v-408zM876 933.999c0 146 -27.167 254.833 -81.5 326.5s-133.5 107.5 -237.5 107.5c-100.667 0 -177.167 -35.833 -229.5 -107.5s-78.5 -180.5 -78.5 -326.5v-411c0 -147.333 26.167 -257 78.5 -329s128.833 -108 229.5 -108
c104 0 183.167 35.833 237.5 107.5s81.5 181.5 81.5 329.5v411zM835 1659h-155v160h155v-160zM449 1659h-156v160h156v-160z" />
    <glyph glyph-name="multiply" unicode="&#xd7;" horiz-adv-x="914" 
d="M88 320l291 361l-283 351l79 82l276 -343l277 343l78 -82l-282 -351l291 -361l-78 -82l-286 353l-284 -353z" />
    <glyph glyph-name="Oslash" unicode="&#xd8;" horiz-adv-x="1112" 
d="M985 523c0 -179.333 -38.501 -314.836 -115.501 -406.503s-184.167 -137.5 -321.5 -137.5c-49.333 0 -94.166 6.16699 -134.499 18.5s-77.5 31.5 -111.5 57.5l-67 -140h-96l97 204c-38 46.667 -66.667 103.334 -86 170.001s-29 144.667 -29 234v408
c0 178.667 37.5 314.334 112.5 407.001s179.833 139 314.5 139c58 0 110.5 -8.83301 157.5 -26.5s89.5 -44.167 127.5 -79.5l64 135h96l-99 -208c30 -47.333 52.667 -101.166 68 -161.499s23 -128.833 23 -205.5v-408zM239.999 522.997
c0 -61.333 4.33203 -115.168 12.999 -161.501s22.334 -87.166 41.001 -122.499l487 1023c-28 36 -61.167 62.667 -99.5 80s-82.833 26 -133.5 26c-100.667 0 -177.167 -35.833 -229.5 -107.5s-78.5 -180.5 -78.5 -326.5v-411zM866.998 933.995
c0 46.667 -2.99805 89.167 -8.99805 127.5s-14.667 73.833 -26 106.5l-481 -1009c25.333 -25.333 54.166 -43.833 86.499 -55.5s69.166 -17.5 110.499 -17.5c104 0 183.167 35.833 237.5 107.5s81.5 181.5 81.5 329.5v411z" />
    <glyph glyph-name="Ugrave" unicode="&#xd9;" horiz-adv-x="1068" 
d="M937 1456l0.000976562 -1019c0 -151.333 -37 -265.5 -111 -342.5s-172.667 -115.5 -296 -115.5c-120.667 0 -217 38.5 -289 115.5s-108 191.167 -108 342.5v1019h116v-1019c0 -116.667 25.5 -204.834 76.5 -264.501s119.167 -89.5 204.5 -89.5
c89.333 0 160.166 28.667 212.499 86s78.5 146.666 78.5 267.999v1019h116zM599.001 1561h-107l-206 266h154z" />
    <glyph glyph-name="Uacute" unicode="&#xda;" horiz-adv-x="1068" 
d="M937 1456l0.000976562 -1019c0 -151.333 -37 -265.5 -111 -342.5s-172.667 -115.5 -296 -115.5c-120.667 0 -217 38.5 -289 115.5s-108 191.167 -108 342.5v1019h116v-1019c0 -116.667 25.5 -204.834 76.5 -264.501s119.167 -89.5 204.5 -89.5
c89.333 0 160.166 28.667 212.499 86s78.5 146.666 78.5 267.999v1019h116zM635.001 1823h152l-216 -266h-99z" />
    <glyph glyph-name="Ucircumflex" unicode="&#xdb;" horiz-adv-x="1068" 
d="M937 1456l0.000976562 -1019c0 -151.333 -37 -265.5 -111 -342.5s-172.667 -115.5 -296 -115.5c-120.667 0 -217 38.5 -289 115.5s-108 191.167 -108 342.5v1019h116v-1019c0 -116.667 25.5 -204.834 76.5 -264.501s119.167 -89.5 204.5 -89.5
c89.333 0 160.166 28.667 212.499 86s78.5 146.666 78.5 267.999v1019h116zM766.001 1620v-19h-103l-125 166l-123 -166h-102v21l184 222h83z" />
    <glyph glyph-name="Udieresis" unicode="&#xdc;" horiz-adv-x="1068" 
d="M937 1456l0.000976562 -1019c0 -151.333 -37 -265.5 -111 -342.5s-172.667 -115.5 -296 -115.5c-120.667 0 -217 38.5 -289 115.5s-108 191.167 -108 342.5v1019h116v-1019c0 -116.667 25.5 -204.834 76.5 -264.501s119.167 -89.5 204.5 -89.5
c89.333 0 160.166 28.667 212.499 86s78.5 146.666 78.5 267.999v1019h116zM811.001 1638h-155v160h155v-160zM425.001 1638h-156v160h156v-160z" />
    <glyph glyph-name="Yacute" unicode="&#xdd;" horiz-adv-x="974" 
d="M487 689l315 767h135l-395 -924v-532h-115v542l-390 914h134zM583 1816h152l-216 -266h-99z" />
    <glyph glyph-name="Thorn" unicode="&#xde;" horiz-adv-x="975" 
d="M269 1456v-303h236c119.333 0 211.333 -38 276 -114s97 -176.333 97 -301c0 -126 -32.333 -226.667 -97 -302s-156.667 -113 -276 -113h-236v-323h-119v1456h119zM269 1048v-621h236c86 0 150.167 29.833 192.5 89.5s63.5 132.834 63.5 219.501
c0 87.333 -21.167 161.166 -63.5 221.499s-106.5 90.5 -192.5 90.5h-236z" />
    <glyph glyph-name="germandbls" unicode="&#xdf;" horiz-adv-x="972" 
d="M245 0h-117.999v1082c0 138.667 27.833 245.334 83.5 320.001s130.167 112 223.5 112c78.667 0 142.667 -26 192 -78s74 -127.333 74 -226c0 -74 -16.333 -146.167 -49 -216.5s-49 -131.5 -49 -183.5c0 -58 46.833 -133.667 140.5 -227s140.5 -189 140.5 -287
c0 -105.333 -27.667 -184.333 -83 -237s-126.666 -79 -213.999 -79c-44.667 0 -90.167 7.66699 -136.5 23s-79.833 34 -100.5 56l30 104c21.333 -20.667 50.166 -39.167 86.499 -55.5s72.166 -24.5 107.499 -24.5c63.333 0 111.333 19.167 144 57.5s49 90.166 49 155.499
c0 66.667 -47 146.167 -141 238.5s-141 184.833 -141 277.5c0 62.667 17.167 129.667 51.5 201s51.5 134.666 51.5 189.999c0 62.667 -14.5 112.834 -43.5 150.501s-62.833 56.5 -101.5 56.5c-60.667 0 -108.667 -27.833 -144 -83.5s-53 -137.167 -53 -244.5v-1082z" />
    <glyph glyph-name="agrave" unicode="&#xe0;" horiz-adv-x="896" 
d="M662 0c-6.66699 43.333 -11.168 74.832 -13.501 94.499s-3.5 40.5 -3.5 62.5l-3 1c-30 -52 -69 -94.667 -117 -128s-102 -50 -162 -50c-86.667 0 -152.5 27.333 -197.5 82s-67.5 130 -67.5 226c0 102.667 32.833 183.334 98.5 242.001s156.5 88 272.5 88h176v133
c0 78 -17.667 138.333 -53 181s-85.666 64 -150.999 64c-61.333 0 -111 -20.333 -149 -61s-57 -91.667 -57 -153l-118 1c0 86 30.5 160.667 91.5 224s140.5 95 238.5 95c96 0 172.667 -29.833 230 -89.5s86 -147.5 86 -263.5v-531c0 -38.667 1.5 -75.667 4.5 -111
s8.5 -71 16.5 -107h-122zM378.999 87.999c62.667 0 117.5 18.5 164.5 55.5s80.833 85.833 101.5 146.5v235h-179c-78 0 -139.167 -22.833 -183.5 -68.5s-66.5 -103.167 -66.5 -172.5c0 -59.333 14 -106.833 42 -142.5s68.333 -53.5 121 -53.5zM502.999 1239h-107l-206 266
h154z" />
    <glyph glyph-name="aacute" unicode="&#xe1;" horiz-adv-x="896" 
d="M662 0c-6.66699 43.333 -11.168 74.832 -13.501 94.499s-3.5 40.5 -3.5 62.5l-3 1c-30 -52 -69 -94.667 -117 -128s-102 -50 -162 -50c-86.667 0 -152.5 27.333 -197.5 82s-67.5 130 -67.5 226c0 102.667 32.833 183.334 98.5 242.001s156.5 88 272.5 88h176v133
c0 78 -17.667 138.333 -53 181s-85.666 64 -150.999 64c-61.333 0 -111 -20.333 -149 -61s-57 -91.667 -57 -153l-118 1c0 86 30.5 160.667 91.5 224s140.5 95 238.5 95c96 0 172.667 -29.833 230 -89.5s86 -147.5 86 -263.5v-531c0 -38.667 1.5 -75.667 4.5 -111
s8.5 -71 16.5 -107h-122zM378.999 87.999c62.667 0 117.5 18.5 164.5 55.5s80.833 85.833 101.5 146.5v235h-179c-78 0 -139.167 -22.833 -183.5 -68.5s-66.5 -103.167 -66.5 -172.5c0 -59.333 14 -106.833 42 -142.5s68.333 -53.5 121 -53.5zM538.999 1501h152l-216 -266
h-99z" />
    <glyph glyph-name="acircumflex" unicode="&#xe2;" horiz-adv-x="896" 
d="M662 0c-6.66699 43.333 -11.168 74.832 -13.501 94.499s-3.5 40.5 -3.5 62.5l-3 1c-30 -52 -69 -94.667 -117 -128s-102 -50 -162 -50c-86.667 0 -152.5 27.333 -197.5 82s-67.5 130 -67.5 226c0 102.667 32.833 183.334 98.5 242.001s156.5 88 272.5 88h176v133
c0 78 -17.667 138.333 -53 181s-85.666 64 -150.999 64c-61.333 0 -111 -20.333 -149 -61s-57 -91.667 -57 -153l-118 1c0 86 30.5 160.667 91.5 224s140.5 95 238.5 95c96 0 172.667 -29.833 230 -89.5s86 -147.5 86 -263.5v-531c0 -38.667 1.5 -75.667 4.5 -111
s8.5 -71 16.5 -107h-122zM378.999 87.999c62.667 0 117.5 18.5 164.5 55.5s80.833 85.833 101.5 146.5v235h-179c-78 0 -139.167 -22.833 -183.5 -68.5s-66.5 -103.167 -66.5 -172.5c0 -59.333 14 -106.833 42 -142.5s68.333 -53.5 121 -53.5zM669.999 1298v-19h-103
l-125 166l-123 -166h-102v21l184 222h83z" />
    <glyph glyph-name="atilde" unicode="&#xe3;" horiz-adv-x="896" 
d="M662 0c-6.66699 43.333 -11.168 74.832 -13.501 94.499s-3.5 40.5 -3.5 62.5l-3 1c-30 -52 -69 -94.667 -117 -128s-102 -50 -162 -50c-86.667 0 -152.5 27.333 -197.5 82s-67.5 130 -67.5 226c0 102.667 32.833 183.334 98.5 242.001s156.5 88 272.5 88h176v133
c0 78 -17.667 138.333 -53 181s-85.666 64 -150.999 64c-61.333 0 -111 -20.333 -149 -61s-57 -91.667 -57 -153l-118 1c0 86 30.5 160.667 91.5 224s140.5 95 238.5 95c96 0 172.667 -29.833 230 -89.5s86 -147.5 86 -263.5v-531c0 -38.667 1.5 -75.667 4.5 -111
s8.5 -71 16.5 -107h-122zM378.999 87.999c62.667 0 117.5 18.5 164.5 55.5s80.833 85.833 101.5 146.5v235h-179c-78 0 -139.167 -22.833 -183.5 -68.5s-66.5 -103.167 -66.5 -172.5c0 -59.333 14 -106.833 42 -142.5s68.333 -53.5 121 -53.5zM700.999 1501
c0 -60 -14.668 -109.166 -44.001 -147.499s-66.666 -57.5 -111.999 -57.5c-38 0 -76.833 18.167 -116.5 54.5s-73.5 54.5 -101.5 54.5c-24.667 0 -44.834 -11.333 -60.501 -34s-23.5 -52.334 -23.5 -89.001l-71 18c0 59.333 14.167 108.333 42.5 147s65.833 58 112.5 58
c32.667 0 70.334 -18.333 113.001 -55s77.667 -55 105 -55c24 0 44 11.833 60 35.5s24 54.167 24 91.5z" />
    <glyph glyph-name="adieresis" unicode="&#xe4;" horiz-adv-x="896" 
d="M662 0c-6.66699 43.333 -11.168 74.832 -13.501 94.499s-3.5 40.5 -3.5 62.5l-3 1c-30 -52 -69 -94.667 -117 -128s-102 -50 -162 -50c-86.667 0 -152.5 27.333 -197.5 82s-67.5 130 -67.5 226c0 102.667 32.833 183.334 98.5 242.001s156.5 88 272.5 88h176v133
c0 78 -17.667 138.333 -53 181s-85.666 64 -150.999 64c-61.333 0 -111 -20.333 -149 -61s-57 -91.667 -57 -153l-118 1c0 86 30.5 160.667 91.5 224s140.5 95 238.5 95c96 0 172.667 -29.833 230 -89.5s86 -147.5 86 -263.5v-531c0 -38.667 1.5 -75.667 4.5 -111
s8.5 -71 16.5 -107h-122zM378.999 87.999c62.667 0 117.5 18.5 164.5 55.5s80.833 85.833 101.5 146.5v235h-179c-78 0 -139.167 -22.833 -183.5 -68.5s-66.5 -103.167 -66.5 -172.5c0 -59.333 14 -106.833 42 -142.5s68.333 -53.5 121 -53.5zM714.999 1316h-155v160h155
v-160zM328.999 1316h-156v160h156v-160z" />
    <glyph glyph-name="aring" unicode="&#xe5;" horiz-adv-x="896" 
d="M662 0c-6.66699 43.333 -11.168 74.832 -13.501 94.499s-3.5 40.5 -3.5 62.5l-3 1c-30 -52 -69 -94.667 -117 -128s-102 -50 -162 -50c-86.667 0 -152.5 27.333 -197.5 82s-67.5 130 -67.5 226c0 102.667 32.833 183.334 98.5 242.001s156.5 88 272.5 88h176v133
c0 78 -17.667 138.333 -53 181s-85.666 64 -150.999 64c-61.333 0 -111 -20.333 -149 -61s-57 -91.667 -57 -153l-118 1c0 86 30.5 160.667 91.5 224s140.5 95 238.5 95c96 0 172.667 -29.833 230 -89.5s86 -147.5 86 -263.5v-531c0 -38.667 1.5 -75.667 4.5 -111
s8.5 -71 16.5 -107h-122zM378.999 87.999c62.667 0 117.5 18.5 164.5 55.5s80.833 85.833 101.5 146.5v235h-179c-78 0 -139.167 -22.833 -183.5 -68.5s-66.5 -103.167 -66.5 -172.5c0 -59.333 14 -106.833 42 -142.5s68.333 -53.5 121 -53.5zM290.999 1409
c0 48 14.5 87.998 43.5 119.998s64.833 48 107.5 48c40.667 0 75.167 -16 103.5 -48s42.5 -72 42.5 -120c0 -49.333 -14 -89.166 -42 -119.499s-62.667 -45.5 -104 -45.5c-42.667 0 -78.5 15.333 -107.5 46s-43.5 70.334 -43.5 119.001zM362.999 1409
c0 -27.333 7.5 -49.5 22.5 -66.5s33.833 -25.5 56.5 -25.5c21.333 0 39.166 8.5 53.499 25.5s21.5 39.167 21.5 66.5s-7.16699 49.833 -21.5 67.5s-32.166 26.5 -53.499 26.5c-22.667 0 -41.5 -9 -56.5 -27s-22.5 -40.333 -22.5 -67z" />
    <glyph glyph-name="ae" unicode="&#xe6;" horiz-adv-x="1381" 
d="M1002 -21c-73.333 0 -136.499 17.334 -189.499 52.001s-96.167 85 -129.5 151c-28.667 -57.333 -71.167 -105.5 -127.5 -144.5s-126.166 -58.5 -209.499 -58.5c-90.667 0 -159.834 27.667 -207.501 83s-71.5 132.666 -71.5 231.999c0 106.667 29.333 189.667 88 249
s145 89 259 89h195v88c0 89.333 -14.833 157.666 -44.5 204.999s-74.834 71 -135.501 71c-66 0 -117 -21.667 -153 -65s-54 -99 -54 -167l-117 14c0 96.667 29 174.834 87 234.501s137 89.5 237 89.5c64 0 118.5 -15.667 163.5 -47s79.5 -78 103.5 -140
c33.333 60 73.5 106.167 120.5 138.5s99.5 48.5 157.5 48.5c109.333 0 192.833 -40.667 250.5 -122s86.5 -196 86.5 -344v-101h-578v-25c0 -130 21.667 -233.667 65 -311s111.333 -116 204 -116c55.333 0 102.666 10.5 141.999 31.5s75.333 49.833 108 86.5l44 -90
c-28 -36 -65.667 -67 -113 -93s-107.666 -39 -180.999 -39zM366.001 82.001c48 0 95.168 16 141.501 48s80.166 68 101.499 108v295h-193c-74.667 0 -131.667 -23 -171 -69s-59 -104 -59 -174c0 -65.333 15 -116.333 45 -153s75 -55 135 -55zM974.002 996.001
c-68.667 0 -123.666 -33 -164.999 -99s-66 -153 -74 -261h458v31c0 98.667 -17.833 178.167 -53.5 238.5s-90.834 90.5 -165.501 90.5z" />
    <glyph glyph-name="ccedilla" unicode="&#xe7;" horiz-adv-x="865" 
d="M458 83c58.667 0 110.169 22.168 154.502 66.501s65.833 107.166 64.5 188.499h112c1.33301 -105.333 -31.334 -191.333 -98.001 -258s-144.334 -100 -233.001 -100c-121.333 0 -213 43.667 -275 131s-93 202.333 -93 345v168c0 142 31.167 257.167 93.5 345.5
s153.833 132.5 274.5 132.5c98 0 178 -34.833 240 -104.5s92.333 -164.5 91 -284.5h-112c1.33301 88.667 -18.667 158 -60 208s-94.333 75 -159 75c-89.333 0 -153.333 -34.5 -192 -103.5s-58 -158.5 -58 -268.5v-168c0 -111.333 19.333 -201.333 58 -270
s102.667 -103 192 -103zM483.002 -8.99902l-9.00098 -63.001c36.667 -6 66.667 -22.167 90 -48.5s35 -67.166 35 -122.499c0 -62 -20.167 -111 -60.5 -147s-98.166 -54 -173.499 -54l-6 80c41.333 0 75.833 9.83301 103.5 29.5s41.5 49.5 41.5 89.5
c0 38 -9.83301 64.333 -29.5 79s-53.5 24.667 -101.5 30l23 127h87z" />
    <glyph glyph-name="egrave" unicode="&#xe8;" horiz-adv-x="862" 
d="M459 -20c-110.667 0 -200.168 43.168 -268.501 129.501s-102.5 198.5 -102.5 336.5v180c0 139.333 34.5 253.5 103.5 342.5s153.833 133.5 254.5 133.5c110 0 194.167 -39.833 252.5 -119.5s87.5 -189.167 87.5 -328.5v-119h-580v-89
c0 -106.667 22.167 -193.834 66.5 -261.501s106.5 -101.5 186.5 -101.5c62 0 113.167 10.333 153.5 31s73.5 50 99.5 88l48 -85c-30.667 -43.333 -70.667 -77 -120 -101s-109.666 -36 -180.999 -36zM445.999 996.001c-70 0 -127 -33.832 -171 -101.499
s-67 -152.834 -69 -255.501h463v46c0 91.333 -19.167 166 -57.5 224s-93.5 87 -165.5 87zM512.999 1240h-107l-206 266h154z" />
    <glyph glyph-name="eacute" unicode="&#xe9;" horiz-adv-x="862" 
d="M459 -20c-110.667 0 -200.168 43.168 -268.501 129.501s-102.5 198.5 -102.5 336.5v180c0 139.333 34.5 253.5 103.5 342.5s153.833 133.5 254.5 133.5c110 0 194.167 -39.833 252.5 -119.5s87.5 -189.167 87.5 -328.5v-119h-580v-89
c0 -106.667 22.167 -193.834 66.5 -261.501s106.5 -101.5 186.5 -101.5c62 0 113.167 10.333 153.5 31s73.5 50 99.5 88l48 -85c-30.667 -43.333 -70.667 -77 -120 -101s-109.666 -36 -180.999 -36zM445.999 996.001c-70 0 -127 -33.832 -171 -101.499
s-67 -152.834 -69 -255.501h463v46c0 91.333 -19.167 166 -57.5 224s-93.5 87 -165.5 87zM548.999 1502h152l-216 -266h-99z" />
    <glyph glyph-name="ecircumflex" unicode="&#xea;" horiz-adv-x="862" 
d="M459 -20c-110.667 0 -200.168 43.168 -268.501 129.501s-102.5 198.5 -102.5 336.5v180c0 139.333 34.5 253.5 103.5 342.5s153.833 133.5 254.5 133.5c110 0 194.167 -39.833 252.5 -119.5s87.5 -189.167 87.5 -328.5v-119h-580v-89
c0 -106.667 22.167 -193.834 66.5 -261.501s106.5 -101.5 186.5 -101.5c62 0 113.167 10.333 153.5 31s73.5 50 99.5 88l48 -85c-30.667 -43.333 -70.667 -77 -120 -101s-109.666 -36 -180.999 -36zM445.999 996.001c-70 0 -127 -33.832 -171 -101.499
s-67 -152.834 -69 -255.501h463v46c0 91.333 -19.167 166 -57.5 224s-93.5 87 -165.5 87zM679.999 1299v-19h-103l-125 166l-123 -166h-102v21l184 222h83z" />
    <glyph glyph-name="edieresis" unicode="&#xeb;" horiz-adv-x="862" 
d="M459 -20c-110.667 0 -200.168 43.168 -268.501 129.501s-102.5 198.5 -102.5 336.5v180c0 139.333 34.5 253.5 103.5 342.5s153.833 133.5 254.5 133.5c110 0 194.167 -39.833 252.5 -119.5s87.5 -189.167 87.5 -328.5v-119h-580v-89
c0 -106.667 22.167 -193.834 66.5 -261.501s106.5 -101.5 186.5 -101.5c62 0 113.167 10.333 153.5 31s73.5 50 99.5 88l48 -85c-30.667 -43.333 -70.667 -77 -120 -101s-109.666 -36 -180.999 -36zM445.999 996.001c-70 0 -127 -33.832 -171 -101.499
s-67 -152.834 -69 -255.501h463v46c0 91.333 -19.167 166 -57.5 224s-93.5 87 -165.5 87zM724.999 1317h-155v160h155v-160zM338.999 1317h-156v160h156v-160z" />
    <glyph glyph-name="igrave" unicode="&#xec;" horiz-adv-x="402" 
d="M258 0h-118v1082h118v-1082zM261 1218h-107l-206 266h154z" />
    <glyph glyph-name="iacute" unicode="&#xed;" horiz-adv-x="402" 
d="M258 0h-118v1082h118v-1082zM296 1480h152l-216 -266h-99z" />
    <glyph glyph-name="icircumflex" unicode="&#xee;" horiz-adv-x="402" 
d="M258 0h-118v1082h118v-1082zM428 1277v-19h-103l-125 166l-123 -166h-102v21l184 222h83z" />
    <glyph glyph-name="idieresis" unicode="&#xef;" horiz-adv-x="402" 
d="M258 0h-118v1082h118v-1082zM473 1296h-155v160h155v-160zM87 1296h-156v160h156v-160z" />
    <glyph glyph-name="eth" unicode="&#xf0;" horiz-adv-x="962" 
d="M661 1298c60 -82.667 105.501 -179.168 136.501 -289.501s46.5 -238.833 46.5 -385.5v-88c0 -166.667 -35.833 -301 -107.5 -403s-163.5 -153 -275.5 -153c-112.667 0 -203.834 45 -273.501 135s-104.5 204 -104.5 342c0 158.667 34.167 283.167 102.5 373.5
s160.166 135.5 275.499 135.5c50.667 0 97.5 -11.667 140.5 -35s79.167 -55.333 108.5 -96l3 1c-11.333 84.667 -29 159.167 -53 223.5s-54.333 121.5 -91 171.5l-232 -169l-47 76l221 161c-23.333 22.667 -47.166 42.834 -71.499 60.501s-50.833 34.5 -79.5 50.5l37 108
c39.333 -20 76 -42.333 110 -67s66.333 -52.667 97 -84l197 145l48 -76zM726.001 624.999c0 6 -0.166992 15.166 -0.5 27.499s-0.5 21.833 -0.5 28.5c-20 50.667 -51.833 92.834 -95.5 126.501s-99.834 50.5 -168.501 50.5c-83.333 0 -147.666 -37.5 -192.999 -112.5
s-68 -171.5 -68 -289.5c0 -100.667 23.5 -187.667 70.5 -261s111.5 -110 193.5 -110c78.667 0 142 41.5 190 124.5s72 191.5 72 325.5v90z" />
    <glyph glyph-name="ntilde" unicode="&#xf1;" 
d="M239 1082l9.00098 -174h3c28 60.667 64 108.167 108 142.5s95.667 51.5 155 51.5c92 0 162 -34 210 -102s72 -177.333 72 -328v-672h-119v670c0 122 -16 206.667 -48 254s-81 71 -147 71c-54.667 0 -101.334 -20.167 -140.001 -60.5s-69 -92.833 -91 -157.5v-777h-118
v1082h106zM724.001 1501c0 -60 -14.668 -109.166 -44.001 -147.499s-66.666 -57.5 -111.999 -57.5c-38 0 -76.833 18.167 -116.5 54.5s-73.5 54.5 -101.5 54.5c-24.667 0 -44.834 -11.333 -60.501 -34s-23.5 -52.334 -23.5 -89.001l-71 18c0 59.333 14.167 108.333 42.5 147
s65.833 58 112.5 58c32.667 0 70.334 -18.333 113.001 -55s77.667 -55 105 -55c24 0 44 11.833 60 35.5s24 54.167 24 91.5z" />
    <glyph glyph-name="ograve" unicode="&#xf2;" 
d="M87 620c0 142.667 33.5 258.667 100.5 348s158.5 134 274.5 134c116.667 0 208.5 -44.5 275.5 -133.5s100.5 -205.167 100.5 -348.5v-159c0 -144.667 -33.333 -261 -100 -349s-158 -132 -274 -132c-117.333 0 -209.5 44 -276.5 132s-100.5 204.333 -100.5 349v159z
M205 461c0 -110 22 -200.499 66 -271.499s108.333 -106.5 193 -106.5c82.667 0 146.167 35.667 190.5 107s66.5 161.666 66.5 270.999v159c0 108 -22.167 197.667 -66.5 269s-108.5 107 -192.5 107s-147.833 -35.667 -191.5 -107s-65.5 -161 -65.5 -269v-159zM529 1239h-107
l-206 266h154z" />
    <glyph glyph-name="oacute" unicode="&#xf3;" 
d="M87 620c0 142.667 33.5 258.667 100.5 348s158.5 134 274.5 134c116.667 0 208.5 -44.5 275.5 -133.5s100.5 -205.167 100.5 -348.5v-159c0 -144.667 -33.333 -261 -100 -349s-158 -132 -274 -132c-117.333 0 -209.5 44 -276.5 132s-100.5 204.333 -100.5 349v159z
M205 461c0 -110 22 -200.499 66 -271.499s108.333 -106.5 193 -106.5c82.667 0 146.167 35.667 190.5 107s66.5 161.666 66.5 270.999v159c0 108 -22.167 197.667 -66.5 269s-108.5 107 -192.5 107s-147.833 -35.667 -191.5 -107s-65.5 -161 -65.5 -269v-159zM565 1501h152
l-216 -266h-99z" />
    <glyph glyph-name="ocircumflex" unicode="&#xf4;" 
d="M87 620c0 142.667 33.5 258.667 100.5 348s158.5 134 274.5 134c116.667 0 208.5 -44.5 275.5 -133.5s100.5 -205.167 100.5 -348.5v-159c0 -144.667 -33.333 -261 -100 -349s-158 -132 -274 -132c-117.333 0 -209.5 44 -276.5 132s-100.5 204.333 -100.5 349v159z
M205 461c0 -110 22 -200.499 66 -271.499s108.333 -106.5 193 -106.5c82.667 0 146.167 35.667 190.5 107s66.5 161.666 66.5 270.999v159c0 108 -22.167 197.667 -66.5 269s-108.5 107 -192.5 107s-147.833 -35.667 -191.5 -107s-65.5 -161 -65.5 -269v-159zM696 1298v-19
h-103l-125 166l-123 -166h-102v21l184 222h83z" />
    <glyph glyph-name="otilde" unicode="&#xf5;" 
d="M87 620c0 142.667 33.5 258.667 100.5 348s158.5 134 274.5 134c116.667 0 208.5 -44.5 275.5 -133.5s100.5 -205.167 100.5 -348.5v-159c0 -144.667 -33.333 -261 -100 -349s-158 -132 -274 -132c-117.333 0 -209.5 44 -276.5 132s-100.5 204.333 -100.5 349v159z
M205 461c0 -110 22 -200.499 66 -271.499s108.333 -106.5 193 -106.5c82.667 0 146.167 35.667 190.5 107s66.5 161.666 66.5 270.999v159c0 108 -22.167 197.667 -66.5 269s-108.5 107 -192.5 107s-147.833 -35.667 -191.5 -107s-65.5 -161 -65.5 -269v-159zM727 1501
c0 -60 -14.668 -109.166 -44.001 -147.499s-66.666 -57.5 -111.999 -57.5c-38 0 -76.833 18.167 -116.5 54.5s-73.5 54.5 -101.5 54.5c-24.667 0 -44.834 -11.333 -60.501 -34s-23.5 -52.334 -23.5 -89.001l-71 18c0 59.333 14.167 108.333 42.5 147s65.833 58 112.5 58
c32.667 0 70.334 -18.333 113.001 -55s77.667 -55 105 -55c24 0 44 11.833 60 35.5s24 54.167 24 91.5z" />
    <glyph glyph-name="odieresis" unicode="&#xf6;" 
d="M87 620c0 142.667 33.5 258.667 100.5 348s158.5 134 274.5 134c116.667 0 208.5 -44.5 275.5 -133.5s100.5 -205.167 100.5 -348.5v-159c0 -144.667 -33.333 -261 -100 -349s-158 -132 -274 -132c-117.333 0 -209.5 44 -276.5 132s-100.5 204.333 -100.5 349v159z
M205 461c0 -110 22 -200.499 66 -271.499s108.333 -106.5 193 -106.5c82.667 0 146.167 35.667 190.5 107s66.5 161.666 66.5 270.999v159c0 108 -22.167 197.667 -66.5 269s-108.5 107 -192.5 107s-147.833 -35.667 -191.5 -107s-65.5 -161 -65.5 -269v-159zM741 1316h-155
v160h155v-160zM355 1316h-156v160h156v-160z" />
    <glyph glyph-name="divide" unicode="&#xf7;" horiz-adv-x="940" 
d="M850 641h-780v120h780v-120zM527 1009h-129v162h129v-162zM527 210h-129v163h129v-163z" />
    <glyph glyph-name="oslash" unicode="&#xf8;" horiz-adv-x="928" 
d="M87 620c0 142.667 33.501 258.664 100.501 347.997s158.5 134 274.5 134c30.667 0 59.667 -3.66699 87 -11s54 -17.666 80 -30.999l59 154h84l-77 -202c46.667 -44 82.167 -99.167 106.5 -165.5s36.5 -141.833 36.5 -226.5v-159c0 -144.667 -33.333 -261 -100 -349
s-158 -132 -274 -132c-28.667 0 -55.334 2.83301 -80.001 8.5s-48.667 13.834 -72 24.501l-58 -153h-84l75 196c-52 42.667 -91.333 98.334 -118 167.001s-40 148 -40 238v159zM205.001 460.997c0 -60.667 6.83301 -115.832 20.5 -165.499s34.5 -91.834 62.5 -126.501
l301 787c-18.667 12.667 -38.5 22.5 -59.5 29.5s-43.5 10.5 -67.5 10.5c-84 0 -147.833 -35.667 -191.5 -107s-65.5 -161 -65.5 -269v-159zM721.001 619.999c0 54 -6.00098 104.17 -18.001 150.503s-30 87.166 -54 122.499l-299 -780
c16.667 -10.667 34.334 -18.334 53.001 -23.001s39 -7 61 -7c82.667 0 146.167 35.667 190.5 107s66.5 161.666 66.5 270.999v159z" />
    <glyph glyph-name="ugrave" unicode="&#xf9;" 
d="M680 161l-3 0.000976562c-26 -58 -60.667 -102.667 -104 -134s-95.333 -47 -156 -47c-92 0 -162.833 37.667 -212.5 113s-74.5 195.666 -74.5 360.999v628h118v-630c0 -134 15.5 -228.5 46.5 -283.5s77.5 -82.5 139.5 -82.5c65.333 0 117.5 18.167 156.5 54.5
s67.5 87.5 85.5 153.5v788h118v-1082h-105zM527 1218h-107l-206 266h154z" />
    <glyph glyph-name="uacute" unicode="&#xfa;" 
d="M680 161l-3 0.000976562c-26 -58 -60.667 -102.667 -104 -134s-95.333 -47 -156 -47c-92 0 -162.833 37.667 -212.5 113s-74.5 195.666 -74.5 360.999v628h118v-630c0 -134 15.5 -228.5 46.5 -283.5s77.5 -82.5 139.5 -82.5c65.333 0 117.5 18.167 156.5 54.5
s67.5 87.5 85.5 153.5v788h118v-1082h-105zM563 1480h152l-216 -266h-99z" />
    <glyph glyph-name="ucircumflex" unicode="&#xfb;" 
d="M680 161l-3 0.000976562c-26 -58 -60.667 -102.667 -104 -134s-95.333 -47 -156 -47c-92 0 -162.833 37.667 -212.5 113s-74.5 195.666 -74.5 360.999v628h118v-630c0 -134 15.5 -228.5 46.5 -283.5s77.5 -82.5 139.5 -82.5c65.333 0 117.5 18.167 156.5 54.5
s67.5 87.5 85.5 153.5v788h118v-1082h-105zM694 1277v-19h-103l-125 166l-123 -166h-102v21l184 222h83z" />
    <glyph glyph-name="udieresis" unicode="&#xfc;" 
d="M680 161l-3 0.000976562c-26 -58 -60.667 -102.667 -104 -134s-95.333 -47 -156 -47c-92 0 -162.833 37.667 -212.5 113s-74.5 195.666 -74.5 360.999v628h118v-630c0 -134 15.5 -228.5 46.5 -283.5s77.5 -82.5 139.5 -82.5c65.333 0 117.5 18.167 156.5 54.5
s67.5 87.5 85.5 153.5v788h118v-1082h-105zM739 1296h-155v160h155v-160zM353 1296h-156v160h156v-160z" />
    <glyph glyph-name="yacute" unicode="&#xfd;" horiz-adv-x="820" 
d="M380 298l26.999 -107.998h3l240 892h132l-363 -1255c-24 -74.667 -53.667 -137.334 -89 -188.001s-87.333 -76 -156 -76c-12 0 -26.167 1.66699 -42.5 5s-29.166 6.33301 -38.499 9l13 103c6.66699 -1.33301 17 -2.83301 31 -4.5s24.333 -2.5 31 -2.5
c38.667 0 67.5 14.667 86.5 44s40.167 80.666 63.5 153.999l43 145l-323 1066h131zM511.999 1480h152l-216 -266h-99z" />
    <glyph glyph-name="thorn" unicode="&#xfe;" horiz-adv-x="939" 
d="M835 446c0 -144.667 -28.3359 -258.5 -85.0029 -341.5s-137 -124.5 -241 -124.5c-57.333 0 -106.666 12 -147.999 36s-75.666 58.667 -102.999 104l-3 -1v-535h-118v1498h1v478h117v-609l3 -1c27.333 49.333 61.5 87 102.5 113s90.167 39 147.5 39
c104.667 0 185.334 -45.333 242.001 -136s85 -214.667 85 -372v-148zM716.997 594c0 120.667 -19.999 217.501 -59.999 290.501s-100.333 109.5 -181 109.5c-56 0 -101.667 -17.167 -137 -51.5s-63.333 -80.5 -84 -138.5v-546c21.333 -56.667 49.666 -100 84.999 -130
s81.333 -45 138 -45c80 0 139.833 32.667 179.5 98s59.5 153.666 59.5 264.999v148z" />
    <glyph glyph-name="ydieresis" unicode="&#xff;" horiz-adv-x="820" 
d="M380 298l26.999 -107.998h3l240 892h132l-363 -1255c-24 -74.667 -53.667 -137.334 -89 -188.001s-87.333 -76 -156 -76c-12 0 -26.167 1.66699 -42.5 5s-29.166 6.33301 -38.499 9l13 103c6.66699 -1.33301 17 -2.83301 31 -4.5s24.333 -2.5 31 -2.5
c38.667 0 67.5 14.667 86.5 44s40.167 80.666 63.5 153.999l43 145l-323 1066h131zM688.999 1296h-155v160h155v-160zM302.999 1296h-156v160h156v-160z" />
    <glyph glyph-name="Amacron" unicode="&#x100;" horiz-adv-x="1059" 
d="M777 409h-495l-118 -409h-122l437 1456h106l431 -1456h-122zM313 514h434l-215 748h-3zM813 1686h-564v100h564v-100z" />
    <glyph glyph-name="amacron" unicode="&#x101;" horiz-adv-x="896" 
d="M662 0c-6.66699 43.333 -11.168 74.832 -13.501 94.499s-3.5 40.5 -3.5 62.5l-3 1c-30 -52 -69 -94.667 -117 -128s-102 -50 -162 -50c-86.667 0 -152.5 27.333 -197.5 82s-67.5 130 -67.5 226c0 102.667 32.833 183.334 98.5 242.001s156.5 88 272.5 88h176v133
c0 78 -17.667 138.333 -53 181s-85.666 64 -150.999 64c-61.333 0 -111 -20.333 -149 -61s-57 -91.667 -57 -153l-118 1c0 86 30.5 160.667 91.5 224s140.5 95 238.5 95c96 0 172.667 -29.833 230 -89.5s86 -147.5 86 -263.5v-531c0 -38.667 1.5 -75.667 4.5 -111
s8.5 -71 16.5 -107h-122zM378.999 87.999c62.667 0 117.5 18.5 164.5 55.5s80.833 85.833 101.5 146.5v235h-179c-78 0 -139.167 -22.833 -183.5 -68.5s-66.5 -103.167 -66.5 -172.5c0 -59.333 14 -106.833 42 -142.5s68.333 -53.5 121 -53.5zM724.999 1364h-564v100h564
v-100z" />
    <glyph glyph-name="Abreve" unicode="&#x102;" horiz-adv-x="1059" 
d="M777 409h-495l-118 -409h-122l437 1456h106l431 -1456h-122zM313 514h434l-215 748h-3zM771 1855c0 -79.333 -21.332 -142.334 -63.999 -189.001s-101.334 -70 -176.001 -70c-75.333 0 -134.333 23.333 -177 70s-64 109.667 -64 189h100c0 -52 11 -93.5 33 -124.5
s58 -46.5 108 -46.5c48 0 83.5 15.833 106.5 47.5s34.5 72.834 34.5 123.501h99z" />
    <glyph glyph-name="abreve" unicode="&#x103;" horiz-adv-x="896" 
d="M662 0c-6.66699 43.333 -11.168 74.832 -13.501 94.499s-3.5 40.5 -3.5 62.5l-3 1c-30 -52 -69 -94.667 -117 -128s-102 -50 -162 -50c-86.667 0 -152.5 27.333 -197.5 82s-67.5 130 -67.5 226c0 102.667 32.833 183.334 98.5 242.001s156.5 88 272.5 88h176v133
c0 78 -17.667 138.333 -53 181s-85.666 64 -150.999 64c-61.333 0 -111 -20.333 -149 -61s-57 -91.667 -57 -153l-118 1c0 86 30.5 160.667 91.5 224s140.5 95 238.5 95c96 0 172.667 -29.833 230 -89.5s86 -147.5 86 -263.5v-531c0 -38.667 1.5 -75.667 4.5 -111
s8.5 -71 16.5 -107h-122zM378.999 87.999c62.667 0 117.5 18.5 164.5 55.5s80.833 85.833 101.5 146.5v235h-179c-78 0 -139.167 -22.833 -183.5 -68.5s-66.5 -103.167 -66.5 -172.5c0 -59.333 14 -106.833 42 -142.5s68.333 -53.5 121 -53.5zM682.999 1533
c0 -79.333 -21.332 -142.334 -63.999 -189.001s-101.334 -70 -176.001 -70c-75.333 0 -134.333 23.333 -177 70s-64 109.667 -64 189h100c0 -52 11 -93.5 33 -124.5s58 -46.5 108 -46.5c48 0 83.5 15.833 106.5 47.5s34.5 72.834 34.5 123.501h99z" />
    <glyph glyph-name="Aogonek" unicode="&#x104;" horiz-adv-x="1059" 
d="M585 1456l431.001 -1456h-22c-44.667 -44 -78.5 -83.333 -101.5 -118s-34.5 -73 -34.5 -115c0 -26 4.66699 -46.5 14 -61.5s26 -22.5 50 -22.5c16 0 30.333 3.16699 43 9.5s25 14.166 37 23.499l11 -86c-15.333 -12.667 -32.333 -23.167 -51 -31.5
s-41.334 -12.5 -68.001 -12.5c-42.667 0 -76.667 14.5 -102 43.5s-38 71.5 -38 127.5c0 44 11.667 86.667 35 128s58 80 104 116l-116 408h-495l-118 -409h-122l437 1456h106zM313.001 514.001h434l-215 748h-3z" />
    <glyph glyph-name="aogonek" unicode="&#x105;" horiz-adv-x="896" 
d="M662 0c-6.66699 43.333 -11.167 74.833 -13.5 94.5s-3.5 40.5 -3.5 62.5l-3 1c-30 -52 -69 -94.667 -117 -128s-102 -50 -162 -50c-86.667 0 -152.5 27.333 -197.5 82s-67.5 130 -67.5 226c0 102.667 32.833 183.334 98.5 242.001s156.5 88 272.5 88h176v133
c0 78 -17.667 138.333 -53 181s-85.666 64 -150.999 64c-61.333 0 -111 -20.333 -149 -61s-57 -91.667 -57 -153l-118 1c0 86 30.5 160.667 91.5 224s140.5 95 238.5 95c96 0 172.667 -29.833 230 -89.5s86 -147.5 86 -263.5v-531c0 -38.667 1.5 -75.667 4.5 -111
s8.5 -71 16.5 -107h-12c-44.667 -44 -78.5 -83.333 -101.5 -118s-34.5 -73 -34.5 -115c0 -26 4.66699 -46.5 14 -61.5s26 -22.5 50 -22.5c16 0 30.333 3.16699 43 9.5s25 14.166 37 23.499l11 -86c-15.333 -12.667 -32.333 -23.167 -51 -31.5s-41.334 -12.5 -68.001 -12.5
c-42.667 0 -76.667 14.5 -102 43.5s-38 71.5 -38 127.5c0 44 11.333 86.5 34 127.5s56 78.5 100 112.5l-1 3h-3zM379 88c62.667 0 117.5 18.5 164.5 55.5s80.833 85.833 101.5 146.5v235h-179c-78 0 -139.167 -22.833 -183.5 -68.5s-66.5 -103.167 -66.5 -172.5
c0 -59.333 14 -106.833 42 -142.5s68.333 -53.5 121 -53.5z" />
    <glyph glyph-name="Cacute" unicode="&#x106;" horiz-adv-x="1026" 
d="M939 421c-3.33301 -148 -39.5 -258.668 -108.5 -332.001s-166.167 -110 -291.5 -110c-130 0 -231.167 46.333 -303.5 139s-108.5 228.667 -108.5 408v403c0 178.667 36.167 314.667 108.5 408s173.5 140 303.5 140c126.667 0 224.167 -36.167 292.5 -108.5
s104.166 -184.166 107.499 -335.499h-118c-4 118 -28.667 203.833 -74 257.5s-114.666 80.5 -207.999 80.5c-95.333 0 -168 -36.667 -218 -110s-75 -183 -75 -329v-406c0 -148 25 -258.833 75 -332.5s122.667 -110.5 218 -110.5c94 0 163.5 25.667 208.5 77
s69.5 138.333 73.5 261h118zM647 1844h152l-216 -266h-99z" />
    <glyph glyph-name="cacute" unicode="&#x107;" horiz-adv-x="865" 
d="M458 83c58.667 0 110.169 22.168 154.502 66.501s65.833 107.166 64.5 188.499h112c1.33301 -105.333 -31.334 -191.333 -98.001 -258s-144.334 -100 -233.001 -100c-121.333 0 -213 43.667 -275 131s-93 202.333 -93 345v168c0 142 31.167 257.167 93.5 345.5
s153.833 132.5 274.5 132.5c98 0 178 -34.833 240 -104.5s92.333 -164.5 91 -284.5h-112c1.33301 88.667 -18.667 158 -60 208s-94.333 75 -159 75c-89.333 0 -153.333 -34.5 -192 -103.5s-58 -158.5 -58 -268.5v-168c0 -111.333 19.333 -201.333 58 -270
s102.667 -103 192 -103zM532.002 1501h152l-216 -266h-99z" />
    <glyph glyph-name="Ccircumflex" unicode="&#x108;" horiz-adv-x="1026" 
d="M939 421c-3.33301 -148 -39.5 -258.668 -108.5 -332.001s-166.167 -110 -291.5 -110c-130 0 -231.167 46.333 -303.5 139s-108.5 228.667 -108.5 408v403c0 178.667 36.167 314.667 108.5 408s173.5 140 303.5 140c126.667 0 224.167 -36.167 292.5 -108.5
s104.166 -184.166 107.499 -335.499h-118c-4 118 -28.667 203.833 -74 257.5s-114.666 80.5 -207.999 80.5c-95.333 0 -168 -36.667 -218 -110s-75 -183 -75 -329v-406c0 -148 25 -258.833 75 -332.5s122.667 -110.5 218 -110.5c94 0 163.5 25.667 208.5 77
s69.5 138.333 73.5 261h118zM778 1641v-19h-103l-125 166l-123 -166h-102v21l184 222h83z" />
    <glyph glyph-name="ccircumflex" unicode="&#x109;" horiz-adv-x="865" 
d="M458 83c58.667 0 110.169 22.168 154.502 66.501s65.833 107.166 64.5 188.499h112c1.33301 -105.333 -31.334 -191.333 -98.001 -258s-144.334 -100 -233.001 -100c-121.333 0 -213 43.667 -275 131s-93 202.333 -93 345v168c0 142 31.167 257.167 93.5 345.5
s153.833 132.5 274.5 132.5c98 0 178 -34.833 240 -104.5s92.333 -164.5 91 -284.5h-112c1.33301 88.667 -18.667 158 -60 208s-94.333 75 -159 75c-89.333 0 -153.333 -34.5 -192 -103.5s-58 -158.5 -58 -268.5v-168c0 -111.333 19.333 -201.333 58 -270
s102.667 -103 192 -103zM663.002 1298v-19h-103l-125 166l-123 -166h-102v21l184 222h83z" />
    <glyph glyph-name="uni010A" unicode="&#x10a;" horiz-adv-x="1026" 
d="M939 421c-3.33301 -148 -39.5 -258.668 -108.5 -332.001s-166.167 -110 -291.5 -110c-130 0 -231.167 46.333 -303.5 139s-108.5 228.667 -108.5 408v403c0 178.667 36.167 314.667 108.5 408s173.5 140 303.5 140c126.667 0 224.167 -36.167 292.5 -108.5
s104.166 -184.166 107.499 -335.499h-118c-4 118 -28.667 203.833 -74 257.5s-114.666 80.5 -207.999 80.5c-95.333 0 -168 -36.667 -218 -110s-75 -183 -75 -329v-406c0 -148 25 -258.833 75 -332.5s122.667 -110.5 218 -110.5c94 0 163.5 25.667 208.5 77
s69.5 138.333 73.5 261h118zM621 1656h-139v170h139v-170z" />
    <glyph glyph-name="uni010B" unicode="&#x10b;" horiz-adv-x="865" 
d="M458 83c58.667 0 110.169 22.168 154.502 66.501s65.833 107.166 64.5 188.499h112c1.33301 -105.333 -31.334 -191.333 -98.001 -258s-144.334 -100 -233.001 -100c-121.333 0 -213 43.667 -275 131s-93 202.333 -93 345v168c0 142 31.167 257.167 93.5 345.5
s153.833 132.5 274.5 132.5c98 0 178 -34.833 240 -104.5s92.333 -164.5 91 -284.5h-112c1.33301 88.667 -18.667 158 -60 208s-94.333 75 -159 75c-89.333 0 -153.333 -34.5 -192 -103.5s-58 -158.5 -58 -268.5v-168c0 -111.333 19.333 -201.333 58 -270
s102.667 -103 192 -103zM506.002 1313h-139v170h139v-170z" />
    <glyph glyph-name="Ccaron" unicode="&#x10c;" horiz-adv-x="1026" 
d="M939 421c-3.33301 -148 -39.5 -258.668 -108.5 -332.001s-166.167 -110 -291.5 -110c-130 0 -231.167 46.333 -303.5 139s-108.5 228.667 -108.5 408v403c0 178.667 36.167 314.667 108.5 408s173.5 140 303.5 140c126.667 0 224.167 -36.167 292.5 -108.5
s104.166 -184.166 107.499 -335.499h-118c-4 118 -28.667 203.833 -74 257.5s-114.666 80.5 -207.999 80.5c-95.333 0 -168 -36.667 -218 -110s-75 -183 -75 -329v-406c0 -148 25 -258.833 75 -332.5s122.667 -110.5 218 -110.5c94 0 163.5 25.667 208.5 77
s69.5 138.333 73.5 261h118zM550 1699l124 168h107v-17l-190 -226h-83l-188 226v17h105z" />
    <glyph glyph-name="ccaron" unicode="&#x10d;" horiz-adv-x="865" 
d="M458 83c58.667 0 110.169 22.168 154.502 66.501s65.833 107.166 64.5 188.499h112c1.33301 -105.333 -31.334 -191.333 -98.001 -258s-144.334 -100 -233.001 -100c-121.333 0 -213 43.667 -275 131s-93 202.333 -93 345v168c0 142 31.167 257.167 93.5 345.5
s153.833 132.5 274.5 132.5c98 0 178 -34.833 240 -104.5s92.333 -164.5 91 -284.5h-112c1.33301 88.667 -18.667 158 -60 208s-94.333 75 -159 75c-89.333 0 -153.333 -34.5 -192 -103.5s-58 -158.5 -58 -268.5v-168c0 -111.333 19.333 -201.333 58 -270
s102.667 -103 192 -103zM435.002 1356l124 168h107v-17l-190 -226h-83l-188 226v17h105z" />
    <glyph glyph-name="Dcaron" unicode="&#x10e;" horiz-adv-x="1101" 
d="M159 0l-0.000976562 1456h314c162.667 0 286.334 -48.333 371.001 -145s127 -246.667 127 -450v-268c0 -204.667 -42.667 -354.667 -128 -450s-212.333 -143 -381 -143h-303zM276.999 1350v-1246h185c135.333 0 234.5 39.5 297.5 118.5s94.5 202.5 94.5 370.5v270
c0 168 -31 291.167 -93 369.5s-158 117.5 -288 117.5h-196zM489.999 1678l124 168h107v-17l-190 -226h-83l-188 226v17h105z" />
    <glyph glyph-name="dcaron" unicode="&#x10f;" horiz-adv-x="1077" 
d="M97 531c0 176.667 28.1689 316 84.502 418s137.166 153 242.499 153c55.333 0 103.166 -13 143.499 -39s74.166 -63 101.499 -111l3 1v607h119v-1560h-104l-10 132h-3c-28 -49.333 -62.667 -87 -104 -113s-90.666 -39 -147.999 -39c-104.667 0 -185 47.167 -241 141.5
s-84 223.833 -84 388.5v21zM214.002 510c0 -132.667 18.832 -236.5 56.499 -311.5s96.834 -112.5 177.501 -112.5c55.333 0 101 15.5 137 46.5s65 74.833 87 131.5v539c-21.333 58 -49.833 104.333 -85.5 139s-81.167 52 -136.5 52c-80.667 0 -140.167 -42 -178.5 -126
s-57.5 -196.333 -57.5 -337v-21zM1029 1456c0 -55.333 -8.66699 -108.667 -26 -160s-42.333 -95 -75 -131l-68 53c19.333 38.667 33.5 76 42.5 112s13.5 77.333 13.5 124v105h113v-103z" />
    <glyph glyph-name="Dcroat" unicode="&#x110;" horiz-adv-x="1131" 
d="M189 0l-0.000976562 688h-124v104h124v664h314c162.667 0 286.334 -48.333 371.001 -145s127 -246.667 127 -450v-268c0 -204.667 -42.667 -354.667 -128 -450s-212.333 -143 -381 -143h-303zM551.999 688h-245v-584h185c135.333 0 234.5 39.5 297.5 118.5
s94.5 202.5 94.5 370.5v270c0 168 -31 291.167 -93 369.5s-158 117.5 -288 117.5h-196v-558h245v-104z" />
    <glyph glyph-name="dcroat" unicode="&#x111;" horiz-adv-x="957" 
d="M933 1256h-141.998v-1256h-104l-10 132h-3c-28 -49.333 -62.667 -87 -104 -113s-90.666 -39 -147.999 -39c-104.667 0 -185 47.167 -241 141.5s-84 223.833 -84 388.5v21c0 176.667 28.167 316 84.5 418s137.166 153 242.499 153c55.333 0 103.166 -13 143.499 -39
s74.166 -63 101.499 -111l3 1v303h-226v104h226v200h119v-200h142v-104zM214.002 510c0 -132.667 18.832 -236.5 56.499 -311.5s96.834 -112.5 177.501 -112.5c55.333 0 101 15.5 137 46.5s65 74.833 87 131.5v539c-21.333 58 -49.833 104.333 -85.5 139
s-81.167 52 -136.5 52c-80.667 0 -140.167 -42 -178.5 -126s-57.5 -196.333 -57.5 -337v-21z" />
    <glyph glyph-name="Emacron" unicode="&#x112;" horiz-adv-x="955" 
d="M814 703h-537v-599h618v-104h-736v1456h730v-106h-612v-543h537v-104zM785 1686h-564v100h564v-100z" />
    <glyph glyph-name="emacron" unicode="&#x113;" horiz-adv-x="862" 
d="M459 -20c-110.667 0 -200.168 43.168 -268.501 129.501s-102.5 198.5 -102.5 336.5v180c0 139.333 34.5 253.5 103.5 342.5s153.833 133.5 254.5 133.5c110 0 194.167 -39.833 252.5 -119.5s87.5 -189.167 87.5 -328.5v-119h-580v-89
c0 -106.667 22.167 -193.834 66.5 -261.501s106.5 -101.5 186.5 -101.5c62 0 113.167 10.333 153.5 31s73.5 50 99.5 88l48 -85c-30.667 -43.333 -70.667 -77 -120 -101s-109.666 -36 -180.999 -36zM445.999 996.001c-70 0 -127 -33.832 -171 -101.499
s-67 -152.834 -69 -255.501h463v46c0 91.333 -19.167 166 -57.5 224s-93.5 87 -165.5 87zM734.999 1365h-564v100h564v-100z" />
    <glyph glyph-name="Ebreve" unicode="&#x114;" horiz-adv-x="955" 
d="M814 703h-537v-599h618v-104h-736v1456h730v-106h-612v-543h537v-104zM743 1855c0 -79.333 -21.332 -142.334 -63.999 -189.001s-101.334 -70 -176.001 -70c-75.333 0 -134.333 23.333 -177 70s-64 109.667 -64 189h100c0 -52 11 -93.5 33 -124.5s58 -46.5 108 -46.5
c48 0 83.5 15.833 106.5 47.5s34.5 72.834 34.5 123.501h99z" />
    <glyph glyph-name="ebreve" unicode="&#x115;" horiz-adv-x="862" 
d="M459 -20c-110.667 0 -200.168 43.168 -268.501 129.501s-102.5 198.5 -102.5 336.5v180c0 139.333 34.5 253.5 103.5 342.5s153.833 133.5 254.5 133.5c110 0 194.167 -39.833 252.5 -119.5s87.5 -189.167 87.5 -328.5v-119h-580v-89
c0 -106.667 22.167 -193.834 66.5 -261.501s106.5 -101.5 186.5 -101.5c62 0 113.167 10.333 153.5 31s73.5 50 99.5 88l48 -85c-30.667 -43.333 -70.667 -77 -120 -101s-109.666 -36 -180.999 -36zM445.999 996.001c-70 0 -127 -33.832 -171 -101.499
s-67 -152.834 -69 -255.501h463v46c0 91.333 -19.167 166 -57.5 224s-93.5 87 -165.5 87zM692.999 1534c0 -79.333 -21.332 -142.334 -63.999 -189.001s-101.334 -70 -176.001 -70c-75.333 0 -134.333 23.333 -177 70s-64 109.667 -64 189h100c0 -52 11 -93.5 33 -124.5
s58 -46.5 108 -46.5c48 0 83.5 15.833 106.5 47.5s34.5 72.834 34.5 123.501h99z" />
    <glyph glyph-name="Edotaccent" unicode="&#x116;" horiz-adv-x="955" 
d="M814 703h-537v-599h618v-104h-736v1456h730v-106h-612v-543h537v-104zM573 1635h-139v170h139v-170z" />
    <glyph glyph-name="edotaccent" unicode="&#x117;" horiz-adv-x="862" 
d="M459 -20c-110.667 0 -200.168 43.168 -268.501 129.501s-102.5 198.5 -102.5 336.5v180c0 139.333 34.5 253.5 103.5 342.5s153.833 133.5 254.5 133.5c110 0 194.167 -39.833 252.5 -119.5s87.5 -189.167 87.5 -328.5v-119h-580v-89
c0 -106.667 22.167 -193.834 66.5 -261.501s106.5 -101.5 186.5 -101.5c62 0 113.167 10.333 153.5 31s73.5 50 99.5 88l48 -85c-30.667 -43.333 -70.667 -77 -120 -101s-109.666 -36 -180.999 -36zM445.999 996.001c-70 0 -127 -33.832 -171 -101.499
s-67 -152.834 -69 -255.501h463v46c0 91.333 -19.167 166 -57.5 224s-93.5 87 -165.5 87zM522.999 1314h-139v170h139v-170z" />
    <glyph glyph-name="Eogonek" unicode="&#x118;" horiz-adv-x="955" 
d="M814 703l-536.999 0.000976562v-599h618v-104h-45c-44.667 -44 -78.5 -83.333 -101.5 -118s-34.5 -73 -34.5 -115c0 -26 4.66699 -46.5 14 -61.5s26 -22.5 50 -22.5c16 0 30.333 3.16699 43 9.5s25 14.166 37 23.499l11 -86c-15.333 -12.667 -32.333 -23.167 -51 -31.5
s-41.334 -12.5 -68.001 -12.5c-42.667 0 -76.667 14.5 -102 43.5s-38 71.5 -38 127.5c0 44 11.333 86.5 34 127.5s56 78.5 100 112.5l-1 3h-584v1456h730v-106h-612v-543h537v-104z" />
    <glyph glyph-name="eogonek" unicode="&#x119;" horiz-adv-x="862" 
d="M459 -20c-110.667 0 -200.165 43.168 -268.498 129.501s-102.5 198.5 -102.5 336.5v180c0 139.333 34.5 253.5 103.5 342.5s153.833 133.5 254.5 133.5c110 0 194.167 -39.833 252.5 -119.5s87.5 -189.167 87.5 -328.5v-119h-580v-89
c0 -106.667 22.167 -193.834 66.5 -261.501s106.5 -101.5 186.5 -101.5c62 0 113.167 10.333 153.5 31s73.5 50 99.5 88l48 -85c-16 -23.333 -34.333 -43.5 -55 -60.5s-44.334 -31.167 -71.001 -42.5c-36.667 -37.333 -64.667 -72.166 -84 -104.499s-29 -67.5 -29 -105.5
c0 -26 4.66699 -46.5 14 -61.5s26 -22.5 50 -22.5c16 0 30.333 3.16699 43 9.5s25 14.166 37 23.499l11 -86c-15.333 -12.667 -32.333 -23.167 -51 -31.5s-41.334 -12.5 -68.001 -12.5c-42.667 0 -76.667 14.5 -102 43.5s-38 71.5 -38 127.5c0 32.667 6.5 64.5 19.5 95.5
s32.833 61.5 59.5 91.5c-6 0 -11.5 -0.166992 -16.5 -0.5s-11.833 -0.5 -20.5 -0.5zM446.002 996.001c-70 0 -127 -33.832 -171 -101.499s-67 -152.834 -69 -255.501h463v46c0 91.333 -19.167 166 -57.5 224s-93.5 87 -165.5 87z" />
    <glyph glyph-name="Ecaron" unicode="&#x11a;" horiz-adv-x="955" 
d="M814 703h-537v-599h618v-104h-736v1456h730v-106h-612v-543h537v-104zM502 1678l124 168h107v-17l-190 -226h-83l-188 226v17h105z" />
    <glyph glyph-name="ecaron" unicode="&#x11b;" horiz-adv-x="862" 
d="M459 -20c-110.667 0 -200.168 43.168 -268.501 129.501s-102.5 198.5 -102.5 336.5v180c0 139.333 34.5 253.5 103.5 342.5s153.833 133.5 254.5 133.5c110 0 194.167 -39.833 252.5 -119.5s87.5 -189.167 87.5 -328.5v-119h-580v-89
c0 -106.667 22.167 -193.834 66.5 -261.501s106.5 -101.5 186.5 -101.5c62 0 113.167 10.333 153.5 31s73.5 50 99.5 88l48 -85c-30.667 -43.333 -70.667 -77 -120 -101s-109.666 -36 -180.999 -36zM445.999 996.001c-70 0 -127 -33.832 -171 -101.499
s-67 -152.834 -69 -255.501h463v46c0 91.333 -19.167 166 -57.5 224s-93.5 87 -165.5 87zM451.999 1357l124 168h107v-17l-190 -226h-83l-188 226v17h105z" />
    <glyph glyph-name="Gcircumflex" unicode="&#x11c;" horiz-adv-x="1111" 
d="M967 198c-26.667 -56.667 -72.166 -107.333 -136.499 -152s-149.5 -67 -255.5 -67c-140.667 0 -251.667 45.333 -333 136s-122 224.667 -122 402v433c0 174 38.333 305.333 115 394s183 133 319 133c131.333 0 231 -35.167 299 -105.5s105.667 -172.833 113 -307.5h-118
c-3.33301 100 -28.5 176.167 -75.5 228.5s-119.833 78.5 -218.5 78.5c-101.333 0 -179.333 -34.833 -234 -104.5s-82 -174.5 -82 -314.5v-435c0 -144.667 29.667 -253.167 89 -325.5s142 -108.5 248 -108.5c77.333 0 137.666 14.333 180.999 43s74.333 64.667 93 108v378
h-276v105h394v-519zM778.001 1641v-19h-103l-125 166l-123 -166h-102v21l184 222h83z" />
    <glyph glyph-name="gcircumflex" unicode="&#x11d;" horiz-adv-x="926" 
d="M97 594c0 156.667 28.668 280.501 86.001 371.501s138.666 136.5 243.999 136.5c58 0 107.667 -14.167 149 -42.5s76 -68.833 104 -121.5h3l11 144h100v-1083c0 -140.667 -30.5 -248.334 -91.5 -323.001s-148.833 -112 -263.5 -112c-43.333 0 -88 6.33301 -134 19
s-88.333 31 -127 55l31 99c35.333 -22 71.833 -39 109.5 -51s77.167 -18 118.5 -18c81.333 0 141.5 28 180.5 84s58.5 138.333 58.5 247v122l-3 1c-28 -46 -62.333 -81.167 -103 -105.5s-89 -36.5 -145 -36.5c-104.667 0 -185.5 41.5 -242.5 124.5
s-85.5 196.833 -85.5 341.5v148zM216.001 446.001c0 -111.333 19.168 -199.167 57.501 -263.5s97.833 -96.5 178.5 -96.5c55.333 0 101 15.667 137 47s65 76 87 134v533c-21.333 58.667 -50 105.667 -86 141s-81.667 53 -137 53c-80.667 0 -140.334 -36.333 -179.001 -109
s-58 -169.667 -58 -291v-148zM683.002 1298v-19h-103l-125 166l-123 -166h-102v21l184 222h83z" />
    <glyph glyph-name="Gbreve" unicode="&#x11e;" horiz-adv-x="1111" 
d="M967 198c-26.667 -56.667 -72.166 -107.333 -136.499 -152s-149.5 -67 -255.5 -67c-140.667 0 -251.667 45.333 -333 136s-122 224.667 -122 402v433c0 174 38.333 305.333 115 394s183 133 319 133c131.333 0 231 -35.167 299 -105.5s105.667 -172.833 113 -307.5h-118
c-3.33301 100 -28.5 176.167 -75.5 228.5s-119.833 78.5 -218.5 78.5c-101.333 0 -179.333 -34.833 -234 -104.5s-82 -174.5 -82 -314.5v-435c0 -144.667 29.667 -253.167 89 -325.5s142 -108.5 248 -108.5c77.333 0 137.666 14.333 180.999 43s74.333 64.667 93 108v378
h-276v105h394v-519zM791.001 1876c0 -79.333 -21.332 -142.334 -63.999 -189.001s-101.334 -70 -176.001 -70c-75.333 0 -134.333 23.333 -177 70s-64 109.667 -64 189h100c0 -52 11 -93.5 33 -124.5s58 -46.5 108 -46.5c48 0 83.5 15.833 106.5 47.5
s34.5 72.834 34.5 123.501h99z" />
    <glyph glyph-name="gbreve" unicode="&#x11f;" horiz-adv-x="926" 
d="M97 594c0 156.667 28.668 280.501 86.001 371.501s138.666 136.5 243.999 136.5c58 0 107.667 -14.167 149 -42.5s76 -68.833 104 -121.5h3l11 144h100v-1083c0 -140.667 -30.5 -248.334 -91.5 -323.001s-148.833 -112 -263.5 -112c-43.333 0 -88 6.33301 -134 19
s-88.333 31 -127 55l31 99c35.333 -22 71.833 -39 109.5 -51s77.167 -18 118.5 -18c81.333 0 141.5 28 180.5 84s58.5 138.333 58.5 247v122l-3 1c-28 -46 -62.333 -81.167 -103 -105.5s-89 -36.5 -145 -36.5c-104.667 0 -185.5 41.5 -242.5 124.5
s-85.5 196.833 -85.5 341.5v148zM216.001 446.001c0 -111.333 19.168 -199.167 57.501 -263.5s97.833 -96.5 178.5 -96.5c55.333 0 101 15.667 137 47s65 76 87 134v533c-21.333 58.667 -50 105.667 -86 141s-81.667 53 -137 53c-80.667 0 -140.334 -36.333 -179.001 -109
s-58 -169.667 -58 -291v-148zM696.002 1533c0 -79.333 -21.332 -142.334 -63.999 -189.001s-101.334 -70 -176.001 -70c-75.333 0 -134.333 23.333 -177 70s-64 109.667 -64 189h100c0 -52 11 -93.5 33 -124.5s58 -46.5 108 -46.5c48 0 83.5 15.833 106.5 47.5
s34.5 72.834 34.5 123.501h99z" />
    <glyph glyph-name="uni0120" unicode="&#x120;" horiz-adv-x="1111" 
d="M967 198c-26.667 -56.667 -72.166 -107.333 -136.499 -152s-149.5 -67 -255.5 -67c-140.667 0 -251.667 45.333 -333 136s-122 224.667 -122 402v433c0 174 38.333 305.333 115 394s183 133 319 133c131.333 0 231 -35.167 299 -105.5s105.667 -172.833 113 -307.5h-118
c-3.33301 100 -28.5 176.167 -75.5 228.5s-119.833 78.5 -218.5 78.5c-101.333 0 -179.333 -34.833 -234 -104.5s-82 -174.5 -82 -314.5v-435c0 -144.667 29.667 -253.167 89 -325.5s142 -108.5 248 -108.5c77.333 0 137.666 14.333 180.999 43s74.333 64.667 93 108v378
h-276v105h394v-519zM621.001 1656h-139v170h139v-170z" />
    <glyph glyph-name="uni0121" unicode="&#x121;" horiz-adv-x="926" 
d="M97 594c0 156.667 28.668 280.501 86.001 371.501s138.666 136.5 243.999 136.5c58 0 107.667 -14.167 149 -42.5s76 -68.833 104 -121.5h3l11 144h100v-1083c0 -140.667 -30.5 -248.334 -91.5 -323.001s-148.833 -112 -263.5 -112c-43.333 0 -88 6.33301 -134 19
s-88.333 31 -127 55l31 99c35.333 -22 71.833 -39 109.5 -51s77.167 -18 118.5 -18c81.333 0 141.5 28 180.5 84s58.5 138.333 58.5 247v122l-3 1c-28 -46 -62.333 -81.167 -103 -105.5s-89 -36.5 -145 -36.5c-104.667 0 -185.5 41.5 -242.5 124.5
s-85.5 196.833 -85.5 341.5v148zM216.001 446.001c0 -111.333 19.168 -199.167 57.501 -263.5s97.833 -96.5 178.5 -96.5c55.333 0 101 15.667 137 47s65 76 87 134v533c-21.333 58.667 -50 105.667 -86 141s-81.667 53 -137 53c-80.667 0 -140.334 -36.333 -179.001 -109
s-58 -169.667 -58 -291v-148zM526.002 1313h-139v170h139v-170z" />
    <glyph glyph-name="Gcommaaccent" unicode="&#x122;" horiz-adv-x="1111" 
d="M967 198c-26.667 -56.667 -72.166 -107.333 -136.499 -152s-149.5 -67 -255.5 -67c-140.667 0 -251.667 45.333 -333 136s-122 224.667 -122 402v433c0 174 38.333 305.333 115 394s183 133 319 133c131.333 0 231 -35.167 299 -105.5s105.667 -172.833 113 -307.5h-118
c-3.33301 100 -28.5 176.167 -75.5 228.5s-119.833 78.5 -218.5 78.5c-101.333 0 -179.333 -34.833 -234 -104.5s-82 -174.5 -82 -314.5v-435c0 -144.667 29.667 -253.167 89 -325.5s142 -108.5 248 -108.5c77.333 0 137.666 14.333 180.999 43s74.333 64.667 93 108v378
h-276v105h394v-519zM611.001 -224.999c0 -55.333 -8.66699 -108.667 -26 -160s-42.333 -95 -75 -131l-68 53c19.333 38.667 33.5 76 42.5 112s13.5 77.333 13.5 124v105h113v-103z" />
    <glyph glyph-name="gcommaaccent" unicode="&#x123;" horiz-adv-x="926" 
d="M97 594c0 156.667 28.668 280.501 86.001 371.501s138.666 136.5 243.999 136.5c58 0 107.667 -14.167 149 -42.5s76 -68.833 104 -121.5h3l11 144h100v-1083c0 -140.667 -30.5 -248.334 -91.5 -323.001s-148.833 -112 -263.5 -112c-43.333 0 -88 6.33301 -134 19
s-88.333 31 -127 55l31 99c35.333 -22 71.833 -39 109.5 -51s77.167 -18 118.5 -18c81.333 0 141.5 28 180.5 84s58.5 138.333 58.5 247v122l-3 1c-28 -46 -62.333 -81.167 -103 -105.5s-89 -36.5 -145 -36.5c-104.667 0 -185.5 41.5 -242.5 124.5
s-85.5 196.833 -85.5 341.5v148zM216.001 446.001c0 -111.333 19.168 -199.167 57.501 -263.5s97.833 -96.5 178.5 -96.5c55.333 0 101 15.667 137 47s65 76 87 134v533c-21.333 58.667 -50 105.667 -86 141s-81.667 53 -137 53c-80.667 0 -140.334 -36.333 -179.001 -109
s-58 -169.667 -58 -291v-148zM393.002 1401l78 218h64l-25 -220v-136h-117v138z" />
    <glyph glyph-name="Hcircumflex" unicode="&#x124;" horiz-adv-x="1164" 
d="M1004 0h-118v669h-609v-669h-118v1456h118v-683h609v683h118v-1456zM804 1620v-19h-103l-125 166l-123 -166h-102v21l184 222h83z" />
    <glyph glyph-name="hcircumflex" unicode="&#x125;" 
d="M251 921l3 -1c28 56.667 64.333 101.167 109 133.5s95.667 48.5 153 48.5c91.333 0 161 -34.5 209 -103.5s72 -179.167 72 -330.5v-668h-118v670c0 118.667 -16.167 202.5 -48.5 251.5s-81.5 73.5 -147.5 73.5c-53.333 0 -99.5 -19.333 -138.5 -58
s-70.167 -89 -93.5 -151v-786h-118v1560h118v-639zM630 1619v-19h-103l-125 166l-123 -166h-102v21l184 222h83z" />
    <glyph glyph-name="Hbar" unicode="&#x126;" horiz-adv-x="1141" 
d="M992 1125h116v-99h-116v-1026h-118v669h-609v-669h-118v1026h-112v99h112v331h118v-331h609v331h118v-331zM265 773h609v253h-609v-253z" />
    <glyph glyph-name="hbar" unicode="&#x127;" horiz-adv-x="957" 
d="M523 1256h-242v-335l3 -1c28 56.667 64.333 101.167 109 133.5s95.667 48.5 153 48.5c91.333 0 161 -34.5 209 -103.5s72 -179.167 72 -330.5v-668h-118v670c0 118.667 -16.167 202.5 -48.5 251.5s-81.5 73.5 -147.5 73.5c-53.333 0 -99.5 -19.333 -138.5 -58
s-70.167 -89 -93.5 -151v-786h-118v1256h-127v104h127v200h118v-200h242v-104z" />
    <glyph glyph-name="Itilde" unicode="&#x128;" horiz-adv-x="468" 
d="M293 0h-118v1456h118v-1456zM493 1823c0 -60 -14.668 -109.166 -44.001 -147.499s-66.666 -57.5 -111.999 -57.5c-38 0 -76.833 18.167 -116.5 54.5s-73.5 54.5 -101.5 54.5c-24.667 0 -44.834 -11.333 -60.501 -34s-23.5 -52.334 -23.5 -89.001l-71 18
c0 59.333 14.167 108.333 42.5 147s65.833 58 112.5 58c32.667 0 70.334 -18.333 113.001 -55s77.667 -55 105 -55c24 0 44 11.833 60 35.5s24 54.167 24 91.5z" />
    <glyph glyph-name="itilde" unicode="&#x129;" horiz-adv-x="402" 
d="M258 0h-118v1082h118v-1082zM459 1481c0 -60 -14.668 -109.166 -44.001 -147.499s-66.666 -57.5 -111.999 -57.5c-38 0 -76.833 18.167 -116.5 54.5s-73.5 54.5 -101.5 54.5c-24.667 0 -44.834 -11.333 -60.501 -34s-23.5 -52.334 -23.5 -89.001l-71 18
c0 59.333 14.167 108.333 42.5 147s65.833 58 112.5 58c32.667 0 70.334 -18.333 113.001 -55s77.667 -55 105 -55c24 0 44 11.833 60 35.5s24 54.167 24 91.5z" />
    <glyph glyph-name="Imacron" unicode="&#x12a;" horiz-adv-x="468" 
d="M293 0h-118v1456h118v-1456zM517 1686h-564v100h564v-100z" />
    <glyph glyph-name="imacron" unicode="&#x12b;" horiz-adv-x="402" 
d="M258 0h-118v1082h118v-1082zM483 1344h-564v100h564v-100z" />
    <glyph glyph-name="Ibreve" unicode="&#x12c;" horiz-adv-x="468" 
d="M293 0h-118v1456h118v-1456zM475 1855c0 -79.333 -21.332 -142.334 -63.999 -189.001s-101.334 -70 -176.001 -70c-75.333 0 -134.333 23.333 -177 70s-64 109.667 -64 189h100c0 -52 11 -93.5 33 -124.5s58 -46.5 108 -46.5c48 0 83.5 15.833 106.5 47.5
s34.5 72.834 34.5 123.501h99z" />
    <glyph glyph-name="ibreve" unicode="&#x12d;" horiz-adv-x="402" 
d="M258 0h-118v1082h118v-1082zM441 1512c0 -79.333 -21.332 -142.334 -63.999 -189.001s-101.334 -70 -176.001 -70c-75.333 0 -134.333 23.333 -177 70s-64 109.667 -64 189h100c0 -52 11 -93.5 33 -124.5s58 -46.5 108 -46.5c48 0 83.5 15.833 106.5 47.5
s34.5 72.834 34.5 123.501h99z" />
    <glyph glyph-name="Iogonek" unicode="&#x12e;" horiz-adv-x="468" 
d="M293 0h-118v1456h118v-1456zM283 4c-44.667 -44 -78.5 -83.332 -101.5 -117.999s-34.5 -73 -34.5 -115c0 -26 4.66699 -46.5 14 -61.5s26 -22.5 50 -22.5c16 0 30.333 3.16699 43 9.5s25 14.166 37 23.499l11 -86c-15.333 -12.667 -32.333 -23.167 -51 -31.5
s-41.334 -12.5 -68.001 -12.5c-42.667 0 -76.667 14.5 -102 43.5s-38 71.5 -38 127.5c0 52 16.333 102.167 49 150.5s80.334 91.833 143.001 130.5z" />
    <glyph glyph-name="iogonek" unicode="&#x12f;" horiz-adv-x="407" 
d="M262 0h-117v1082h117v-1082zM262 1390h-117v170h117v-170zM254 0c-44.667 -44 -78.5 -83.332 -101.5 -117.999s-34.5 -73 -34.5 -115c0 -26 4.66699 -46.5 14 -61.5s26 -22.5 50 -22.5c16 0 30.333 3.16699 43 9.5s25 14.166 37 23.499l11 -86
c-15.333 -12.667 -32.333 -23.167 -51 -31.5s-41.334 -12.5 -68.001 -12.5c-42.667 0 -76.667 14.5 -102 43.5s-38 71.5 -38 127.5c0 52 16.333 102.167 49 150.5s80.334 91.833 143.001 130.5z" />
    <glyph glyph-name="Idotaccent" unicode="&#x130;" horiz-adv-x="468" 
d="M293 0h-118v1456h118v-1456zM304 1635h-139v170h139v-170z" />
    <glyph glyph-name="dotlessi" unicode="&#x131;" horiz-adv-x="402" 
d="M258 0h-118v1082h118v-1082z" />
    <glyph glyph-name="IJ" unicode="&#x132;" horiz-adv-x="1378" 
d="M293 0h-118v1456h118v-1456zM1108 1456l118.999 0.000976562v-1044c0 -135.333 -31 -241.333 -93 -318s-144 -115 -246 -115c-110 0 -196.167 35 -258.5 105s-93.5 175.667 -93.5 317h118c0 -106.667 19.833 -186.334 59.5 -239.001s97.834 -79 174.501 -79
c65.333 0 118.333 29.167 159 87.5s61 138.833 61 241.5v1044z" />
    <glyph glyph-name="ij" unicode="&#x133;" horiz-adv-x="827" 
d="M262 0h-117v1082h117v-1082zM262 1390h-117v170h117v-170zM677 1082l-0.000976562 -1171c0 -113.333 -21.167 -199.666 -63.5 -258.999s-102.5 -89 -180.5 -89c-16 0 -30.333 1.5 -43 4.5s-27 7.83301 -43 14.5l10 105c8.66699 -4 19.834 -7.66699 33.501 -11
s25.5 -5 35.5 -5c41.333 0 73.833 20 97.5 60s35.5 100 35.5 180v1171h118zM671.999 1394h-117v166h117v-166z" />
    <glyph glyph-name="Jcircumflex" unicode="&#x134;" horiz-adv-x="910" 
d="M640 1456l118.999 0.000976562v-1044c0 -135.333 -31 -241.333 -93 -318s-144 -115 -246 -115c-110 0 -196.167 35 -258.5 105s-93.5 175.667 -93.5 317h118c0 -106.667 19.833 -186.334 59.5 -239.001s97.834 -79 174.501 -79c65.333 0 118.333 29.167 159 87.5
s61 138.833 61 241.5v1044zM922.999 1598v-19h-103l-125 166l-123 -166h-102v21l184 222h83z" />
    <glyph glyph-name="jcircumflex" unicode="&#x135;" horiz-adv-x="410" 
d="M269 1082v-1171c0 -113.333 -21.167 -199.666 -63.5 -258.999s-102.5 -89 -180.5 -89c-16 0 -30.5 1.5 -43.5 4.5s-27.167 7.83301 -42.5 14.5l10 102c8 -3.33301 20 -6.66602 36 -9.99902s29.333 -5 40 -5c40 0 71 21 93 63s33 101.667 33 179v1171h118zM438 1258v-19
h-103l-125 166l-123 -166h-102v21l184 222h83z" />
    <glyph glyph-name="Kcommaaccent" unicode="&#x136;" horiz-adv-x="1054" 
d="M422 683h-145v-683h-118v1456h118v-669h140l433 669h137l-471 -714l504 -742h-146zM562 -213c0 -55.333 -8.66699 -108.667 -26 -160s-42.333 -95 -75 -131l-68 53c19.333 38.667 33.5 76 42.5 112s13.5 77.333 13.5 124v105h113v-103z" />
    <glyph glyph-name="kcommaaccent" unicode="&#x137;" horiz-adv-x="827" 
d="M358 525h-106v-525h-119v1560h119v-929h98l282 451h142l-327 -494l365 -588h-141zM486 -211c0 -55.333 -8.66699 -108.667 -26 -160s-42.333 -95 -75 -131l-68 53c19.333 38.667 33.5 76 42.5 112s13.5 77.333 13.5 124v105h113v-103z" />
    <glyph glyph-name="kgreenlandic" unicode="&#x138;" horiz-adv-x="907" 
d="M350 493h-94v-493h-118v1082h118v-479h90l329 479h143l-375 -520l408 -562h-149z" />
    <glyph glyph-name="Lacute" unicode="&#x139;" horiz-adv-x="890" 
d="M278 104h553v-104h-672v1456h119v-1352zM315 1760h152l-216 -266h-99z" />
    <glyph glyph-name="lacute" unicode="&#x13a;" horiz-adv-x="407" 
d="M262 0h-117v1560h117v-1560zM301 1884h152l-216 -266h-99z" />
    <glyph glyph-name="Lcommaaccent" unicode="&#x13b;" horiz-adv-x="890" 
d="M278 104h553v-104h-672v1456h119v-1352zM559 -211c0 -55.333 -8.66699 -108.667 -26 -160s-42.333 -95 -75 -131l-68 53c19.333 38.667 33.5 76 42.5 112s13.5 77.333 13.5 124v105h113v-103z" />
    <glyph glyph-name="lcommaaccent" unicode="&#x13c;" horiz-adv-x="407" 
d="M262 0h-117v1560h117v-1560zM260 -211c0 -55.333 -8.66699 -108.667 -26 -160s-42.333 -95 -75 -131l-68 53c19.333 38.667 33.5 76 42.5 112s13.5 77.333 13.5 124v105h113v-103z" />
    <glyph glyph-name="Lcaron" unicode="&#x13d;" horiz-adv-x="890" 
d="M278 104h553v-104h-672v1456h119v-1352zM619 1353c0 -55.333 -8.66699 -108.667 -26 -160s-42.333 -95 -75 -131l-68 53c19.333 38.667 33.5 76 42.5 112s13.5 77.333 13.5 124v105h113v-103z" />
    <glyph glyph-name="lcaron" unicode="&#x13e;" horiz-adv-x="557" 
d="M262 0h-117v1560h117v-1560zM514 1456c0 -55.333 -8.66699 -108.667 -26 -160s-42.333 -95 -75 -131l-68 53c19.333 38.667 33.5 76 42.5 112s13.5 77.333 13.5 124v105h113v-103z" />
    <glyph glyph-name="Ldot" unicode="&#x13f;" horiz-adv-x="890" 
d="M278 104h553v-104h-672v1456h119v-1352zM629 686h-139v170h139v-170z" />
    <glyph glyph-name="ldot" unicode="&#x140;" horiz-adv-x="627" 
d="M262 0h-117v1560h117v-1560zM510 697h-139v170h139v-170z" />
    <glyph glyph-name="Lslash" unicode="&#x141;" horiz-adv-x="865" 
d="M267 821l232 94v-111l-232 -94v-606h553v-104h-672v661l-110 -44v111l110 44v684h119v-635z" />
    <glyph glyph-name="lslash" unicode="&#x142;" horiz-adv-x="451" 
d="M285 865l131 65v-112l-131 -65v-753h-117v695l-131 -64v112l131 64v753h117v-695z" />
    <glyph glyph-name="Nacute" unicode="&#x143;" horiz-adv-x="1167" 
d="M1007 0h-118l-608 1218l-3 -1v-1217h-119v1456h119l608 -1218l3 1v1217h118v-1456zM679 1823h152l-216 -266h-99z" />
    <glyph glyph-name="nacute" unicode="&#x144;" 
d="M239 1082l9.00098 -174h3c28 60.667 64 108.167 108 142.5s95.667 51.5 155 51.5c92 0 162 -34 210 -102s72 -177.333 72 -328v-672h-119v670c0 122 -16 206.667 -48 254s-81 71 -147 71c-54.667 0 -101.334 -20.167 -140.001 -60.5s-69 -92.833 -91 -157.5v-777h-118
v1082h106zM562.001 1501h152l-216 -266h-99z" />
    <glyph glyph-name="Ncommaaccent" unicode="&#x145;" horiz-adv-x="1167" 
d="M1007 0h-118l-608 1218l-3 -1v-1217h-119v1456h119l608 -1218l3 1v1217h118v-1456zM637 -211c0 -55.333 -8.66699 -108.667 -26 -160s-42.333 -95 -75 -131l-68 53c19.333 38.667 33.5 76 42.5 112s13.5 77.333 13.5 124v105h113v-103z" />
    <glyph glyph-name="ncommaaccent" unicode="&#x146;" 
d="M239 1082l9.00098 -174h3c28 60.667 64 108.167 108 142.5s95.667 51.5 155 51.5c92 0 162 -34 210 -102s72 -177.333 72 -328v-672h-119v670c0 122 -16 206.667 -48 254s-81 71 -147 71c-54.667 0 -101.334 -20.167 -140.001 -60.5s-69 -92.833 -91 -157.5v-777h-118
v1082h106zM520.001 -211c0 -55.333 -8.66699 -108.667 -26 -160s-42.333 -95 -75 -131l-68 53c19.333 38.667 33.5 76 42.5 112s13.5 77.333 13.5 124v105h113v-103z" />
    <glyph glyph-name="Ncaron" unicode="&#x147;" horiz-adv-x="1167" 
d="M1007 0h-118l-608 1218l-3 -1v-1217h-119v1456h119l608 -1218l3 1v1217h118v-1456zM582 1678l124 168h107v-17l-190 -226h-83l-188 226v17h105z" />
    <glyph glyph-name="ncaron" unicode="&#x148;" 
d="M239 1082l9.00098 -174h3c28 60.667 64 108.167 108 142.5s95.667 51.5 155 51.5c92 0 162 -34 210 -102s72 -177.333 72 -328v-672h-119v670c0 122 -16 206.667 -48 254s-81 71 -147 71c-54.667 0 -101.334 -20.167 -140.001 -60.5s-69 -92.833 -91 -157.5v-777h-118
v1082h106zM465.001 1356l124 168h107v-17l-190 -226h-83l-188 226v17h105z" />
    <glyph glyph-name="napostrophe" unicode="&#x149;" 
d="M239 1082l9.00098 -174h3c28 60.667 64 108.167 108 142.5s95.667 51.5 155 51.5c92 0 162 -34 210 -102s72 -177.333 72 -328v-672h-119v670c0 122 -16 206.667 -48 254s-81 71 -147 71c-54.667 0 -101.334 -20.167 -140.001 -60.5s-69 -92.833 -91 -157.5v-777h-118
v1082h106zM151.001 1454c0 -55.333 -8.66699 -108.667 -26 -160s-42.333 -95 -75 -131l-68 53c19.333 38.667 33.5 76 42.5 112s13.5 77.333 13.5 124v105h113v-103z" />
    <glyph glyph-name="Eng" unicode="&#x14a;" horiz-adv-x="1144" 
d="M997 1456v-1545c0 -113.333 -21.167 -199.666 -63.5 -258.999s-102.5 -89 -180.5 -89c-16.667 0 -31.5 1.5 -44.5 4.5s-27.167 7.83301 -42.5 14.5l10 102c8 -3.33301 20.167 -6.66602 36.5 -9.99902s29.833 -5 40.5 -5c40.667 0 72 21 94 63s33 101.667 33 179v89
l-610 1211h-3v-1211h-117v1456h117l610 -1211h3v1211h117z" />
    <glyph glyph-name="eng" unicode="&#x14b;" 
d="M237 1082l8.99707 -164.001h3c27.333 58.667 62.5 104 105.5 136s93.833 48 152.5 48c93.333 0 164 -35 212 -105s72 -182.333 72 -337v-749c0 -113.333 -21.167 -199.666 -63.5 -258.999s-102.5 -89 -180.5 -89c-18 0 -34 1.5 -48 4.5s-29.333 7.83301 -46 14.5l11 107
c8.66699 -3.33301 21.834 -6.83301 39.501 -10.5s32.167 -5.5 43.5 -5.5c40.667 0 71.834 20.333 93.501 61s32.5 99.667 32.5 177v748c0 125.333 -16.333 212.5 -49 261.5s-82 73.5 -148 73.5c-57.333 0 -104.166 -16.833 -140.499 -50.5s-64.833 -80.5 -85.5 -140.5v-803
h-118v1082h105z" />
    <glyph glyph-name="Omacron" unicode="&#x14c;" horiz-adv-x="1125" 
d="M994 523c0 -179.333 -38.5 -314.834 -115.5 -406.501s-184.167 -137.5 -321.5 -137.5c-134.667 0 -239.5 46 -314.5 138s-112.5 227.333 -112.5 406v408c0 178.667 37.5 314.334 112.5 407.001s179.833 139 314.5 139c136.667 0 243.667 -46.5 321 -139.5
s116 -228.5 116 -406.5v-408zM876 933.999c0 146 -27.167 254.833 -81.5 326.5s-133.5 107.5 -237.5 107.5c-100.667 0 -177.167 -35.833 -229.5 -107.5s-78.5 -180.5 -78.5 -326.5v-411c0 -147.333 26.167 -257 78.5 -329s128.833 -108 229.5 -108
c104 0 183.167 35.833 237.5 107.5s81.5 181.5 81.5 329.5v411zM845 1707h-564v100h564v-100z" />
    <glyph glyph-name="omacron" unicode="&#x14d;" 
d="M87 620c0 142.667 33.5 258.667 100.5 348s158.5 134 274.5 134c116.667 0 208.5 -44.5 275.5 -133.5s100.5 -205.167 100.5 -348.5v-159c0 -144.667 -33.333 -261 -100 -349s-158 -132 -274 -132c-117.333 0 -209.5 44 -276.5 132s-100.5 204.333 -100.5 349v159z
M205 461c0 -110 22 -200.499 66 -271.499s108.333 -106.5 193 -106.5c82.667 0 146.167 35.667 190.5 107s66.5 161.666 66.5 270.999v159c0 108 -22.167 197.667 -66.5 269s-108.5 107 -192.5 107s-147.833 -35.667 -191.5 -107s-65.5 -161 -65.5 -269v-159zM751 1364h-564
v100h564v-100z" />
    <glyph glyph-name="Obreve" unicode="&#x14e;" horiz-adv-x="1125" 
d="M994 523c0 -179.333 -38.5 -314.834 -115.5 -406.501s-184.167 -137.5 -321.5 -137.5c-134.667 0 -239.5 46 -314.5 138s-112.5 227.333 -112.5 406v408c0 178.667 37.5 314.334 112.5 407.001s179.833 139 314.5 139c136.667 0 243.667 -46.5 321 -139.5
s116 -228.5 116 -406.5v-408zM876 933.999c0 146 -27.167 254.833 -81.5 326.5s-133.5 107.5 -237.5 107.5c-100.667 0 -177.167 -35.833 -229.5 -107.5s-78.5 -180.5 -78.5 -326.5v-411c0 -147.333 26.167 -257 78.5 -329s128.833 -108 229.5 -108
c104 0 183.167 35.833 237.5 107.5s81.5 181.5 81.5 329.5v411zM803 1876c0 -79.333 -21.332 -142.334 -63.999 -189.001s-101.334 -70 -176.001 -70c-75.333 0 -134.333 23.333 -177 70s-64 109.667 -64 189h100c0 -52 11 -93.5 33 -124.5s58 -46.5 108 -46.5
c48 0 83.5 15.833 106.5 47.5s34.5 72.834 34.5 123.501h99z" />
    <glyph glyph-name="obreve" unicode="&#x14f;" 
d="M87 620c0 142.667 33.5 258.667 100.5 348s158.5 134 274.5 134c116.667 0 208.5 -44.5 275.5 -133.5s100.5 -205.167 100.5 -348.5v-159c0 -144.667 -33.333 -261 -100 -349s-158 -132 -274 -132c-117.333 0 -209.5 44 -276.5 132s-100.5 204.333 -100.5 349v159z
M205 461c0 -110 22 -200.499 66 -271.499s108.333 -106.5 193 -106.5c82.667 0 146.167 35.667 190.5 107s66.5 161.666 66.5 270.999v159c0 108 -22.167 197.667 -66.5 269s-108.5 107 -192.5 107s-147.833 -35.667 -191.5 -107s-65.5 -161 -65.5 -269v-159zM709 1533
c0 -79.333 -21.332 -142.334 -63.999 -189.001s-101.334 -70 -176.001 -70c-75.333 0 -134.333 23.333 -177 70s-64 109.667 -64 189h100c0 -52 11 -93.5 33 -124.5s58 -46.5 108 -46.5c48 0 83.5 15.833 106.5 47.5s34.5 72.834 34.5 123.501h99z" />
    <glyph glyph-name="Ohungarumlaut" unicode="&#x150;" horiz-adv-x="1125" 
d="M994 523c0 -179.333 -38.5 -314.834 -115.5 -406.501s-184.167 -137.5 -321.5 -137.5c-134.667 0 -239.5 46 -314.5 138s-112.5 227.333 -112.5 406v408c0 178.667 37.5 314.334 112.5 407.001s179.833 139 314.5 139c136.667 0 243.667 -46.5 321 -139.5
s116 -228.5 116 -406.5v-408zM876 933.999c0 146 -27.167 254.833 -81.5 326.5s-133.5 107.5 -237.5 107.5c-100.667 0 -177.167 -35.833 -229.5 -107.5s-78.5 -180.5 -78.5 -326.5v-411c0 -147.333 26.167 -257 78.5 -329s128.833 -108 229.5 -108
c104 0 183.167 35.833 237.5 107.5s81.5 181.5 81.5 329.5v411zM792 1888h146l-237 -266h-113zM551 1888h135l-194 -266h-101z" />
    <glyph glyph-name="ohungarumlaut" unicode="&#x151;" 
d="M87 620c0 142.667 33.5 258.667 100.5 348s158.5 134 274.5 134c116.667 0 208.5 -44.5 275.5 -133.5s100.5 -205.167 100.5 -348.5v-159c0 -144.667 -33.333 -261 -100 -349s-158 -132 -274 -132c-117.333 0 -209.5 44 -276.5 132s-100.5 204.333 -100.5 349v159z
M205 461c0 -110 22 -200.499 66 -271.499s108.333 -106.5 193 -106.5c82.667 0 146.167 35.667 190.5 107s66.5 161.666 66.5 270.999v159c0 108 -22.167 197.667 -66.5 269s-108.5 107 -192.5 107s-147.833 -35.667 -191.5 -107s-65.5 -161 -65.5 -269v-159zM698 1545h146
l-237 -266h-113zM457 1545h135l-194 -266h-101z" />
    <glyph glyph-name="OE" unicode="&#x152;" horiz-adv-x="1539" 
d="M1450 0h-687.999c-51.333 -6.66699 -94.333 -11.834 -129 -15.501s-70.667 -5.5 -108 -5.5c-130 0 -233.667 54.333 -311 163s-116 253.334 -116 434.001v304c0 180 38.667 324.5 116 433.5s180.666 163.5 309.999 163.5c38.667 0 77 -2 115 -6s79 -9 123 -15h682v-106
h-612v-543h537v-104h-537v-599h618v-104zM525.001 83c32 0 63.8311 1.16602 95.498 3.49902s62.834 5.83301 93.501 10.5v1261c-30 4.66699 -60.833 8.33398 -92.5 11.001s-64.167 4 -97.5 4c-97.333 0 -173 -43 -227 -129s-81 -206.667 -81 -362v-306
c0 -154.667 27.333 -275.5 82 -362.5s130.334 -130.5 227.001 -130.5z" />
    <glyph glyph-name="oe" unicode="&#x153;" horiz-adv-x="1495" 
d="M88 556c0 163.333 33.502 295.166 100.502 395.499s158.833 150.5 275.5 150.5c74 0 138.167 -21.167 192.5 -63.5s97.5 -102.5 129.5 -180.5c32.667 76.667 75.5 136.5 128.5 179.5s111.167 64.5 174.5 64.5c110 0 194 -41.167 252 -123.5s87 -195.833 87 -340.5v-103
h-580v-25c0 -125.333 22.667 -227.833 68 -307.5s108.666 -119.5 189.999 -119.5c56.667 0 104.667 10 144 30s74 49.667 104 89l48 -85c-30.667 -43.333 -70.167 -77.166 -118.5 -101.499s-107.5 -36.5 -177.5 -36.5c-72 0 -135.5 20.667 -190.5 62
s-98.5 100.333 -130.5 177c-32.667 -77.333 -75.834 -136.5 -129.501 -177.5s-117.167 -61.5 -190.5 -61.5c-117.333 0 -209.5 49.833 -276.5 149.5s-100.5 231.5 -100.5 395.5v32zM206.002 524c0 -128.667 21.999 -234.333 65.999 -317s108.333 -124 193 -124
c83.333 0 147 41.5 191 124.5s66 188.5 66 316.5v32c0 126 -22.167 230.833 -66.5 314.5s-108.166 125.5 -191.499 125.5c-84 0 -148 -41.833 -192 -125.5s-66 -188.5 -66 -314.5v-32zM1089 996.001c-64.667 0 -118.168 -33 -160.501 -99s-68.166 -152 -77.499 -258h459v30
c0 96 -19 174.5 -57 235.5s-92.667 91.5 -164 91.5z" />
    <glyph glyph-name="Racute" unicode="&#x154;" horiz-adv-x="1084" 
d="M276 657l-0.000976562 -657.001h-118v1455h396c126 0 221.167 -33.667 285.5 -101s96.5 -168 96.5 -302c0 -78.667 -17.5 -147.834 -52.5 -207.501s-85.167 -103.834 -150.5 -132.501c70.667 -23.333 120.834 -63.666 150.501 -120.999s44.5 -130.666 44.5 -219.999v-137
c0 -46 4 -86.667 12 -122s21.667 -64.666 41 -87.999v-24h-121c-20.667 24 -34.167 56.667 -40.5 98s-9.5 87.333 -9.5 138v133c0 90 -20.167 160.5 -60.5 211.5s-97.5 76.5 -171.5 76.5h-302zM275.999 760.999l265.001 0.000976562c97.333 0 167.666 25.833 210.999 77.5
s65 123.167 65 214.5c0 97.333 -21.167 171.166 -63.5 221.499s-108.833 75.5 -199.5 75.5h-278v-589zM592 1823h152l-216 -266h-99z" />
    <glyph glyph-name="racute" unicode="&#x155;" horiz-adv-x="579" 
d="M530 974l-77 5.99902c-52 0 -94.5 -17.667 -127.5 -53s-57.833 -85.666 -74.5 -150.999v-776h-118v1082h104l12 -167l3 -1c23.333 59.333 54 105.5 92 138.5s83.667 49.5 137 49.5c12.667 0 24.667 -1.16699 36 -3.5s21 -4.83301 29 -7.5zM433 1501h152l-216 -266h-99z
" />
    <glyph glyph-name="Rcommaaccent" unicode="&#x156;" horiz-adv-x="1084" 
d="M276 657l-0.000976562 -657.001h-118v1455h396c126 0 221.167 -33.667 285.5 -101s96.5 -168 96.5 -302c0 -78.667 -17.5 -147.834 -52.5 -207.501s-85.167 -103.834 -150.5 -132.501c70.667 -23.333 120.834 -63.666 150.501 -120.999s44.5 -130.666 44.5 -219.999v-137
c0 -46 4 -86.667 12 -122s21.667 -64.666 41 -87.999v-24h-121c-20.667 24 -34.167 56.667 -40.5 98s-9.5 87.333 -9.5 138v133c0 90 -20.167 160.5 -60.5 211.5s-97.5 76.5 -171.5 76.5h-302zM275.999 760.999l265.001 0.000976562c97.333 0 167.666 25.833 210.999 77.5
s65 123.167 65 214.5c0 97.333 -21.167 171.166 -63.5 221.499s-108.833 75.5 -199.5 75.5h-278v-589zM550 -211c0 -55.333 -8.66699 -108.667 -26 -160s-42.333 -95 -75 -131l-68 53c19.333 38.667 33.5 76 42.5 112s13.5 77.333 13.5 124v105h113v-103z" />
    <glyph glyph-name="rcommaaccent" unicode="&#x157;" horiz-adv-x="579" 
d="M530 974l-77 5.99902c-52 0 -94.5 -17.667 -127.5 -53s-57.833 -85.666 -74.5 -150.999v-776h-118v1082h104l12 -167l3 -1c23.333 59.333 54 105.5 92 138.5s83.667 49.5 137 49.5c12.667 0 24.667 -1.16699 36 -3.5s21 -4.83301 29 -7.5zM254 -207.001
c0 -55.333 -8.66699 -108.667 -26 -160s-42.333 -95 -75 -131l-68 53c19.333 38.667 33.5 76 42.5 112s13.5 77.333 13.5 124v105h113v-103z" />
    <glyph glyph-name="Rcaron" unicode="&#x158;" horiz-adv-x="1084" 
d="M276 657l-0.000976562 -657.001h-118v1455h396c126 0 221.167 -33.667 285.5 -101s96.5 -168 96.5 -302c0 -78.667 -17.5 -147.834 -52.5 -207.501s-85.167 -103.834 -150.5 -132.501c70.667 -23.333 120.834 -63.666 150.501 -120.999s44.5 -130.666 44.5 -219.999v-137
c0 -46 4 -86.667 12 -122s21.667 -64.666 41 -87.999v-24h-121c-20.667 24 -34.167 56.667 -40.5 98s-9.5 87.333 -9.5 138v133c0 90 -20.167 160.5 -60.5 211.5s-97.5 76.5 -171.5 76.5h-302zM275.999 760.999l265.001 0.000976562c97.333 0 167.666 25.833 210.999 77.5
s65 123.167 65 214.5c0 97.333 -21.167 171.166 -63.5 221.499s-108.833 75.5 -199.5 75.5h-278v-589zM495 1678l124 168h107v-17l-190 -226h-83l-188 226v17h105z" />
    <glyph glyph-name="rcaron" unicode="&#x159;" horiz-adv-x="579" 
d="M530 974l-77 5.99902c-52 0 -94.5 -17.667 -127.5 -53s-57.833 -85.666 -74.5 -150.999v-776h-118v1082h104l12 -167l3 -1c23.333 59.333 54 105.5 92 138.5s83.667 49.5 137 49.5c12.667 0 24.667 -1.16699 36 -3.5s21 -4.83301 29 -7.5zM337 1356l124 168h107v-17
l-190 -226h-83l-188 226v17h105z" />
    <glyph glyph-name="Sacute" unicode="&#x15a;" horiz-adv-x="997" 
d="M797 357c0 80.667 -21.0049 145.332 -63.0049 193.999s-118.667 92.334 -230 131.001c-128 41.333 -223.667 93.5 -287 156.5s-95 149.5 -95 259.5c0 114 35.5 205.667 106.5 275s164.833 104 281.5 104c122.667 0 220 -41.333 292 -124s108 -186.667 108 -312h-118
c0 98.667 -24.667 178.334 -74 239.001s-118.666 91 -207.999 91c-87.333 0 -154.166 -25.333 -200.499 -76s-69.5 -115.334 -69.5 -194.001c0 -73.333 22.5 -134 67.5 -182s123.167 -90.667 234.5 -128c124.667 -40.667 217.834 -94.334 279.501 -161.001
s92.5 -157 92.5 -271c0 -119.333 -36.5 -212.5 -109.5 -279.5s-169.5 -100.5 -289.5 -100.5c-117.333 0 -218.333 36.333 -303 109s-127 181.334 -127 326.001h118c0 -115.333 29.833 -199.333 89.5 -252s133.834 -79 222.501 -79c86.667 0 155.334 24.667 206.001 74
s76 116 76 200zM591.995 1844h152l-216 -266h-99z" />
    <glyph glyph-name="sacute" unicode="&#x15b;" horiz-adv-x="829" 
d="M623 259c0 50 -14.667 92.499 -44 127.499s-85 72.5 -167 112.5c-106 46.667 -182.667 92.834 -230 138.501s-71 107.167 -71 184.5c0 79.333 28.333 145.833 85 199.5s132 80.5 226 80.5c98.667 0 176 -30 232 -90s84 -138 84 -234h-117
c0 59.333 -17.833 110.5 -53.5 153.5s-84.167 64.5 -145.5 64.5c-64.667 0 -113 -16.667 -145 -50s-48 -73.333 -48 -120c0 -48.667 12.667 -87.167 38 -115.5s81.333 -64.833 168 -109.5c104.667 -44 181.667 -91 231 -141s74 -114.667 74 -194
c0 -87.333 -28.667 -156.833 -86 -208.5s-134.666 -77.5 -231.999 -77.5c-108 0 -191.5 31 -250.5 93s-88.5 139 -88.5 231h117c3.33301 -79.333 26.333 -136 69 -170s93.667 -51 153 -51c63.333 0 112.666 16.833 147.999 50.5s53 75.5 53 125.5zM522 1501h152l-216 -266
h-99z" />
    <glyph glyph-name="Scircumflex" unicode="&#x15c;" horiz-adv-x="997" 
d="M797 357c0 80.667 -21.0049 145.332 -63.0049 193.999s-118.667 92.334 -230 131.001c-128 41.333 -223.667 93.5 -287 156.5s-95 149.5 -95 259.5c0 114 35.5 205.667 106.5 275s164.833 104 281.5 104c122.667 0 220 -41.333 292 -124s108 -186.667 108 -312h-118
c0 98.667 -24.667 178.334 -74 239.001s-118.666 91 -207.999 91c-87.333 0 -154.166 -25.333 -200.499 -76s-69.5 -115.334 -69.5 -194.001c0 -73.333 22.5 -134 67.5 -182s123.167 -90.667 234.5 -128c124.667 -40.667 217.834 -94.334 279.501 -161.001
s92.5 -157 92.5 -271c0 -119.333 -36.5 -212.5 -109.5 -279.5s-169.5 -100.5 -289.5 -100.5c-117.333 0 -218.333 36.333 -303 109s-127 181.334 -127 326.001h118c0 -115.333 29.833 -199.333 89.5 -252s133.834 -79 222.501 -79c86.667 0 155.334 24.667 206.001 74
s76 116 76 200zM722.995 1641v-19h-103l-125 166l-123 -166h-102v21l184 222h83z" />
    <glyph glyph-name="scircumflex" unicode="&#x15d;" horiz-adv-x="829" 
d="M623 259c0 50 -14.667 92.499 -44 127.499s-85 72.5 -167 112.5c-106 46.667 -182.667 92.834 -230 138.501s-71 107.167 -71 184.5c0 79.333 28.333 145.833 85 199.5s132 80.5 226 80.5c98.667 0 176 -30 232 -90s84 -138 84 -234h-117
c0 59.333 -17.833 110.5 -53.5 153.5s-84.167 64.5 -145.5 64.5c-64.667 0 -113 -16.667 -145 -50s-48 -73.333 -48 -120c0 -48.667 12.667 -87.167 38 -115.5s81.333 -64.833 168 -109.5c104.667 -44 181.667 -91 231 -141s74 -114.667 74 -194
c0 -87.333 -28.667 -156.833 -86 -208.5s-134.666 -77.5 -231.999 -77.5c-108 0 -191.5 31 -250.5 93s-88.5 139 -88.5 231h117c3.33301 -79.333 26.333 -136 69 -170s93.667 -51 153 -51c63.333 0 112.666 16.833 147.999 50.5s53 75.5 53 125.5zM653 1298v-19h-103
l-125 166l-123 -166h-102v21l184 222h83z" />
    <glyph glyph-name="Scedilla" unicode="&#x15e;" horiz-adv-x="997" 
d="M797 357c0 80.667 -21.0049 145.332 -63.0049 193.999s-118.667 92.334 -230 131.001c-128 41.333 -223.667 93.5 -287 156.5s-95 149.5 -95 259.5c0 114 35.5 205.667 106.5 275s164.833 104 281.5 104c122.667 0 220 -41.333 292 -124s108 -186.667 108 -312h-118
c0 98.667 -24.667 178.334 -74 239.001s-118.666 91 -207.999 91c-87.333 0 -154.166 -25.333 -200.499 -76s-69.5 -115.334 -69.5 -194.001c0 -73.333 22.5 -134 67.5 -182s123.167 -90.667 234.5 -128c124.667 -40.667 217.834 -94.334 279.501 -161.001
s92.5 -157 92.5 -271c0 -119.333 -36.5 -212.5 -109.5 -279.5s-169.5 -100.5 -289.5 -100.5c-117.333 0 -218.333 36.333 -303 109s-127 181.334 -127 326.001h118c0 -115.333 29.833 -199.333 89.5 -252s133.834 -79 222.501 -79c86.667 0 155.334 24.667 206.001 74
s76 116 76 200zM542.995 -9.00195l-9.00098 -63.001c36.667 -6 66.667 -22.167 90 -48.5s35 -67.166 35 -122.499c0 -62 -20.167 -111 -60.5 -147s-98.166 -54 -173.499 -54l-6 80c41.333 0 75.833 9.83301 103.5 29.5s41.5 49.5 41.5 89.5c0 38 -9.83301 64.333 -29.5 79
s-53.5 24.667 -101.5 30l23 127h87z" />
    <glyph glyph-name="scedilla" unicode="&#x15f;" horiz-adv-x="829" 
d="M623 259c0 50 -14.667 92.499 -44 127.499s-85 72.5 -167 112.5c-106 46.667 -182.667 92.834 -230 138.501s-71 107.167 -71 184.5c0 79.333 28.333 145.833 85 199.5s132 80.5 226 80.5c98.667 0 176 -30 232 -90s84 -138 84 -234h-117
c0 59.333 -17.833 110.5 -53.5 153.5s-84.167 64.5 -145.5 64.5c-64.667 0 -113 -16.667 -145 -50s-48 -73.333 -48 -120c0 -48.667 12.667 -87.167 38 -115.5s81.333 -64.833 168 -109.5c104.667 -44 181.667 -91 231 -141s74 -114.667 74 -194
c0 -87.333 -28.667 -156.833 -86 -208.5s-134.666 -77.5 -231.999 -77.5c-108 0 -191.5 31 -250.5 93s-88.5 139 -88.5 231h117c3.33301 -79.333 26.333 -136 69 -170s93.667 -51 153 -51c63.333 0 112.666 16.833 147.999 50.5s53 75.5 53 125.5zM473 -6.00098
l-9.00098 -63.001c36.667 -6 66.667 -22.167 90 -48.5s35 -67.166 35 -122.499c0 -62 -20.167 -111 -60.5 -147s-98.166 -54 -173.499 -54l-6 80c41.333 0 75.833 9.83301 103.5 29.5s41.5 49.5 41.5 89.5c0 38 -9.83301 64.333 -29.5 79s-53.5 24.667 -101.5 30l23 127h87z
" />
    <glyph glyph-name="Scaron" unicode="&#x160;" horiz-adv-x="997" 
d="M797 357c0 80.667 -21.0049 145.332 -63.0049 193.999s-118.667 92.334 -230 131.001c-128 41.333 -223.667 93.5 -287 156.5s-95 149.5 -95 259.5c0 114 35.5 205.667 106.5 275s164.833 104 281.5 104c122.667 0 220 -41.333 292 -124s108 -186.667 108 -312h-118
c0 98.667 -24.667 178.334 -74 239.001s-118.666 91 -207.999 91c-87.333 0 -154.166 -25.333 -200.499 -76s-69.5 -115.334 -69.5 -194.001c0 -73.333 22.5 -134 67.5 -182s123.167 -90.667 234.5 -128c124.667 -40.667 217.834 -94.334 279.501 -161.001
s92.5 -157 92.5 -271c0 -119.333 -36.5 -212.5 -109.5 -279.5s-169.5 -100.5 -289.5 -100.5c-117.333 0 -218.333 36.333 -303 109s-127 181.334 -127 326.001h118c0 -115.333 29.833 -199.333 89.5 -252s133.834 -79 222.501 -79c86.667 0 155.334 24.667 206.001 74
s76 116 76 200zM494.995 1699l124 168h107v-17l-190 -226h-83l-188 226v17h105z" />
    <glyph glyph-name="scaron" unicode="&#x161;" horiz-adv-x="829" 
d="M623 259c0 50 -14.667 92.499 -44 127.499s-85 72.5 -167 112.5c-106 46.667 -182.667 92.834 -230 138.501s-71 107.167 -71 184.5c0 79.333 28.333 145.833 85 199.5s132 80.5 226 80.5c98.667 0 176 -30 232 -90s84 -138 84 -234h-117
c0 59.333 -17.833 110.5 -53.5 153.5s-84.167 64.5 -145.5 64.5c-64.667 0 -113 -16.667 -145 -50s-48 -73.333 -48 -120c0 -48.667 12.667 -87.167 38 -115.5s81.333 -64.833 168 -109.5c104.667 -44 181.667 -91 231 -141s74 -114.667 74 -194
c0 -87.333 -28.667 -156.833 -86 -208.5s-134.666 -77.5 -231.999 -77.5c-108 0 -191.5 31 -250.5 93s-88.5 139 -88.5 231h117c3.33301 -79.333 26.333 -136 69 -170s93.667 -51 153 -51c63.333 0 112.666 16.833 147.999 50.5s53 75.5 53 125.5zM425 1356l124 168h107v-17
l-190 -226h-83l-188 226v17h105z" />
    <glyph glyph-name="uni0162" unicode="&#x162;" horiz-adv-x="949" 
d="M892 1350h-360v-1350h-116v1350h-358v106h834v-106zM523 4l-9.00098 -63.001c36.667 -6 66.667 -22.167 90 -48.5s35 -67.166 35 -122.499c0 -62 -20.167 -111 -60.5 -147s-98.166 -54 -173.499 -54l-6 80c41.333 0 75.833 9.83301 103.5 29.5s41.5 49.5 41.5 89.5
c0 38 -9.83301 64.333 -29.5 79s-53.5 24.667 -101.5 30l23 127h87z" />
    <glyph glyph-name="uni0163" unicode="&#x163;" horiz-adv-x="536" 
d="M287 1358l-0.000976562 -276.001h170v-101h-170v-702c0 -71.333 8.33301 -121.166 25 -149.499s38.667 -42.5 66 -42.5c13.333 0 26.333 1 39 3s25.334 4.66699 38.001 8l17 -93c-14 -7.33301 -31.667 -13.333 -53 -18s-43.333 -7 -66 -7c-58.667 0 -104 23.333 -136 70
s-48 123 -48 229v702h-132v101h132v276h118zM392.999 -0.000976562l-9.00098 -63.001c36.667 -6 66.667 -22.167 90 -48.5s35 -67.166 35 -122.499c0 -62 -20.167 -111 -60.5 -147s-98.166 -54 -173.499 -54l-6 80c41.333 0 75.833 9.83301 103.5 29.5s41.5 49.5 41.5 89.5
c0 38 -9.83301 64.333 -29.5 79s-53.5 24.667 -101.5 30l23 127h87z" />
    <glyph glyph-name="Tcaron" unicode="&#x164;" horiz-adv-x="949" 
d="M892 1350h-360v-1350h-116v1350h-358v106h834v-106zM475 1673l124 168h107v-17l-190 -226h-83l-188 226v17h105z" />
    <glyph glyph-name="tcaron" unicode="&#x165;" horiz-adv-x="576" 
d="M287 1358l-0.000976562 -276.001h170v-101h-170v-702c0 -71.333 8.33301 -121.166 25 -149.499s38.667 -42.5 66 -42.5c13.333 0 26.333 1 39 3s25.334 4.66699 38.001 8l17 -93c-14 -7.33301 -31.667 -13.333 -53 -18s-43.333 -7 -66 -7c-58.667 0 -104 23.333 -136 70
s-48 123 -48 229v702h-132v101h132v276h118zM555.999 1460c0 -55.333 -8.66699 -108.667 -26 -160s-42.333 -95 -75 -131l-68 53c19.333 38.667 33.5 76 42.5 112s13.5 77.333 13.5 124v105h113v-103z" />
    <glyph glyph-name="Tbar" unicode="&#x166;" horiz-adv-x="949" 
d="M711 833h-179v-833h-116v833h-192v104h192v413h-358v106h834v-106h-360v-413h179v-104z" />
    <glyph glyph-name="tbar" unicode="&#x167;" horiz-adv-x="536" 
d="M287 1358l-0.000976562 -276.001h170v-101h-170v-261h205v-104h-205v-337c0 -71.333 8.33301 -121.166 25 -149.499s38.667 -42.5 66 -42.5c13.333 0 26.333 1 39 3s25.334 4.66699 38.001 8l17 -93c-14 -7.33301 -31.667 -13.333 -53 -18s-43.333 -7 -66 -7
c-58.667 0 -104 23.333 -136 70s-48 123 -48 229v337h-164v104h164v261h-132v101h132v276h118z" />
    <glyph glyph-name="Utilde" unicode="&#x168;" horiz-adv-x="1068" 
d="M937 1456l0.000976562 -1019c0 -151.333 -37 -265.5 -111 -342.5s-172.667 -115.5 -296 -115.5c-120.667 0 -217 38.5 -289 115.5s-108 191.167 -108 342.5v1019h116v-1019c0 -116.667 25.5 -204.834 76.5 -264.501s119.167 -89.5 204.5 -89.5
c89.333 0 160.166 28.667 212.499 86s78.5 146.666 78.5 267.999v1019h116zM797.001 1823c0 -60 -14.668 -109.166 -44.001 -147.499s-66.666 -57.5 -111.999 -57.5c-38 0 -76.833 18.167 -116.5 54.5s-73.5 54.5 -101.5 54.5c-24.667 0 -44.834 -11.333 -60.501 -34
s-23.5 -52.334 -23.5 -89.001l-71 18c0 59.333 14.167 108.333 42.5 147s65.833 58 112.5 58c32.667 0 70.334 -18.333 113.001 -55s77.667 -55 105 -55c24 0 44 11.833 60 35.5s24 54.167 24 91.5z" />
    <glyph glyph-name="utilde" unicode="&#x169;" 
d="M680 161l-3 0.000976562c-26 -58 -60.667 -102.667 -104 -134s-95.333 -47 -156 -47c-92 0 -162.833 37.667 -212.5 113s-74.5 195.666 -74.5 360.999v628h118v-630c0 -134 15.5 -228.5 46.5 -283.5s77.5 -82.5 139.5 -82.5c65.333 0 117.5 18.167 156.5 54.5
s67.5 87.5 85.5 153.5v788h118v-1082h-105zM725 1481c0 -60 -14.668 -109.166 -44.001 -147.499s-66.666 -57.5 -111.999 -57.5c-38 0 -76.833 18.167 -116.5 54.5s-73.5 54.5 -101.5 54.5c-24.667 0 -44.834 -11.333 -60.501 -34s-23.5 -52.334 -23.5 -89.001l-71 18
c0 59.333 14.167 108.333 42.5 147s65.833 58 112.5 58c32.667 0 70.334 -18.333 113.001 -55s77.667 -55 105 -55c24 0 44 11.833 60 35.5s24 54.167 24 91.5z" />
    <glyph glyph-name="Umacron" unicode="&#x16a;" horiz-adv-x="1068" 
d="M937 1456l0.000976562 -1019c0 -151.333 -37 -265.5 -111 -342.5s-172.667 -115.5 -296 -115.5c-120.667 0 -217 38.5 -289 115.5s-108 191.167 -108 342.5v1019h116v-1019c0 -116.667 25.5 -204.834 76.5 -264.501s119.167 -89.5 204.5 -89.5
c89.333 0 160.166 28.667 212.499 86s78.5 146.666 78.5 267.999v1019h116zM821.001 1686h-564v100h564v-100z" />
    <glyph glyph-name="umacron" unicode="&#x16b;" 
d="M680 161l-3 0.000976562c-26 -58 -60.667 -102.667 -104 -134s-95.333 -47 -156 -47c-92 0 -162.833 37.667 -212.5 113s-74.5 195.666 -74.5 360.999v628h118v-630c0 -134 15.5 -228.5 46.5 -283.5s77.5 -82.5 139.5 -82.5c65.333 0 117.5 18.167 156.5 54.5
s67.5 87.5 85.5 153.5v788h118v-1082h-105zM749 1344h-564v100h564v-100z" />
    <glyph glyph-name="Ubreve" unicode="&#x16c;" horiz-adv-x="1068" 
d="M937 1456l0.000976562 -1019c0 -151.333 -37 -265.5 -111 -342.5s-172.667 -115.5 -296 -115.5c-120.667 0 -217 38.5 -289 115.5s-108 191.167 -108 342.5v1019h116v-1019c0 -116.667 25.5 -204.834 76.5 -264.501s119.167 -89.5 204.5 -89.5
c89.333 0 160.166 28.667 212.499 86s78.5 146.666 78.5 267.999v1019h116zM779.001 1855c0 -79.333 -21.332 -142.334 -63.999 -189.001s-101.334 -70 -176.001 -70c-75.333 0 -134.333 23.333 -177 70s-64 109.667 -64 189h100c0 -52 11 -93.5 33 -124.5
s58 -46.5 108 -46.5c48 0 83.5 15.833 106.5 47.5s34.5 72.834 34.5 123.501h99z" />
    <glyph glyph-name="ubreve" unicode="&#x16d;" 
d="M680 161l-3 0.000976562c-26 -58 -60.667 -102.667 -104 -134s-95.333 -47 -156 -47c-92 0 -162.833 37.667 -212.5 113s-74.5 195.666 -74.5 360.999v628h118v-630c0 -134 15.5 -228.5 46.5 -283.5s77.5 -82.5 139.5 -82.5c65.333 0 117.5 18.167 156.5 54.5
s67.5 87.5 85.5 153.5v788h118v-1082h-105zM707 1512c0 -79.333 -21.332 -142.334 -63.999 -189.001s-101.334 -70 -176.001 -70c-75.333 0 -134.333 23.333 -177 70s-64 109.667 -64 189h100c0 -52 11 -93.5 33 -124.5s58 -46.5 108 -46.5c48 0 83.5 15.833 106.5 47.5
s34.5 72.834 34.5 123.501h99z" />
    <glyph glyph-name="Uring" unicode="&#x16e;" horiz-adv-x="1068" 
d="M937 1456l0.000976562 -1019c0 -151.333 -37 -265.5 -111 -342.5s-172.667 -115.5 -296 -115.5c-120.667 0 -217 38.5 -289 115.5s-108 191.167 -108 342.5v1019h116v-1019c0 -116.667 25.5 -204.834 76.5 -264.501s119.167 -89.5 204.5 -89.5
c89.333 0 160.166 28.667 212.499 86s78.5 146.666 78.5 267.999v1019h116zM387.001 1731c0 48 14.5 87.998 43.5 119.998s64.833 48 107.5 48c40.667 0 75.167 -16 103.5 -48s42.5 -72 42.5 -120c0 -49.333 -14 -89.166 -42 -119.499s-62.667 -45.5 -104 -45.5
c-42.667 0 -78.5 15.333 -107.5 46s-43.5 70.334 -43.5 119.001zM459.001 1731c0 -27.333 7.5 -49.5 22.5 -66.5s33.833 -25.5 56.5 -25.5c21.333 0 39.166 8.5 53.499 25.5s21.5 39.167 21.5 66.5s-7.16699 49.833 -21.5 67.5s-32.166 26.5 -53.499 26.5
c-22.667 0 -41.5 -9 -56.5 -27s-22.5 -40.333 -22.5 -67z" />
    <glyph glyph-name="uring" unicode="&#x16f;" 
d="M680 161l-3 0.000976562c-26 -58 -60.667 -102.667 -104 -134s-95.333 -47 -156 -47c-92 0 -162.833 37.667 -212.5 113s-74.5 195.666 -74.5 360.999v628h118v-630c0 -134 15.5 -228.5 46.5 -283.5s77.5 -82.5 139.5 -82.5c65.333 0 117.5 18.167 156.5 54.5
s67.5 87.5 85.5 153.5v788h118v-1082h-105zM315 1388c0 48 14.5 87.998 43.5 119.998s64.833 48 107.5 48c40.667 0 75.167 -16 103.5 -48s42.5 -72 42.5 -120c0 -49.333 -14 -89.166 -42 -119.499s-62.667 -45.5 -104 -45.5c-42.667 0 -78.5 15.333 -107.5 46
s-43.5 70.334 -43.5 119.001zM387 1388c0 -27.333 7.5 -49.5 22.5 -66.5s33.833 -25.5 56.5 -25.5c21.333 0 39.166 8.5 53.499 25.5s21.5 39.167 21.5 66.5s-7.16699 49.833 -21.5 67.5s-32.166 26.5 -53.499 26.5c-22.667 0 -41.5 -9 -56.5 -27s-22.5 -40.333 -22.5 -67z
" />
    <glyph glyph-name="Uhungarumlaut" unicode="&#x170;" horiz-adv-x="1068" 
d="M937 1456l0.000976562 -1019c0 -151.333 -37 -265.5 -111 -342.5s-172.667 -115.5 -296 -115.5c-120.667 0 -217 38.5 -289 115.5s-108 191.167 -108 342.5v1019h116v-1019c0 -116.667 25.5 -204.834 76.5 -264.501s119.167 -89.5 204.5 -89.5
c89.333 0 160.166 28.667 212.499 86s78.5 146.666 78.5 267.999v1019h116zM768.001 1867h146l-237 -266h-113zM527.001 1867h135l-194 -266h-101z" />
    <glyph glyph-name="uhungarumlaut" unicode="&#x171;" 
d="M680 161l-3 0.000976562c-26 -58 -60.667 -102.667 -104 -134s-95.333 -47 -156 -47c-92 0 -162.833 37.667 -212.5 113s-74.5 195.666 -74.5 360.999v628h118v-630c0 -134 15.5 -228.5 46.5 -283.5s77.5 -82.5 139.5 -82.5c65.333 0 117.5 18.167 156.5 54.5
s67.5 87.5 85.5 153.5v788h118v-1082h-105zM696 1524h146l-237 -266h-113zM455 1524h135l-194 -266h-101z" />
    <glyph glyph-name="Uogonek" unicode="&#x172;" horiz-adv-x="1068" 
d="M937 1456l0.00195312 -1019c0 -104 -18 -190 -54 -258s-87 -119.333 -153 -154c-44 -42.667 -77.5 -81.334 -100.5 -116.001s-34.5 -73.334 -34.5 -116.001c0 -26 4.66699 -46.5 14 -61.5s26 -22.5 50 -22.5c16 0 30.333 3.16699 43 9.5s25 14.166 37 23.499l11 -86
c-15.333 -12.667 -32.333 -23.167 -51 -31.5s-41.334 -12.5 -68.001 -12.5c-42.667 0 -76.667 14.5 -102 43.5s-38 71.5 -38 127.5c0 34.667 7.16699 68.5 21.5 101.5s35.833 64.5 64.5 94.5l-1 2c-7.33301 0 -15 -0.333008 -23 -1s-15.667 -1 -23 -1
c-120.667 0 -217 38.5 -289 115.5s-108 191.167 -108 342.5v1019h116v-1019c0 -116.667 25.5 -204.834 76.5 -264.501s119.167 -89.5 204.5 -89.5c89.333 0 160.166 28.667 212.499 86s78.5 146.666 78.5 267.999v1019h116z" />
    <glyph glyph-name="uogonek" unicode="&#x173;" 
d="M680 161l-2.99902 0.00292969c-26 -58 -60.667 -102.667 -104 -134s-95.333 -47 -156 -47c-92 0 -162.833 37.667 -212.5 113s-74.5 195.666 -74.5 360.999v628h118v-630c0 -134 15.5 -228.5 46.5 -283.5s77.5 -82.5 139.5 -82.5c65.333 0 117.5 18.167 156.5 54.5
s67.5 87.5 85.5 153.5v788h118v-1082h-1c-44.667 -44 -78.5 -83.333 -101.5 -118s-34.5 -73 -34.5 -115c0 -26 4.66699 -46.5 14 -61.5s26 -22.5 50 -22.5c16 0 30.333 3.16699 43 9.5s25 14.166 37 23.499l11 -86c-15.333 -12.667 -32.333 -23.167 -51 -31.5
s-41.334 -12.5 -68.001 -12.5c-42.667 0 -76.667 14.5 -102 43.5s-38 71.5 -38 127.5c0 44 11.5 86.667 34.5 128s57.5 79.666 103.5 114.999h-2z" />
    <glyph glyph-name="Wcircumflex" unicode="&#x174;" horiz-adv-x="1397" 
d="M358 417l28 -197h3l37 197l219 1039h105l220 -1039l36 -200h3l30 200l173 1039h117l-264 -1456h-106l-234 1111l-25 134h-3l-24 -134l-237 -1111h-106l-264 1456h117zM924 1620v-19h-103l-125 166l-123 -166h-102v21l184 222h83z" />
    <glyph glyph-name="wcircumflex" unicode="&#x175;" horiz-adv-x="1240" 
d="M329 353l27 -169h3l33 169l176 729h98l175 -729l35 -178h3l32 178l145 729h119l-245 -1082h-98l-179 735l-36 176h-4l-36 -176l-175 -735h-98l-246 1082h119zM845 1277v-19h-103l-125 166l-123 -166h-102v21l184 222h83z" />
    <glyph glyph-name="Ycircumflex" unicode="&#x176;" horiz-adv-x="974" 
d="M487 689l315 767h135l-395 -924v-532h-115v542l-390 914h134zM714 1613v-19h-103l-125 166l-123 -166h-102v21l184 222h83z" />
    <glyph glyph-name="ycircumflex" unicode="&#x177;" horiz-adv-x="820" 
d="M380 298l26.999 -107.998h3l240 892h132l-363 -1255c-24 -74.667 -53.667 -137.334 -89 -188.001s-87.333 -76 -156 -76c-12 0 -26.167 1.66699 -42.5 5s-29.166 6.33301 -38.499 9l13 103c6.66699 -1.33301 17 -2.83301 31 -4.5s24.333 -2.5 31 -2.5
c38.667 0 67.5 14.667 86.5 44s40.167 80.666 63.5 153.999l43 145l-323 1066h131zM642.999 1277v-19h-103l-125 166l-123 -166h-102v21l184 222h83z" />
    <glyph glyph-name="Ydieresis" unicode="&#x178;" horiz-adv-x="974" 
d="M487 689l315 767h135l-395 -924v-532h-115v542l-390 914h134zM759 1631h-155v160h155v-160zM373 1631h-156v160h156v-160z" />
    <glyph glyph-name="Zacute" unicode="&#x179;" horiz-adv-x="951" 
d="M209 104h658v-104h-781v95l631 1256h-616v105h742v-90zM569 1823h152l-216 -266h-99z" />
    <glyph glyph-name="zacute" unicode="&#x17a;" horiz-adv-x="792" 
d="M212 104h516v-104h-645v90l482 885h-472v107h603v-91zM505 1480h152l-216 -266h-99z" />
    <glyph glyph-name="Zdotaccent" unicode="&#x17b;" horiz-adv-x="951" 
d="M209 104h658v-104h-781v95l631 1256h-616v105h742v-90zM543 1635h-139v170h139v-170z" />
    <glyph glyph-name="zdotaccent" unicode="&#x17c;" horiz-adv-x="792" 
d="M212 104h516v-104h-645v90l482 885h-472v107h603v-91zM479 1292h-139v170h139v-170z" />
    <glyph glyph-name="Zcaron" unicode="&#x17d;" horiz-adv-x="951" 
d="M209 104h658v-104h-781v95l631 1256h-616v105h742v-90zM472 1678l124 168h107v-17l-190 -226h-83l-188 226v17h105z" />
    <glyph glyph-name="zcaron" unicode="&#x17e;" horiz-adv-x="792" 
d="M212 104h516v-104h-645v90l482 885h-472v107h603v-91zM408 1335l124 168h107v-17l-190 -226h-83l-188 226v17h105z" />
    <glyph glyph-name="longs" unicode="&#x17f;" horiz-adv-x="407" 
d="M141 0v1238c0 111.333 22 196.333 66 255s106.333 88 187 88c18.667 0 37 -1.66699 55 -5s36 -8.33301 54 -15l-14 -98c-12 3.33301 -24 6.16602 -36 8.49902s-25.667 3.5 -41 3.5c-50 0 -88 -20.333 -114 -61s-39 -99.334 -39 -176.001v-1238h-118z" />
    <glyph glyph-name="florin" unicode="&#x192;" horiz-adv-x="561" 
d="M486 981l-176 -0.00195312v-1070c0 -113.333 -21.167 -199.666 -63.5 -258.999s-102.833 -89 -181.5 -89c-16.667 0 -31.5 1.5 -44.5 4.5s-26.833 7.83301 -41.5 14.5l12 102c6.66699 -3.33301 18 -6.66602 34 -9.99902s29.333 -5 40 -5c40.667 0 72 21 94 63
s33 101.667 33 179v1070h-137v101h137v156c0 111.333 21.833 196.333 65.5 255s106.167 88 187.5 88c18 0 35.833 -1.66699 53.5 -5s36.167 -8.33301 55.5 -15l-15 -101c-12 4 -24.333 7.16699 -37 9.5s-27 3.5 -43 3.5c-50.667 0 -88.167 -20 -112.5 -60
s-36.5 -98.333 -36.5 -175v-156h176v-101z" />
    <glyph glyph-name="Ohorn" unicode="&#x1a0;" horiz-adv-x="1137" 
d="M991 523c0 -179.333 -38.501 -314.834 -115.501 -406.501s-184.167 -137.5 -321.5 -137.5c-134.667 0 -239.5 46 -314.5 138s-112.5 227.333 -112.5 406v408c0 178.667 37.5 314.334 112.5 407.001s179.833 139 314.5 139c78.667 0 147.5 -16 206.5 -48
s107.833 -79.667 146.5 -143c46.667 11.333 79.834 39.833 99.501 85.5s29.5 110.834 29.5 195.501h106c0 -106 -15.5 -189.5 -46.5 -250.5s-79.5 -100.833 -145.5 -119.5c13.333 -38.667 23.5 -79.834 30.5 -123.501s10.5 -91.167 10.5 -142.5v-408zM872.999 933.999
c0 146 -27.167 254.833 -81.5 326.5s-133.5 107.5 -237.5 107.5c-100.667 0 -177.167 -35.833 -229.5 -107.5s-78.5 -180.5 -78.5 -326.5v-411c0 -147.333 26.167 -257 78.5 -329s128.833 -108 229.5 -108c104 0 183.167 35.833 237.5 107.5s81.5 181.5 81.5 329.5v411z" />
    <glyph glyph-name="ohorn" unicode="&#x1a1;" horiz-adv-x="933" 
d="M87 620c0 142.667 33.498 258.665 100.498 347.998s158.5 134 274.5 134c58.667 0 111.167 -12.167 157.5 -36.5s86.833 -59.5 121.5 -105.5c44.667 6.66699 74.334 28.834 89.001 66.501s22 94.834 22 171.501h98c0 -92.667 -12.5 -165 -37.5 -217
s-66.833 -85.667 -125.5 -101c16.667 -38.667 29.334 -79.5 38.001 -122.5s13 -88.833 13 -137.5v-159c0 -144.667 -33.333 -261 -100 -349s-158 -132 -274 -132c-117.333 0 -209.5 44 -276.5 132s-100.5 204.333 -100.5 349v159zM204.998 460.998
c0 -110 22 -200.499 66 -271.499s108.333 -106.5 193 -106.5c82.667 0 146.167 35.667 190.5 107s66.5 161.666 66.5 270.999v159c0 108 -22.167 197.667 -66.5 269s-108.5 107 -192.5 107s-147.833 -35.667 -191.5 -107s-65.5 -161 -65.5 -269v-159z" />
    <glyph glyph-name="Uhorn" unicode="&#x1af;" horiz-adv-x="1129" 
d="M937 1456l0.000976562 -210c68 4.66699 114.833 31.334 140.5 80.001s38.5 123.334 38.5 224.001h107c0 -130.667 -22.333 -229 -67 -295s-117.667 -101.333 -219 -106v-712c0 -151.333 -37 -265.5 -111 -342.5s-172.667 -115.5 -296 -115.5
c-120.667 0 -217 38.5 -289 115.5s-108 191.167 -108 342.5v1019h116v-1019c0 -116.667 25.5 -204.834 76.5 -264.501s119.167 -89.5 204.5 -89.5c89.333 0 160.166 28.667 212.499 86s78.5 146.666 78.5 267.999v1019h116z" />
    <glyph glyph-name="uhorn" unicode="&#x1b0;" horiz-adv-x="991" 
d="M1005 1179c0 -103.333 -15.333 -179.999 -46 -229.999s-85.667 -78 -165 -84v-865h-105l-9 161h-3c-26 -58 -60.667 -102.667 -104 -134s-95.333 -47 -156 -47c-92 0 -162.833 37.667 -212.5 113s-74.5 195.666 -74.5 360.999v628h118v-630
c0 -134 15.5 -228.5 46.5 -283.5s77.5 -82.5 139.5 -82.5c65.333 0 117.5 18.167 156.5 54.5s67.5 87.5 85.5 153.5v788h118v-136c52 6 85.5 26.167 100.5 60.5s22.5 91.833 22.5 172.5h88z" />
    <glyph glyph-name="uni01F0" unicode="&#x1f0;" horiz-adv-x="410" 
d="M269 1082v-1171c0 -113.333 -21.167 -199.666 -63.5 -258.999s-102.5 -89 -180.5 -89c-16 0 -30.5 1.5 -43.5 4.5s-27.167 7.83301 -42.5 14.5l10 102c8 -3.33301 20 -6.66602 36 -9.99902s29.333 -5 40 -5c40 0 71 21 93 63s33 101.667 33 179v1171h118zM210 1316
l124 168h107v-17l-190 -226h-83l-188 226v17h105z" />
    <glyph glyph-name="Aringacute" unicode="&#x1fa;" horiz-adv-x="1059" 
d="M777 409h-495l-118 -409h-122l437 1456h106l431 -1456h-122zM313 514h434l-215 748h-3zM622 1936h125l-165 -187h-79zM405 1543c0 44 12.167 80.833 36.5 110.5s54.5 44.5 90.5 44.5c35.333 0 64.833 -14.667 88.5 -44s35.5 -66.333 35.5 -111s-11.833 -81 -35.5 -109
s-53.167 -42 -88.5 -42c-36 0 -66.167 14.167 -90.5 42.5s-36.5 64.5 -36.5 108.5zM463 1543c0 -24.667 6.66699 -45.167 20 -61.5s29.666 -24.5 48.999 -24.5c18.667 0 34.334 8 47.001 24s19 36.667 19 62c0 26 -6.33301 47.5 -19 64.5s-28.334 25.5 -47.001 25.5
c-19.333 0 -35.666 -8.5 -48.999 -25.5s-20 -38.5 -20 -64.5z" />
    <glyph glyph-name="aringacute" unicode="&#x1fb;" horiz-adv-x="896" 
d="M662 0c-6.66699 43.333 -11.168 74.832 -13.501 94.499s-3.5 40.5 -3.5 62.5l-3 1c-30 -52 -69 -94.667 -117 -128s-102 -50 -162 -50c-86.667 0 -152.5 27.333 -197.5 82s-67.5 130 -67.5 226c0 102.667 32.833 183.334 98.5 242.001s156.5 88 272.5 88h176v133
c0 78 -17.667 138.333 -53 181s-85.666 64 -150.999 64c-61.333 0 -111 -20.333 -149 -61s-57 -91.667 -57 -153l-118 1c0 86 30.5 160.667 91.5 224s140.5 95 238.5 95c96 0 172.667 -29.833 230 -89.5s86 -147.5 86 -263.5v-531c0 -38.667 1.5 -75.667 4.5 -111
s8.5 -71 16.5 -107h-122zM378.999 87.999c62.667 0 117.5 18.5 164.5 55.5s80.833 85.833 101.5 146.5v235h-179c-78 0 -139.167 -22.833 -183.5 -68.5s-66.5 -103.167 -66.5 -172.5c0 -59.333 14 -106.833 42 -142.5s68.333 -53.5 121 -53.5zM533.999 1615h125l-165 -187
h-79zM316.999 1222c0 44 12.167 80.833 36.5 110.5s54.5 44.5 90.5 44.5c35.333 0 64.833 -14.667 88.5 -44s35.5 -66.333 35.5 -111s-11.833 -81 -35.5 -109s-53.167 -42 -88.5 -42c-36 0 -66.167 14.167 -90.5 42.5s-36.5 64.5 -36.5 108.5zM374.999 1222
c0 -24.667 6.66699 -45.167 20 -61.5s29.666 -24.5 48.999 -24.5c18.667 0 34.334 8 47.001 24s19 36.667 19 62c0 26 -6.33301 47.5 -19 64.5s-28.334 25.5 -47.001 25.5c-19.333 0 -35.666 -8.5 -48.999 -25.5s-20 -38.5 -20 -64.5z" />
    <glyph glyph-name="AEacute" unicode="&#x1fc;" horiz-adv-x="1504" 
d="M1460 0h-663l-13 387h-448l-177 -387h-144l689 1456h708v-106h-543l18 -540h461v-104h-457l19 -602h550v-104zM389 503h391l-26 800l-1 -5zM851 1823h152l-216 -266h-99z" />
    <glyph glyph-name="aeacute" unicode="&#x1fd;" horiz-adv-x="1381" 
d="M1002 -21c-73.333 0 -136.499 17.334 -189.499 52.001s-96.167 85 -129.5 151c-28.667 -57.333 -71.167 -105.5 -127.5 -144.5s-126.166 -58.5 -209.499 -58.5c-90.667 0 -159.834 27.667 -207.501 83s-71.5 132.666 -71.5 231.999c0 106.667 29.333 189.667 88 249
s145 89 259 89h195v88c0 89.333 -14.833 157.666 -44.5 204.999s-74.834 71 -135.501 71c-66 0 -117 -21.667 -153 -65s-54 -99 -54 -167l-117 14c0 96.667 29 174.834 87 234.501s137 89.5 237 89.5c64 0 118.5 -15.667 163.5 -47s79.5 -78 103.5 -140
c33.333 60 73.5 106.167 120.5 138.5s99.5 48.5 157.5 48.5c109.333 0 192.833 -40.667 250.5 -122s86.5 -196 86.5 -344v-101h-578v-25c0 -130 21.667 -233.667 65 -311s111.333 -116 204 -116c55.333 0 102.666 10.5 141.999 31.5s75.333 49.833 108 86.5l44 -90
c-28 -36 -65.667 -67 -113 -93s-107.666 -39 -180.999 -39zM366.001 82.001c48 0 95.168 16 141.501 48s80.166 68 101.499 108v295h-193c-74.667 0 -131.667 -23 -171 -69s-59 -104 -59 -174c0 -65.333 15 -116.333 45 -153s75 -55 135 -55zM974.002 996.001
c-68.667 0 -123.666 -33 -164.999 -99s-66 -153 -74 -261h458v31c0 98.667 -17.833 178.167 -53.5 238.5s-90.834 90.5 -165.501 90.5zM781.003 1502h152l-216 -266h-99z" />
    <glyph glyph-name="Oslashacute" unicode="&#x1fe;" horiz-adv-x="1112" 
d="M985 523c0 -179.333 -38.501 -314.836 -115.501 -406.503s-184.167 -137.5 -321.5 -137.5c-49.333 0 -94.166 6.16699 -134.499 18.5s-77.5 31.5 -111.5 57.5l-67 -140h-96l97 204c-38 46.667 -66.667 103.334 -86 170.001s-29 144.667 -29 234v408
c0 178.667 37.5 314.334 112.5 407.001s179.833 139 314.5 139c58 0 110.5 -8.83301 157.5 -26.5s89.5 -44.167 127.5 -79.5l64 135h96l-99 -208c30 -47.333 52.667 -101.166 68 -161.499s23 -128.833 23 -205.5v-408zM239.999 522.997
c0 -61.333 4.33203 -115.168 12.999 -161.501s22.334 -87.166 41.001 -122.499l487 1023c-28 36 -61.167 62.667 -99.5 80s-82.833 26 -133.5 26c-100.667 0 -177.167 -35.833 -229.5 -107.5s-78.5 -180.5 -78.5 -326.5v-411zM866.998 933.995
c0 46.667 -2.99805 89.167 -8.99805 127.5s-14.667 73.833 -26 106.5l-481 -1009c25.333 -25.333 54.166 -43.833 86.499 -55.5s69.166 -17.5 110.499 -17.5c104 0 183.167 35.833 237.5 107.5s81.5 181.5 81.5 329.5v411zM660 1885h152l-216 -266h-99z" />
    <glyph glyph-name="oslashacute" unicode="&#x1ff;" horiz-adv-x="928" 
d="M87 620c0 142.667 33.501 258.664 100.501 347.997s158.5 134 274.5 134c30.667 0 59.667 -3.66699 87 -11s54 -17.666 80 -30.999l59 154h84l-77 -202c46.667 -44 82.167 -99.167 106.5 -165.5s36.5 -141.833 36.5 -226.5v-159c0 -144.667 -33.333 -261 -100 -349
s-158 -132 -274 -132c-28.667 0 -55.334 2.83301 -80.001 8.5s-48.667 13.834 -72 24.501l-58 -153h-84l75 196c-52 42.667 -91.333 98.334 -118 167.001s-40 148 -40 238v159zM205.001 460.997c0 -60.667 6.83301 -115.832 20.5 -165.499s34.5 -91.834 62.5 -126.501
l301 787c-18.667 12.667 -38.5 22.5 -59.5 29.5s-43.5 10.5 -67.5 10.5c-84 0 -147.833 -35.667 -191.5 -107s-65.5 -161 -65.5 -269v-159zM721.001 619.999c0 54 -6.00098 104.17 -18.001 150.503s-30 87.166 -54 122.499l-299 -780
c16.667 -10.667 34.334 -18.334 53.001 -23.001s39 -7 61 -7c82.667 0 146.167 35.667 190.5 107s66.5 161.666 66.5 270.999v159zM525 1500h152l-216 -266h-99z" />
    <glyph glyph-name="uni0218" unicode="&#x218;" horiz-adv-x="997" 
d="M797 357c0 80.667 -21.0049 145.332 -63.0049 193.999s-118.667 92.334 -230 131.001c-128 41.333 -223.667 93.5 -287 156.5s-95 149.5 -95 259.5c0 114 35.5 205.667 106.5 275s164.833 104 281.5 104c122.667 0 220 -41.333 292 -124s108 -186.667 108 -312h-118
c0 98.667 -24.667 178.334 -74 239.001s-118.666 91 -207.999 91c-87.333 0 -154.166 -25.333 -200.499 -76s-69.5 -115.334 -69.5 -194.001c0 -73.333 22.5 -134 67.5 -182s123.167 -90.667 234.5 -128c124.667 -40.667 217.834 -94.334 279.501 -161.001
s92.5 -157 92.5 -271c0 -119.333 -36.5 -212.5 -109.5 -279.5s-169.5 -100.5 -289.5 -100.5c-117.333 0 -218.333 36.333 -303 109s-127 181.334 -127 326.001h118c0 -115.333 29.833 -199.333 89.5 -252s133.834 -79 222.501 -79c86.667 0 155.334 24.667 206.001 74
s76 116 76 200zM549.995 -231.002c0 -55.333 -8.66699 -108.667 -26 -160s-42.333 -95 -75 -131l-68 53c19.333 38.667 33.5 76 42.5 112s13.5 77.333 13.5 124v105h113v-103z" />
    <glyph glyph-name="uni0219" unicode="&#x219;" horiz-adv-x="829" 
d="M623 259c0 50 -14.667 92.499 -44 127.499s-85 72.5 -167 112.5c-106 46.667 -182.667 92.834 -230 138.501s-71 107.167 -71 184.5c0 79.333 28.333 145.833 85 199.5s132 80.5 226 80.5c98.667 0 176 -30 232 -90s84 -138 84 -234h-117
c0 59.333 -17.833 110.5 -53.5 153.5s-84.167 64.5 -145.5 64.5c-64.667 0 -113 -16.667 -145 -50s-48 -73.333 -48 -120c0 -48.667 12.667 -87.167 38 -115.5s81.333 -64.833 168 -109.5c104.667 -44 181.667 -91 231 -141s74 -114.667 74 -194
c0 -87.333 -28.667 -156.833 -86 -208.5s-134.666 -77.5 -231.999 -77.5c-108 0 -191.5 31 -250.5 93s-88.5 139 -88.5 231h117c3.33301 -79.333 26.333 -136 69 -170s93.667 -51 153 -51c63.333 0 112.666 16.833 147.999 50.5s53 75.5 53 125.5zM480 -228.001
c0 -55.333 -8.66699 -108.667 -26 -160s-42.333 -95 -75 -131l-68 53c19.333 38.667 33.5 76 42.5 112s13.5 77.333 13.5 124v105h113v-103z" />
    <glyph glyph-name="uni021A" unicode="&#x21a;" horiz-adv-x="949" 
d="M892 1350h-360v-1350h-116v1350h-358v106h834v-106zM530 -217c0 -55.333 -8.66699 -108.667 -26 -160s-42.333 -95 -75 -131l-68 53c19.333 38.667 33.5 76 42.5 112s13.5 77.333 13.5 124v105h113v-103z" />
    <glyph glyph-name="uni021B" unicode="&#x21b;" horiz-adv-x="536" 
d="M287 1358l-0.000976562 -276.001h170v-101h-170v-702c0 -71.333 8.33301 -121.166 25 -149.499s38.667 -42.5 66 -42.5c13.333 0 26.333 1 39 3s25.334 4.66699 38.001 8l17 -93c-14 -7.33301 -31.667 -13.333 -53 -18s-43.333 -7 -66 -7c-58.667 0 -104 23.333 -136 70
s-48 123 -48 229v702h-132v101h132v276h118zM399.999 -221.001c0 -55.333 -8.66699 -108.667 -26 -160s-42.333 -95 -75 -131l-68 53c19.333 38.667 33.5 76 42.5 112s13.5 77.333 13.5 124v105h113v-103z" />
    <glyph glyph-name="uni0237" unicode="&#x237;" horiz-adv-x="410" 
d="M269 1082v-1171c0 -113.333 -21.167 -199.666 -63.5 -258.999s-102.5 -89 -180.5 -89c-16 0 -30.5 1.5 -43.5 4.5s-27.167 7.83301 -42.5 14.5l10 102c8 -3.33301 20 -6.66602 36 -9.99902s29.333 -5 40 -5c40 0 71 21 93 63s33 101.667 33 179v1171h118z" />
    <glyph glyph-name="schwa" unicode="&#x259;" horiz-adv-x="862" 
d="M411 1102c112 0 202.5 -49.167 271.5 -147.5s103.5 -226.166 103.5 -383.499v-54c0 -158 -34.833 -287 -104.5 -387s-154.5 -149.667 -254.5 -149c-111.333 0 -195.666 40.5 -252.999 121.5s-86 194.167 -86 339.5v103h581v26c0 124 -23 226.167 -69 306.5
s-109 120.5 -189 120.5c-58 0 -106.833 -10.333 -146.5 -31s-73.834 -50.334 -102.501 -89.001l-48 86c30 42 69 75.5 117 100.5s108 37.5 180 37.5zM427 84c63.333 0 116.333 33 159 99s69 152 79 258h-459v-29c0 -97.333 18.833 -176.333 56.5 -237s92.5 -91 164.5 -91z
" />
    <glyph glyph-name="uni02BC" unicode="&#x2bc;" horiz-adv-x="329" 
d="M247 1384c0 -64 -10.667 -125.168 -32 -183.501s-51.333 -108.166 -90 -149.499l-69 53c25.333 44.667 44 88.5 56 131.5s18 91.833 18 146.5v178h117v-176z" />
    <glyph glyph-name="circumflex" unicode="&#x2c6;" horiz-adv-x="747" 
d="M595 1271v-19h-103l-125 166l-123 -166h-102v21l184 222h83z" />
    <glyph glyph-name="caron" unicode="&#x2c7;" horiz-adv-x="708" 
d="M351 1327l124 168h107v-17l-190 -226h-83l-188 226v17h105z" />
    <glyph glyph-name="breve" unicode="&#x2d8;" horiz-adv-x="741" 
d="M605 1456c0 -79.333 -21.332 -142.334 -63.999 -189.001s-101.334 -70 -176.001 -70c-75.333 0 -134.333 23.333 -177 70s-64 109.667 -64 189h100c0 -52 11 -93.5 33 -124.5s58 -46.5 108 -46.5c48 0 83.5 15.833 106.5 47.5s34.5 72.834 34.5 123.501h99z" />
    <glyph glyph-name="dotaccent" unicode="&#x2d9;" horiz-adv-x="429" 
d="M277 1286h-139v170h139v-170z" />
    <glyph glyph-name="ring" unicode="&#x2da;" horiz-adv-x="588" 
d="M143 1323c0 48 14.5 87.998 43.5 119.998s64.833 48 107.5 48c40.667 0 75.167 -16 103.5 -48s42.5 -72 42.5 -120c0 -49.333 -14 -89.166 -42 -119.499s-62.667 -45.5 -104 -45.5c-42.667 0 -78.5 15.333 -107.5 46s-43.5 70.334 -43.5 119.001zM215 1323
c0 -27.333 7.5 -49.5 22.5 -66.5s33.833 -25.5 56.5 -25.5c21.333 0 39.166 8.5 53.499 25.5s21.5 39.167 21.5 66.5s-7.16699 49.833 -21.5 67.5s-32.166 26.5 -53.499 26.5c-22.667 0 -41.5 -9 -56.5 -27s-22.5 -40.333 -22.5 -67z" />
    <glyph glyph-name="ogonek" unicode="&#x2db;" horiz-adv-x="443" 
d="M297 0c-44.667 -44 -78.5 -83.332 -101.5 -117.999s-34.5 -73 -34.5 -115c0 -26 4.66699 -46.5 14 -61.5s26 -22.5 50 -22.5c16 0 30.333 3.16699 43 9.5s25 14.166 37 23.499l11 -86c-15.333 -12.667 -32.333 -23.167 -51 -31.5s-41.334 -12.5 -68.001 -12.5
c-42.667 0 -76.667 14.5 -102 43.5s-38 71.5 -38 127.5c0 52 16.333 102.167 49 150.5s80.334 91.833 143.001 130.5z" />
    <glyph glyph-name="tilde" unicode="&#x2dc;" horiz-adv-x="752" 
d="M633 1481c0 -60 -14.668 -109.166 -44.001 -147.499s-66.666 -57.5 -111.999 -57.5c-38 0 -76.833 18.167 -116.5 54.5s-73.5 54.5 -101.5 54.5c-24.667 0 -44.834 -11.333 -60.501 -34s-23.5 -52.334 -23.5 -89.001l-71 18c0 59.333 14.167 108.333 42.5 147
s65.833 58 112.5 58c32.667 0 70.334 -18.333 113.001 -55s77.667 -55 105 -55c24 0 44 11.833 60 35.5s24 54.167 24 91.5z" />
    <glyph glyph-name="hungarumlaut" unicode="&#x2dd;" horiz-adv-x="628" 
d="M506 1518h146l-237 -266h-113zM265 1518h135l-194 -266h-101z" />
    <glyph glyph-name="uni02F3" unicode="&#x2f3;" horiz-adv-x="545" 
d="M157 -226c0 38.667 11.333 70.834 34 96.501s50.667 38.5 84 38.5c31.333 0 58 -12.833 80 -38.5s33 -57.834 33 -96.501c0 -38 -10.833 -69.167 -32.5 -93.5s-48.5 -36.5 -80.5 -36.5c-33.333 0 -61.333 12.167 -84 36.5s-34 55.5 -34 93.5zM219 -226
c0 -17.333 5.33301 -32 16 -44s24 -18 40 -18c14.667 0 27 5.83301 37 17.5s15 26.5 15 44.5c0 19.333 -5 35 -15 47s-22.333 18 -37 18c-16 0 -29.333 -6.16699 -40 -18.5s-16 -27.833 -16 -46.5z" />
    <glyph glyph-name="gravecomb" unicode="&#x300;" horiz-adv-x="27" 
d="M-375 1213h-85l-135 320h118z" />
    <glyph glyph-name="acutecomb" unicode="&#x301;" horiz-adv-x="27" 
d="M-371 1534h113l-140 -319h-78z" />
    <glyph glyph-name="tildecomb" unicode="&#x303;" horiz-adv-x="28" 
d="M-132 1481c0 -60 -14.668 -109.166 -44.001 -147.499s-66.666 -57.5 -111.999 -57.5c-38 0 -76.833 18.167 -116.5 54.5s-73.5 54.5 -101.5 54.5c-24.667 0 -44.834 -11.333 -60.501 -34s-23.5 -52.334 -23.5 -89.001l-71 18c0 59.333 14.167 108.333 42.5 147
s65.833 58 112.5 58c32.667 0 70.334 -18.333 113.001 -55s77.667 -55 105 -55c24 0 44 11.833 60 35.5s24 54.167 24 91.5z" />
    <glyph glyph-name="hook" unicode="&#x309;" horiz-adv-x="27" 
d="M-485 1234l0.00292969 126.001c45.333 4.66699 77.166 13.667 95.499 27s27.5 35.666 27.5 66.999c0 32.667 -13.333 56.334 -40 71.001s-61.334 22 -104.001 22l5 79c75.333 0 133 -15.333 173 -46s60 -73.334 60 -128.001c0 -49.333 -11.833 -86.333 -35.5 -111
s-54.834 -39.667 -93.501 -45l-1 -62h-87z" />
    <glyph glyph-name="uni030F" unicode="&#x30f;" horiz-adv-x="27" 
d="M-403 1252h-112l-238 266h146zM-206 1252h-100l-194 266h134z" />
    <glyph glyph-name="dotbelow" unicode="&#x323;" horiz-adv-x="27" 
d="M-379 -316h-139v170h139v-170z" />
    <glyph glyph-name="tonos" unicode="&#x384;" horiz-adv-x="436" 
d="M221 1618h135l-129 -331h-62z" />
    <glyph glyph-name="dieresistonos" unicode="&#x385;" horiz-adv-x="815" 
d="M668 1301h-137v155h137v-155zM277 1301h-137v155h137v-155zM387 1664h150l-97 -252h-86z" />
    <glyph glyph-name="Alphatonos" unicode="&#x386;" horiz-adv-x="1059" 
d="M777 409h-495l-118 -409h-122l437 1456h106l431 -1456h-122zM313 514h434l-215 748h-3zM247 1618h135l-129 -331h-62z" />
    <glyph glyph-name="anoteleia" unicode="&#x387;" horiz-adv-x="433" 
d="M277 624h-135v181h135v-181z" />
    <glyph glyph-name="Epsilontonos" unicode="&#x388;" horiz-adv-x="1055" 
d="M914 703h-537v-599h618v-104h-736v1456h730v-106h-612v-543h537v-104zM77 1620h135l-129 -331h-62z" />
    <glyph glyph-name="Etatonos" unicode="&#x389;" horiz-adv-x="1264" 
d="M1104 0h-118v669h-609v-669h-118v1456h118v-683h609v683h118v-1456zM106 1620h135l-129 -331h-62z" />
    <glyph glyph-name="Iotatonos" unicode="&#x38a;" horiz-adv-x="568" 
d="M393 0h-118v1456h118v-1456zM115 1617h135l-129 -331h-62z" />
    <glyph glyph-name="Omicrontonos" unicode="&#x38c;" horiz-adv-x="1145" 
d="M1014 523c0 -179.333 -38.5 -314.834 -115.5 -406.501s-184.167 -137.5 -321.5 -137.5c-134.667 0 -239.5 46 -314.5 138s-112.5 227.333 -112.5 406v408c0 178.667 37.5 314.334 112.5 407.001s179.833 139 314.5 139c136.667 0 243.667 -46.5 321 -139.5
s116 -228.5 116 -406.5v-408zM896 933.999c0 146 -27.167 254.833 -81.5 326.5s-133.5 107.5 -237.5 107.5c-100.667 0 -177.167 -35.833 -229.5 -107.5s-78.5 -180.5 -78.5 -326.5v-411c0 -147.333 26.167 -257 78.5 -329s128.833 -108 229.5 -108
c104 0 183.167 35.833 237.5 107.5s81.5 181.5 81.5 329.5v411zM132 1618h135l-129 -331h-62z" />
    <glyph glyph-name="Upsilontonos" unicode="&#x38e;" horiz-adv-x="1074" 
d="M587 689l315 767h135l-395 -924v-532h-115v542l-390 914h134zM8 1618h135l-129 -331h-62z" />
    <glyph glyph-name="Omegatonos" unicode="&#x38f;" horiz-adv-x="1104" 
d="M615 118c76.667 31.333 137.17 95.833 181.503 193.5s66.5 236.167 66.5 415.5v118c0 162.667 -27.5 291 -82.5 385s-130.5 141 -226.5 141c-96.667 0 -172.334 -47 -227.001 -141s-82 -222.333 -82 -385v-118c0 -179.333 22.833 -317.833 68.5 -415.5
s107.5 -162.167 185.5 -193.5v-118h-372v104h231c-72 60.667 -128.333 144.167 -169 250.5s-61 230.5 -61 372.5v116c0 192.667 38.667 346.5 116 461.5s180.666 172.5 309.999 172.5c128.667 0 232 -57.5 310 -172.5s117 -268.833 117 -461.5v-116
c0 -142 -20.333 -266.167 -61 -372.5s-96.334 -189.833 -167.001 -250.5h234v-104h-372v118zM131.003 1618h135l-129 -331h-62z" />
    <glyph glyph-name="iotadieresistonos" unicode="&#x390;" horiz-adv-x="525" 
d="M279 1081v-807.999c0 -70.667 8.5 -119.5 25.5 -146.5s41.167 -40.5 72.5 -40.5c14 0 27 1.5 39 4.5s24 7.16699 36 12.5l27 -91c-20.667 -12.667 -41.167 -21.334 -61.5 -26.001s-42.5 -7 -66.5 -7c-65.333 0 -113.5 23 -144.5 69s-46.5 123 -46.5 231v802h119z
M488 1228h-137v155h137v-155zM97 1228h-137v155h137v-155zM207 1591h150l-97 -252h-86z" />
    <glyph glyph-name="Alpha" unicode="&#x391;" horiz-adv-x="1059" 
d="M777 409h-495l-118 -409h-122l437 1456h106l431 -1456h-122zM313 514h434l-215 748h-3z" />
    <glyph glyph-name="Beta" unicode="&#x392;" horiz-adv-x="1033" 
d="M159 0l0.00292969 1456h349c120.667 0 213.667 -31.333 279 -94s98 -159.334 98 -290.001c0 -74.667 -16.833 -139 -50.5 -193s-78.834 -91.667 -135.501 -113v-3c71.333 -14.667 128.166 -55.167 170.499 -121.5s63.5 -145.166 63.5 -236.499
c0 -133.333 -32.833 -234.166 -98.5 -302.499s-155.834 -102.5 -270.501 -102.5h-405zM277.003 700.999v-597h287c79.333 0 140.833 25.667 184.5 77s65.5 125.333 65.5 222c0 89.333 -19.333 161.333 -58 216s-96.667 82 -174 82h-305zM277.003 803.999h267
c70.667 2 125.5 25.667 164.5 71s58.5 112.333 58.5 201c0 92.667 -21.667 161.5 -65 206.5s-108 67.5 -194 67.5h-231v-546z" />
    <glyph glyph-name="Gamma" unicode="&#x393;" horiz-adv-x="914" 
d="M849 1350h-574v-1350h-118v1456h692v-106z" />
    <glyph glyph-name="Delta" unicode="&#x394;" horiz-adv-x="1149" 
d="M632 1456l461 -1456h-1049l482 1456h106zM198 104h741l-360 1165h-3z" />
    <glyph glyph-name="Delta" unicode="&#x2206;" horiz-adv-x="1149" 
d="M632 1456l461 -1456h-1049l482 1456h106zM198 104h741l-360 1165h-3z" />
    <glyph glyph-name="Epsilon" unicode="&#x395;" horiz-adv-x="955" 
d="M814 703h-537v-599h618v-104h-736v1456h730v-106h-612v-543h537v-104z" />
    <glyph glyph-name="Zeta" unicode="&#x396;" horiz-adv-x="951" 
d="M209 104h658v-104h-781v95l631 1256h-616v105h742v-90z" />
    <glyph glyph-name="Eta" unicode="&#x397;" horiz-adv-x="1164" 
d="M1004 0h-118v669h-609v-669h-118v1456h118v-683h609v683h118v-1456z" />
    <glyph glyph-name="Theta" unicode="&#x398;" horiz-adv-x="1112" 
d="M767 675h-419v104h419v-104zM985 523c0 -179.333 -38.5 -314.834 -115.5 -406.501s-184.167 -137.5 -321.5 -137.5c-134.667 0 -239.5 46 -314.5 138s-112.5 227.333 -112.5 406v408c0 178.667 37.5 314.334 112.5 407.001s179.833 139 314.5 139
c136.667 0 243.667 -46.5 321 -139.5s116 -228.5 116 -406.5v-408zM867 933.999c0 146 -27.167 254.833 -81.5 326.5s-133.5 107.5 -237.5 107.5c-100.667 0 -177.167 -35.833 -229.5 -107.5s-78.5 -180.5 -78.5 -326.5v-411c0 -147.333 26.167 -257 78.5 -329
s128.833 -108 229.5 -108c104 0 183.167 35.833 237.5 107.5s81.5 181.5 81.5 329.5v411z" />
    <glyph glyph-name="Iota" unicode="&#x399;" horiz-adv-x="468" 
d="M293 0h-118v1456h118v-1456z" />
    <glyph glyph-name="Kappa" unicode="&#x39a;" horiz-adv-x="1054" 
d="M422 683h-145v-683h-118v1456h118v-669h140l433 669h137l-471 -714l504 -742h-146z" />
    <glyph glyph-name="Lambda" unicode="&#x39b;" horiz-adv-x="1071" 
d="M534 1242h-3l-349 -1242h-120l417 1456h107l417 -1456h-120z" />
    <glyph glyph-name="Mu" unicode="&#x39c;" horiz-adv-x="1374" 
d="M304 1456l380 -1279h4l380 1279h152v-1456h-117v639l12 597l-3 1l-387 -1237h-78l-386 1237l-3 -1l12 -597v-639h-116v1456h150z" />
    <glyph glyph-name="Nu" unicode="&#x39d;" horiz-adv-x="1167" 
d="M1007 0h-118l-608 1218l-3 -1v-1217h-119v1456h119l608 -1218l3 1v1217h118v-1456z" />
    <glyph glyph-name="Xi" unicode="&#x39e;" horiz-adv-x="932" 
d="M107 104h724v-104h-724v104zM178 786h575v-104h-575v104zM113 1456h702v-105h-702v105z" />
    <glyph glyph-name="Omicron" unicode="&#x39f;" horiz-adv-x="1125" 
d="M994 523c0 -179.333 -38.5 -314.834 -115.5 -406.501s-184.167 -137.5 -321.5 -137.5c-134.667 0 -239.5 46 -314.5 138s-112.5 227.333 -112.5 406v408c0 178.667 37.5 314.334 112.5 407.001s179.833 139 314.5 139c136.667 0 243.667 -46.5 321 -139.5
s116 -228.5 116 -406.5v-408zM876 933.999c0 146 -27.167 254.833 -81.5 326.5s-133.5 107.5 -237.5 107.5c-100.667 0 -177.167 -35.833 -229.5 -107.5s-78.5 -180.5 -78.5 -326.5v-411c0 -147.333 26.167 -257 78.5 -329s128.833 -108 229.5 -108
c104 0 183.167 35.833 237.5 107.5s81.5 181.5 81.5 329.5v411z" />
    <glyph glyph-name="Pi" unicode="&#x3a0;" horiz-adv-x="1165" 
d="M1005 0h-118v1350h-610v-1350h-118v1456h846v-1456z" />
    <glyph glyph-name="Rho" unicode="&#x3a1;" horiz-adv-x="1032" 
d="M277 603v-602.999h-118v1456h410c122.667 0 216.5 -38.333 281.5 -115s97.5 -180.334 97.5 -311.001c0 -132 -32.5 -236.167 -97.5 -312.5s-158.833 -114.5 -281.5 -114.5h-292zM277 708.001h291.998c88.667 0 154.334 30 197.001 90s64 136.667 64 230
c0 94.667 -21.167 172 -63.5 232s-108.166 90 -197.499 90h-292v-642z" />
    <glyph glyph-name="Sigma" unicode="&#x3a3;" horiz-adv-x="932" 
d="M581 741l-384 -637h661v-104h-793v95l392 662l-392 603v96h753v-105h-614l377 -575v-35z" />
    <glyph glyph-name="Tau" unicode="&#x3a4;" horiz-adv-x="949" 
d="M892 1350h-360v-1350h-116v1350h-358v106h834v-106z" />
    <glyph glyph-name="Upsilon" unicode="&#x3a5;" horiz-adv-x="974" 
d="M487 689l315 767h135l-395 -924v-532h-115v542l-390 914h134z" />
    <glyph glyph-name="Phi" unicode="&#x3a6;" horiz-adv-x="1173" 
d="M645 1268l3 0.000976562c131.333 0 238.5 -50.333 321.5 -151s124.5 -229.334 124.5 -386.001c0 -158 -41.5 -287.5 -124.5 -388.5s-190.167 -151.5 -321.5 -151.5h-3v-191h-118v191h-3c-132 0 -239.167 50.167 -321.5 150.5s-123.5 229.5 -123.5 387.5
c0 157.333 41.167 286.5 123.5 387.5s189.5 151.5 321.5 151.5h3v188h118v-188zM524 1163c-104.667 0 -185.5 -39.5 -242.5 -118.5s-85.5 -184.167 -85.5 -315.5c0 -132.667 28.5 -238 85.5 -316s137.833 -117 242.5 -117h3v867h-3zM645 1163v-867.002h4
c103.333 0 183.666 39.333 240.999 118s86 184.334 86 317.001c0 130.667 -28.667 235.334 -86 314.001s-137.666 118 -240.999 118h-4z" />
    <glyph glyph-name="Chi" unicode="&#x3a7;" horiz-adv-x="1021" 
d="M511 836l300 620h143l-373 -718l384 -738h-142l-310 639l-309 -639h-143l383 738l-371 718h141z" />
    <glyph glyph-name="Psi" unicode="&#x3a8;" horiz-adv-x="1138" 
d="M617 494c90 13.333 161.168 58.166 213.501 134.499s78.5 178.5 78.5 306.5v521h118v-521c0 -164 -37.167 -293.333 -111.5 -388s-173.833 -148 -298.5 -160v-387h-118v388c-123.333 12.667 -221 66 -293 160s-108 223 -108 387v521h119v-521
c0 -127.333 25.167 -229.166 75.5 -305.499s119.166 -121.5 206.499 -135.5v962h118v-962z" />
    <glyph glyph-name="Omega" unicode="&#x3a9;" horiz-adv-x="1084" 
d="M595 118c76.667 31.333 137.17 95.833 181.503 193.5s66.5 236.167 66.5 415.5v118c0 162.667 -27.5 291 -82.5 385s-130.5 141 -226.5 141c-96.667 0 -172.334 -47 -227.001 -141s-82 -222.333 -82 -385v-118c0 -179.333 22.833 -317.833 68.5 -415.5
s107.5 -162.167 185.5 -193.5v-118h-372v104h231c-72 60.667 -128.333 144.167 -169 250.5s-61 230.5 -61 372.5v116c0 192.667 38.667 346.5 116 461.5s180.666 172.5 309.999 172.5c128.667 0 232 -57.5 310 -172.5s117 -268.833 117 -461.5v-116
c0 -142 -20.333 -266.167 -61 -372.5s-96.334 -189.833 -167.001 -250.5h234v-104h-372v118z" />
    <glyph glyph-name="Omega" unicode="&#x2126;" horiz-adv-x="1084" 
d="M595 118c76.667 31.333 137.17 95.833 181.503 193.5s66.5 236.167 66.5 415.5v118c0 162.667 -27.5 291 -82.5 385s-130.5 141 -226.5 141c-96.667 0 -172.334 -47 -227.001 -141s-82 -222.333 -82 -385v-118c0 -179.333 22.833 -317.833 68.5 -415.5
s107.5 -162.167 185.5 -193.5v-118h-372v104h231c-72 60.667 -128.333 144.167 -169 250.5s-61 230.5 -61 372.5v116c0 192.667 38.667 346.5 116 461.5s180.666 172.5 309.999 172.5c128.667 0 232 -57.5 310 -172.5s117 -268.833 117 -461.5v-116
c0 -142 -20.333 -266.167 -61 -372.5s-96.334 -189.833 -167.001 -250.5h234v-104h-372v118z" />
    <glyph glyph-name="Iotadieresis" unicode="&#x3aa;" horiz-adv-x="468" 
d="M293 0h-118v1456h118v-1456zM507 1638h-155v160h155v-160zM121 1638h-156v160h156v-160z" />
    <glyph glyph-name="Upsilondieresis" unicode="&#x3ab;" horiz-adv-x="974" 
d="M487 689l315 767h135l-395 -924v-532h-115v542l-390 914h134zM759 1631h-155v160h155v-160zM373 1631h-156v160h156v-160z" />
    <glyph glyph-name="alphatonos" unicode="&#x3ac;" horiz-adv-x="931" 
d="M789 1082l0.00292969 -806.999c0 -70 6.16699 -118.333 18.5 -145s30.166 -40 53.499 -40c5.33301 0 10 0.5 14 1.5s10 2.83301 18 5.5l16 -94c-14 -8.66699 -27.833 -14.834 -41.5 -18.501s-28.167 -5.5 -43.5 -5.5c-40.667 0 -72.834 13.167 -96.501 39.5
s-39.5 69.166 -47.5 128.499l-3 1c-28 -55.333 -63 -97.333 -105 -126s-92 -43 -150 -43c-104 0 -184.167 47.333 -240.5 142s-84.5 224.334 -84.5 389.001v21c0 176.667 28.167 316 84.5 418s137.166 153 242.499 153c57.333 0 106.333 -14.833 147 -44.5
s74.667 -72.167 102 -127.5l3 1l12 151h101zM214.003 510.001c0 -132.667 18.833 -236.999 56.5 -312.999s96.834 -114 177.501 -114c55.333 0 100.666 18.333 135.999 55s64.333 89 87 157v468c-22.667 71.333 -51.667 128 -87 170s-80 63 -134 63
c-80.667 0 -140.167 -42.333 -178.5 -127s-57.5 -197.334 -57.5 -338.001v-21zM512.003 1581h135l-129 -331h-62z" />
    <glyph glyph-name="epsilontonos" unicode="&#x3ad;" horiz-adv-x="894" 
d="M438 501c-76.667 0 -133.334 -16.499 -170.001 -49.499s-55 -85.167 -55 -156.5c0 -64.667 20.167 -116 60.5 -154s97.5 -57 171.5 -57c70 0 126.5 21.333 169.5 64s64.5 96.667 64.5 162h118c0 -108.667 -34.5 -190.5 -103.5 -245.5s-151.833 -82.5 -248.5 -82.5
c-106 0 -190.833 27.5 -254.5 82.5s-95.5 132.5 -95.5 232.5c0 65.333 14.333 119.5 43 162.5s72.334 74.833 131.001 95.5c-52 23.333 -91.667 55.5 -119 96.5s-41 88.167 -41 141.5c0 99.333 29.5 175.166 88.5 227.499s141.5 78.5 247.5 78.5
c96.667 0 177.167 -28 241.5 -84s96.5 -131.333 96.5 -226h-117c0 61.333 -21 111 -63 149s-94.667 57 -158 57c-73.333 0 -127.833 -18.5 -163.5 -55.5s-53.5 -85.167 -53.5 -144.5c0 -62 16.5 -109.5 49.5 -142.5s86.5 -49.5 160.5 -49.5h152v-102h-152zM454 1580h135
l-129 -331h-62z" />
    <glyph glyph-name="etatonos" unicode="&#x3ae;" 
d="M237 1082l10 -163.002h3c26.667 58.667 61.334 103.834 104.001 135.501s93.667 47.5 153 47.5c94 0 164.833 -34.333 212.5 -103s71.5 -181.667 71.5 -339v-1075h-118v1074c0 126 -16.5 213.667 -49.5 263s-82.167 74 -147.5 74
c-56.667 0 -103.334 -16.667 -140.001 -50s-65 -79.666 -85 -138.999v-807h-118v1082h104zM475 1581h135l-129 -331h-62z" />
    <glyph glyph-name="iotatonos" unicode="&#x3af;" horiz-adv-x="525" 
d="M279 1081v-807.999c0 -70.667 8.5 -119.5 25.5 -146.5s41.167 -40.5 72.5 -40.5c14 0 27 1.5 39 4.5s24 7.16699 36 12.5l27 -91c-20.667 -12.667 -41.167 -21.334 -61.5 -26.001s-42.5 -7 -66.5 -7c-65.333 0 -113.5 23 -144.5 69s-46.5 123 -46.5 231v802h119z
M233 1560h135l-129 -331h-62z" />
    <glyph glyph-name="upsilondieresistonos" unicode="&#x3b0;" horiz-adv-x="892" 
d="M249 1082v-676.001c0 -114 15.167 -196.333 45.5 -247s72.833 -76 127.5 -76c80 0 141.5 44.833 184.5 134.5s64.5 197.5 64.5 323.5c-1.33301 94.667 -10 185.834 -26 273.501s-38.333 176.834 -67 267.501h126c26.667 -82 47.5 -164 62.5 -246s22.5 -179.667 22.5 -293
c0 -168 -30.5 -304 -91.5 -408s-150.833 -156 -269.5 -156c-96.667 0 -170.5 34.167 -221.5 102.5s-76.5 177.166 -76.5 326.499v674h119zM696 1228h-137v155h137v-155zM305 1228h-137v155h137v-155zM415 1591h150l-97 -252h-86z" />
    <glyph glyph-name="alpha" unicode="&#x3b1;" horiz-adv-x="931" 
d="M789 1082l0.00292969 -806.999c0 -70 6.16699 -118.333 18.5 -145s30.166 -40 53.499 -40c5.33301 0 10 0.5 14 1.5s10 2.83301 18 5.5l16 -94c-14 -8.66699 -27.833 -14.834 -41.5 -18.501s-28.167 -5.5 -43.5 -5.5c-40.667 0 -72.834 13.167 -96.501 39.5
s-39.5 69.166 -47.5 128.499l-3 1c-28 -55.333 -63 -97.333 -105 -126s-92 -43 -150 -43c-104 0 -184.167 47.333 -240.5 142s-84.5 224.334 -84.5 389.001v21c0 176.667 28.167 316 84.5 418s137.166 153 242.499 153c57.333 0 106.333 -14.833 147 -44.5
s74.667 -72.167 102 -127.5l3 1l12 151h101zM214.003 510.001c0 -132.667 18.833 -236.999 56.5 -312.999s96.834 -114 177.501 -114c55.333 0 100.666 18.333 135.999 55s64.333 89 87 157v468c-22.667 71.333 -51.667 128 -87 170s-80 63 -134 63
c-80.667 0 -140.167 -42.333 -178.5 -127s-57.5 -197.334 -57.5 -338.001v-21z" />
    <glyph glyph-name="beta" unicode="&#x3b2;" horiz-adv-x="976" 
d="M483 1476c100 0 179.334 -35.166 238.001 -105.499s88 -163.166 88 -278.499c0 -68.667 -13.833 -129.834 -41.5 -183.501s-67.167 -95.834 -118.5 -126.501c71.333 -26.667 126 -73 164 -139s57 -145.333 57 -238c0 -136 -32 -240.833 -96 -314.5
s-150 -110.5 -258 -110.5c-48 0 -93.833 8.83301 -137.5 26.5s-81.834 45.167 -114.501 82.5v-487h-118v1461c0 118 32.5 216.333 97.5 295s144.833 118 239.5 118zM479.001 825.001c74 0 127.832 23.333 161.499 70s50.5 114 50.5 202c0 75.333 -18 139.833 -54 193.5
s-87.333 80.5 -154 80.5c-63.333 0 -115.666 -28.833 -156.999 -86.5s-62 -131.5 -62 -221.5v-840c24 -44.667 56.833 -79.167 98.5 -103.5s89.167 -36.5 142.5 -36.5c79.333 0 140.333 28 183 84s64 134 64 234c0 94 -20 170.667 -60 230s-97 89 -171 89h-112v105h70z" />
    <glyph glyph-name="gamma" unicode="&#x3b3;" horiz-adv-x="820" 
d="M656 1082h121l-305 -1041v-456h-117v459l-306 1038h121l220 -809l23 -107h3l25 107z" />
    <glyph glyph-name="delta" unicode="&#x3b4;" 
d="M185 1287c0 84 25.834 151.001 77.501 201.001s122.5 75 212.5 75c42.667 0 84.167 -6.83301 124.5 -20.5s80.166 -33.834 119.499 -60.501l-28 -91c-30.667 19.333 -64 35 -100 47s-75 18 -117 18c-52 0 -93.333 -14.5 -124 -43.5s-46 -69.833 -46 -122.5
c0 -48 14.167 -89.333 42.5 -124s80.5 -65.667 156.5 -93c111.333 -41.333 195 -108.833 251 -202.5s84 -205.5 84 -335.5v-31c0 -157.333 -33.333 -284 -100 -380s-157.667 -144 -273 -144c-118 0 -210.5 48 -277.5 144s-100.5 222.667 -100.5 380v31
c0 128 25.5 234.167 76.5 318.5s113.833 135.5 188.5 153.5l2 11c-56.667 30 -99 68.167 -127 114.5s-42 97.833 -42 154.5zM205.001 504.001c0 -122.667 22 -223.498 66 -302.498s108.667 -118.5 194 -118.5c82.667 0 146 39.5 190 118.5s66 179.833 66 302.5v31
c0 105.333 -23.667 196.666 -71 273.999s-107.333 125 -180 143c-86 0 -151.667 -39.833 -197 -119.5s-68 -178.834 -68 -297.501v-31z" />
    <glyph glyph-name="epsilon" unicode="&#x3b5;" horiz-adv-x="894" 
d="M438 501c-76.667 0 -133.334 -16.499 -170.001 -49.499s-55 -85.167 -55 -156.5c0 -64.667 20.167 -116 60.5 -154s97.5 -57 171.5 -57c70 0 126.5 21.333 169.5 64s64.5 96.667 64.5 162h118c0 -108.667 -34.5 -190.5 -103.5 -245.5s-151.833 -82.5 -248.5 -82.5
c-106 0 -190.833 27.5 -254.5 82.5s-95.5 132.5 -95.5 232.5c0 65.333 14.333 119.5 43 162.5s72.334 74.833 131.001 95.5c-52 23.333 -91.667 55.5 -119 96.5s-41 88.167 -41 141.5c0 99.333 29.5 175.166 88.5 227.499s141.5 78.5 247.5 78.5
c96.667 0 177.167 -28 241.5 -84s96.5 -131.333 96.5 -226h-117c0 61.333 -21 111 -63 149s-94.667 57 -158 57c-73.333 0 -127.833 -18.5 -163.5 -55.5s-53.5 -85.167 -53.5 -144.5c0 -62 16.5 -109.5 49.5 -142.5s86.5 -49.5 160.5 -49.5h152v-102h-152z" />
    <glyph glyph-name="zeta" unicode="&#x3b6;" horiz-adv-x="834" 
d="M751 1456l-0.000976562 -80.0039l-294 -500c-66 -109.333 -112.833 -201.666 -140.5 -276.999s-41.5 -153.666 -41.5 -234.999c0 -68 12.167 -120 36.5 -156s66.5 -64.667 126.5 -86l93 -31c70 -24.667 119.667 -49.167 149 -73.5s44 -66.833 44 -127.5
c-1.33301 -54 -16.166 -107.167 -44.499 -159.5s-58.166 -91.5 -89.499 -117.5l-64 58c25.333 27.333 45.666 58.333 60.999 93s23 71.667 23 111c0 30 -9.33301 53.5 -28 70.5s-49.667 32.833 -93 47.5l-71 22c-97.333 32.667 -165.166 74.334 -203.499 125.001
s-57.5 124.334 -57.5 221.001c0 78 16.167 164.167 48.5 258.5s86.166 199.5 161.499 315.5l262 416h-545v105h667z" />
    <glyph glyph-name="eta" unicode="&#x3b7;" 
d="M237 1082l10 -163.002h3c26.667 58.667 61.334 103.834 104.001 135.501s93.667 47.5 153 47.5c94 0 164.833 -34.333 212.5 -103s71.5 -181.667 71.5 -339v-1075h-118v1074c0 126 -16.5 213.667 -49.5 263s-82.167 74 -147.5 74
c-56.667 0 -103.334 -16.667 -140.001 -50s-65 -79.666 -85 -138.999v-807h-118v1082h104z" />
    <glyph glyph-name="theta" unicode="&#x3b8;" horiz-adv-x="943" 
d="M826 564c0 -192 -30.6689 -337.499 -92.002 -436.499s-148.666 -148.5 -261.999 -148.5s-201 49.667 -263 149s-93 244.666 -93 435.999v326c0 190.667 30.833 336.167 92.5 436.5s148.834 150.5 261.501 150.5c113.333 0 201 -50 263 -150s93 -245.667 93 -437v-326z
M233.998 776.001h475v135c0 151.333 -20 265.833 -60 343.5s-99.667 116.5 -179 116.5c-78.667 0 -137.667 -38.833 -177 -116.5s-59 -192.167 -59 -343.5v-135zM708.998 672.001l-475.001 -0.000976562v-127c0 -150 20 -264.5 60 -343.5s99.333 -118.5 178 -118.5
s137.834 39.333 177.501 118s59.5 193.334 59.5 344.001v127z" />
    <glyph glyph-name="iota" unicode="&#x3b9;" horiz-adv-x="525" 
d="M279 1081v-807.999c0 -70.667 8.5 -119.5 25.5 -146.5s41.167 -40.5 72.5 -40.5c14 0 27 1.5 39 4.5s24 7.16699 36 12.5l27 -91c-20.667 -12.667 -41.167 -21.334 -61.5 -26.001s-42.5 -7 -66.5 -7c-65.333 0 -113.5 23 -144.5 69s-46.5 123 -46.5 231v802h119z" />
    <glyph glyph-name="kappa" unicode="&#x3ba;" horiz-adv-x="907" 
d="M350 493h-94v-493h-118v1082h118v-479h90l329 479h143l-375 -520l408 -562h-149z" />
    <glyph glyph-name="lambda" unicode="&#x3bb;" horiz-adv-x="911" 
d="M178 0l-129.999 0.000976562l317 1040l-69 218c-13.333 53.333 -27.833 92.333 -43.5 117s-37.5 37 -65.5 37c-5.33301 0 -11.833 -0.333008 -19.5 -1s-13.167 -1.33398 -16.5 -2.00098l-4 97c8.66699 2.66699 20.834 5.33398 36.501 8.00098s29.5 4 41.5 4
c52 0 90.667 -18.833 116 -56.5s46.666 -89.167 63.999 -154.5l324 -1051c15.333 -54.667 29.833 -94.834 43.5 -120.501s31.167 -38.5 52.5 -38.5c4 0 9 0.333008 15 1s11.333 1.66699 16 3l6 -101c-6.66699 -2.66699 -15.334 -5.16699 -26.001 -7.5s-21 -3.5 -31 -3.5
c-47.333 0 -84.5 18.667 -111.5 56s-53.167 95.333 -78.5 174l-197 649l-3 -1l-22 -89z" />
    <glyph glyph-name="uni03BC" unicode="&#x3bc;" 
d="M255 1082v-632c0 -140.667 16.5 -237 49.5 -289s79.5 -78 139.5 -78c64 0 113.667 16.667 149 50s61.333 83 78 149v800h118v-1082h-103l-8 129l-3 1c-23.333 -49.333 -53.5 -86.833 -90.5 -112.5s-81.5 -38.5 -133.5 -38.5c-43.333 0 -81 8.5 -113 25.5
s-58.667 44.5 -80 82.5l-3 -1v-502h-117v1498h117z" />
    <glyph glyph-name="nu" unicode="&#x3bd;" horiz-adv-x="820" 
d="M390 273l23 -107h3l25 107l215 809h121l-317 -1082h-92l-319 1082h121z" />
    <glyph glyph-name="xi" unicode="&#x3be;" horiz-adv-x="813" 
d="M712 1330c-30.667 12.667 -60.333 22.501 -89 29.501s-58 10.5 -88 10.5c-89.333 0 -155.5 -21 -198.5 -63s-64.5 -97.333 -64.5 -166c0 -76.667 21.5 -135.334 64.5 -176.001s111.833 -61 206.5 -61h106v-106h-106c-104.667 0 -185 -28.333 -241 -85
s-84 -146.334 -84 -269.001c0 -98.667 22.667 -175 68 -229s108 -95.333 188 -124l71 -17c68.667 -20.667 118.5 -44 149.5 -70s46.5 -68.667 46.5 -128c-0.666992 -50 -15 -98.5 -43 -145.5s-57.667 -84.5 -89 -112.5l-64 60c26.667 30 47.167 58.5 61.5 85.5
s21.5 60.5 21.5 100.5c0 31.333 -9.33301 54.833 -28 70.5s-51.334 30.167 -98.001 43.5l-40 11c-120.667 36.667 -211.167 87.834 -271.5 153.501s-90.5 167.5 -90.5 305.5c0 104 22.333 189.833 67 257.5s108.667 116.167 192 145.5c-65.333 26 -115.666 64 -150.999 114
s-53 107.333 -53 172c0 110 33.167 193.833 99.5 251.5s159.833 86.5 280.5 86.5c34.667 0 69 -4 103 -12s64.333 -18.667 91 -32z" />
    <glyph glyph-name="omicron" unicode="&#x3bf;" 
d="M87 620c0 142.667 33.5 258.667 100.5 348s158.5 134 274.5 134c116.667 0 208.5 -44.5 275.5 -133.5s100.5 -205.167 100.5 -348.5v-159c0 -144.667 -33.333 -261 -100 -349s-158 -132 -274 -132c-117.333 0 -209.5 44 -276.5 132s-100.5 204.333 -100.5 349v159z
M205 461c0 -110 22 -200.499 66 -271.499s108.333 -106.5 193 -106.5c82.667 0 146.167 35.667 190.5 107s66.5 161.666 66.5 270.999v159c0 108 -22.167 197.667 -66.5 269s-108.5 107 -192.5 107s-147.833 -35.667 -191.5 -107s-65.5 -161 -65.5 -269v-159z" />
    <glyph glyph-name="pi" unicode="&#x3c0;" horiz-adv-x="982" 
d="M886 977l-111 0.000976562v-704c0 -70.667 8.5 -119.5 25.5 -146.5s41.167 -40.5 72.5 -40.5c14 0 27 1.5 39 4.5s24 7.16699 36 12.5l27 -91c-20.667 -12.667 -41.167 -21.334 -61.5 -26.001s-42.5 -7 -66.5 -7c-65.333 0 -113.5 23 -144.5 69s-46.5 123 -46.5 231v698
h-352v-977h-118v977h-109v105h809v-105z" />
    <glyph glyph-name="rho" unicode="&#x3c1;" 
d="M827 510c0 -164.667 -28.001 -294.167 -84.001 -388.5s-135.667 -141.5 -239 -141.5c-56 0 -104.667 10.833 -146 32.5s-76 53.167 -104 94.5l-3 -1v-522h-118v1013h1l-1 9c0 159.333 32 281.833 96 367.5s146.333 128.5 247 128.5
c114.667 0 201.834 -50.667 261.501 -152s89.5 -241 89.5 -419v-21zM708.999 531c0 141.333 -18.832 254.167 -56.499 338.5s-96.5 126.5 -176.5 126.5c-76.667 0 -133.334 -40 -170.001 -120s-55 -173.667 -55 -281v-343c21.333 -54 49.833 -95.667 85.5 -125
s81.167 -44 136.5 -44c80 0 139.333 38 178 114s58 180.333 58 313v21z" />
    <glyph glyph-name="sigma1" unicode="&#x3c2;" horiz-adv-x="886" 
d="M462 1102c96 0 173.835 -33.4961 233.502 -100.496s89.5 -162.833 89.5 -287.5h-112c0 90 -18.5 159.5 -55.5 208.5s-88.833 73.5 -155.5 73.5c-82.667 0 -144.5 -41.167 -185.5 -123.5s-61.5 -185.833 -61.5 -310.5v-42c0 -114 24.333 -205.333 73 -274
s122.667 -119 222 -151c73.333 -24.667 125.666 -50.667 156.999 -78s47 -73 47 -137c-0.666992 -44.667 -15.167 -92.334 -43.5 -143.001s-56.833 -88.334 -85.5 -113.001l-65 59c26 27.333 46 55.166 60 83.499s21 61.833 21 100.5c0 37.333 -8.83301 64 -26.5 80
s-50.834 31.333 -99.501 46c-126 33.333 -220.5 92.166 -283.5 176.499s-94.5 201.166 -94.5 350.499v42c0 158.667 32.167 288.334 96.5 389.001s153.833 151 268.5 151z" />
    <glyph glyph-name="sigma" unicode="&#x3c3;" horiz-adv-x="925" 
d="M903 975h-231l-1 -3c53.333 -45.333 94.5 -104.833 123.5 -178.5s43.5 -158.834 43.5 -255.501v-33c0 -153.333 -33.5 -279.166 -100.5 -377.499s-158.167 -147.5 -273.5 -147.5c-117.333 0 -209.5 49.833 -276.5 149.5s-100.5 231.167 -100.5 394.5v32
c0 156 33.333 282.5 100 379.5s158 145.833 274 146.5h442v-107zM205 524c0 -128.667 22 -234.332 66 -316.999s108.333 -124 193 -124c82.667 0 146.167 41.5 190.5 124.5s66.5 188.5 66.5 316.5v32c0 120 -22.167 219.833 -66.5 299.5s-108.5 119.5 -192.5 119.5h-1
c-84 -0.666992 -147.667 -40.834 -191 -120.501s-65 -179.167 -65 -298.5v-32z" />
    <glyph glyph-name="tau" unicode="&#x3c4;" horiz-adv-x="855" 
d="M778 978l-304 0.000976562v-705c0 -70.667 8.5 -119.5 25.5 -146.5s41.167 -40.5 72.5 -40.5c14 0 27 1.5 39 4.5s24 7.16699 36 12.5l27 -91c-20.667 -12.667 -41.167 -21.334 -61.5 -26.001s-42.5 -7 -66.5 -7c-65.333 0 -113.5 23 -144.5 69s-46.5 123 -46.5 231v699
h-279v104h702v-104z" />
    <glyph glyph-name="upsilon" unicode="&#x3c5;" horiz-adv-x="892" 
d="M249 1082v-676.001c0 -114 15.167 -196.333 45.5 -247s72.833 -76 127.5 -76c80 0 141.5 44.833 184.5 134.5s64.5 197.5 64.5 323.5c-1.33301 94.667 -10 185.834 -26 273.501s-38.333 176.834 -67 267.501h126c26.667 -82 47.5 -164 62.5 -246s22.5 -179.667 22.5 -293
c0 -168 -30.5 -304 -91.5 -408s-150.833 -156 -269.5 -156c-96.667 0 -170.5 34.167 -221.5 102.5s-76.5 177.166 -76.5 326.499v674h119z" />
    <glyph glyph-name="phi" unicode="&#x3c6;" horiz-adv-x="1140" 
d="M505 -18c-144 14 -248.665 71.8359 -313.998 173.503s-98 234.5 -98 398.5c0 121.333 17.167 226.166 51.5 314.499s84.166 159.5 149.499 213.5l63 -90c-48 -46.667 -84.167 -108.667 -108.5 -186s-36.833 -161.333 -37.5 -252c0 -124 22.667 -228.833 68 -314.5
s120.666 -136.5 225.999 -152.5v786c0 66 16.5 117.333 49.5 154s76.833 55 131.5 55c102.667 0 188.834 -50.5 258.501 -151.5s104.5 -229.833 104.5 -386.5c0 -154.667 -34.833 -283.834 -104.5 -387.501s-176.834 -161.834 -321.501 -174.501v-460h-118v460z
M623.002 87.0029c104.667 14.667 182.168 64.667 232.501 150s75.5 187.666 75.5 306.999c-1.33301 120.667 -23.833 222.834 -67.5 306.501s-102.834 125.5 -177.501 125.5c-20 0 -35.5 -9.16699 -46.5 -27.5s-16.5 -42.5 -16.5 -72.5v-789z" />
    <glyph glyph-name="chi" unicode="&#x3c7;" horiz-adv-x="820" 
d="M407 642l209 440h139l-282 -532l293 -550h-137l-221 458l-219 -458h-137l293 550l-283 532h137z" />
    <glyph glyph-name="psi" unicode="&#x3c8;" horiz-adv-x="1135" 
d="M618 1081l-0.000976562 -993.999c109.333 15.333 188 68.166 236 158.499s72 200.833 72 331.5c-1.33301 88 -11.166 173 -29.499 255s-43.5 165.333 -75.5 250h126c30 -77.333 53.5 -154.333 70.5 -231s25.5 -167.667 25.5 -273c0 -174.667 -33.333 -314.667 -100 -420
s-175 -164.333 -325 -177v-425h-118v427c-130.667 14 -230.167 70 -298.5 168s-102.5 245 -102.5 441v490h118v-492c0 -160 24.667 -280.167 74 -360.5s119 -127.5 209 -141.5v993h118z" />
    <glyph glyph-name="omega" unicode="&#x3c9;" horiz-adv-x="1347" 
d="M347 1082c-36 -93.333 -63.832 -184.334 -83.499 -273.001s-29.834 -181.334 -30.501 -278.001c0 -131.333 15.333 -238.833 46 -322.5s79 -125.5 145 -125.5c58.667 0 104.834 31 138.501 93s50.5 162.333 50.5 301v293h119v-293c0 -138 16.667 -238.167 50 -300.5
s79.666 -93.5 138.999 -93.5c66 0 114.333 41.5 145 124.5s46 190.833 46 323.5c-1.33301 97.333 -11.833 190.5 -31.5 279.5s-47.167 179.5 -82.5 271.5h125c34 -83.333 60.5 -166.833 79.5 -250.5s28.5 -183.5 28.5 -299.5c0 -167.333 -24.667 -301.333 -74 -402
s-126 -151 -230 -151c-64 0 -117 19.667 -159 59s-73 99.333 -93 180h-4c-20.667 -80.667 -52.167 -140.667 -94.5 -180s-95.166 -59 -158.499 -59c-104.667 0 -181.334 50.167 -230.001 150.5s-73 234.5 -73 402.5c0 116.667 9.33301 216.834 28 300.501
s45 166.834 79 249.501h125z" />
    <glyph glyph-name="iotadieresis" unicode="&#x3ca;" horiz-adv-x="525" 
d="M279 1081v-807.999c0 -70.667 8.5 -119.5 25.5 -146.5s41.167 -40.5 72.5 -40.5c14 0 27 1.5 39 4.5s24 7.16699 36 12.5l27 -91c-20.667 -12.667 -41.167 -21.334 -61.5 -26.001s-42.5 -7 -66.5 -7c-65.333 0 -113.5 23 -144.5 69s-46.5 123 -46.5 231v802h119z
M497 1296h-155v160h155v-160zM111 1296h-156v160h156v-160z" />
    <glyph glyph-name="upsilondieresis" unicode="&#x3cb;" horiz-adv-x="892" 
d="M249 1082v-676.001c0 -114 15.167 -196.333 45.5 -247s72.833 -76 127.5 -76c80 0 141.5 44.833 184.5 134.5s64.5 197.5 64.5 323.5c-1.33301 94.667 -10 185.834 -26 273.501s-38.333 176.834 -67 267.501h126c26.667 -82 47.5 -164 62.5 -246s22.5 -179.667 22.5 -293
c0 -168 -30.5 -304 -91.5 -408s-150.833 -156 -269.5 -156c-96.667 0 -170.5 34.167 -221.5 102.5s-76.5 177.166 -76.5 326.499v674h119zM705 1296h-155v160h155v-160zM319 1296h-156v160h156v-160z" />
    <glyph glyph-name="omicrontonos" unicode="&#x3cc;" 
d="M87 620c0 142.667 33.5 258.667 100.5 348s158.5 134 274.5 134c116.667 0 208.5 -44.5 275.5 -133.5s100.5 -205.167 100.5 -348.5v-159c0 -144.667 -33.333 -261 -100 -349s-158 -132 -274 -132c-117.333 0 -209.5 44 -276.5 132s-100.5 204.333 -100.5 349v159z
M205 461c0 -110 22 -200.499 66 -271.499s108.333 -106.5 193 -106.5c82.667 0 146.167 35.667 190.5 107s66.5 161.666 66.5 270.999v159c0 108 -22.167 197.667 -66.5 269s-108.5 107 -192.5 107s-147.833 -35.667 -191.5 -107s-65.5 -161 -65.5 -269v-159zM478 1581h135
l-129 -331h-62z" />
    <glyph glyph-name="upsilontonos" unicode="&#x3cd;" horiz-adv-x="892" 
d="M249 1082v-676.001c0 -114 15.167 -196.333 45.5 -247s72.833 -76 127.5 -76c80 0 141.5 44.833 184.5 134.5s64.5 197.5 64.5 323.5c-1.33301 94.667 -10 185.834 -26 273.501s-38.333 176.834 -67 267.501h126c26.667 -82 47.5 -164 62.5 -246s22.5 -179.667 22.5 -293
c0 -168 -30.5 -304 -91.5 -408s-150.833 -156 -269.5 -156c-96.667 0 -170.5 34.167 -221.5 102.5s-76.5 177.166 -76.5 326.499v674h119zM442 1560h135l-129 -331h-62z" />
    <glyph glyph-name="omegatonos" unicode="&#x3ce;" horiz-adv-x="1347" 
d="M347 1082c-36 -93.333 -63.832 -184.334 -83.499 -273.001s-29.834 -181.334 -30.501 -278.001c0 -131.333 15.333 -238.833 46 -322.5s79 -125.5 145 -125.5c58.667 0 104.834 31 138.501 93s50.5 162.333 50.5 301v293h119v-293c0 -138 16.667 -238.167 50 -300.5
s79.666 -93.5 138.999 -93.5c66 0 114.333 41.5 145 124.5s46 190.833 46 323.5c-1.33301 97.333 -11.833 190.5 -31.5 279.5s-47.167 179.5 -82.5 271.5h125c34 -83.333 60.5 -166.833 79.5 -250.5s28.5 -183.5 28.5 -299.5c0 -167.333 -24.667 -301.333 -74 -402
s-126 -151 -230 -151c-64 0 -117 19.667 -159 59s-73 99.333 -93 180h-4c-20.667 -80.667 -52.167 -140.667 -94.5 -180s-95.166 -59 -158.499 -59c-104.667 0 -181.334 50.167 -230.001 150.5s-73 234.5 -73 402.5c0 116.667 9.33301 216.834 28 300.501
s45 166.834 79 249.501h125zM691.001 1557h135l-129 -331h-62z" />
    <glyph glyph-name="uni03D1" unicode="&#x3d1;" horiz-adv-x="1014" 
d="M513 86c96 0 169.835 39.499 221.502 118.499s77.5 194.5 77.5 346.5v34c-117.333 6 -210.166 50 -278.499 132s-102.5 188.333 -102.5 319v62c0 117.333 22.667 209.833 68 277.5s105.666 101.5 180.999 101.5c78.667 0 140 -33.167 184 -99.5s66 -159.5 66 -279.5v-547
c0 -181.333 -37.333 -322 -112 -422s-176.334 -150 -305.001 -150c-122.667 0 -220.334 52.167 -293.001 156.5s-109 242.833 -109 415.5v701l118 2v-703c0 -143.333 24.833 -256.666 74.5 -339.999s119.5 -125 209.5 -125zM549.002 1034
c0 -96.667 22.668 -176.169 68.001 -238.502s110.333 -96.5 195 -102.5v405c0 90.667 -10.833 158.334 -32.5 203.001s-54.834 67 -99.501 67c-40.667 0 -72.667 -22.167 -96 -66.5s-35 -112.166 -35 -203.499v-64z" />
    <glyph glyph-name="uni03D2" unicode="&#x3d2;" horiz-adv-x="883" 
d="M612 1239c26.667 83.333 55.666 142.167 86.999 176.5s69.333 51.5 114 51.5c15.333 0 29.833 -2.16699 43.5 -6.5s26.834 -10.833 39.501 -19.5l-17 -97c-4 3.33301 -9.83301 6.66602 -17.5 9.99902s-15.834 5 -24.501 5c-23.333 0 -43.666 -9.16699 -60.999 -27.5
s-33.666 -55.833 -48.999 -112.5l-225 -615v-604h-118v604l-228 615c-16 56.667 -32.5 94.167 -49.5 112.5s-36.833 27.5 -59.5 27.5c-9.33301 0 -17.833 -1.66699 -25.5 -5s-13.167 -6.66602 -16.5 -9.99902l-16 97c11.333 8.66699 23.666 15.167 36.999 19.5
s28 6.5 44 6.5c44.667 0 82.5 -17 113.5 -51s60.5 -93 88.5 -177l145 -425l23 -91h3l24 91z" />
    <glyph glyph-name="uni03D6" unicode="&#x3d6;" horiz-adv-x="1286" 
d="M1240 976l-126 0.000976562c20.667 -66.667 37 -135 49 -205s18 -149.667 18 -239c0 -167.333 -22.833 -301.333 -68.5 -402s-116.834 -151 -213.501 -151c-63.333 0 -116.166 19.667 -158.499 59s-73.5 99.333 -93.5 180h-4
c-20.667 -80.667 -52.167 -140.667 -94.5 -180s-94.833 -59 -157.5 -59c-96.667 0 -167.667 50.333 -213 151s-68 234.667 -68 402c0 90 5.66699 170.167 17 240.5s28 138.166 50 203.499h-113v106h1176v-106zM1064 531.001c-2 78 -9.5 153.167 -22.5 225.5
s-31.167 145.5 -54.5 219.5h-683c-24.667 -76 -43.667 -150 -57 -222s-20 -146.333 -20 -223c0 -131.333 13.667 -238.833 41 -322.5s70.333 -125.5 129 -125.5s104.834 31 138.501 93s50.5 162.333 50.5 301v269h119v-269c0 -138.667 16.667 -239 50 -301
s79.666 -93 138.999 -93c58 0 100.833 41.833 128.5 125.5s41.5 191.167 41.5 322.5z" />
    <glyph glyph-name="uni0400" unicode="&#x400;" horiz-adv-x="955" 
d="M814 703h-537v-599h618v-104h-736v1456h730v-106h-612v-543h537v-104zM563 1561h-107l-206 266h154z" />
    <glyph glyph-name="uni0401" unicode="&#x401;" horiz-adv-x="955" 
d="M814 703h-537v-599h618v-104h-736v1456h730v-106h-612v-543h537v-104zM775 1638h-155v160h155v-160zM389 1638h-156v160h156v-160z" />
    <glyph glyph-name="uni0402" unicode="&#x402;" horiz-adv-x="1223" 
d="M933 1350h-428.998v-531c45.333 19.333 89.166 35.333 131.499 48s80.166 19 113.499 19c126.667 0 224.5 -37.833 293.5 -113.5s103.5 -192.167 103.5 -349.5c0 -126.667 -32.333 -230.667 -97 -312s-159 -122 -283 -122v99c90 0 156 30.667 198 92s63 142.333 63 243
c-0.666992 121.333 -24.5 210.5 -71.5 267.5s-115.833 85.5 -206.5 85.5c-36.667 0 -76.167 -5.83301 -118.5 -17.5s-84.5 -27.167 -126.5 -46.5v-712h-117v1350h-335v106h881v-106z" />
    <glyph glyph-name="uni0403" unicode="&#x403;" horiz-adv-x="914" 
d="M849 1350h-574v-1350h-118v1456h692v-106zM596 1823h152l-216 -266h-99z" />
    <glyph glyph-name="uni0404" unicode="&#x404;" horiz-adv-x="1096" 
d="M942 422c-3.33301 -148 -39.5 -258.668 -108.5 -332.001s-166.167 -110 -291.5 -110c-130 0 -231.167 46.333 -303.5 139s-108.5 228.667 -108.5 408v403c0 178.667 36.167 314.667 108.5 408s173.5 140 303.5 140c126.667 0 224.167 -36.167 292.5 -108.5
s104.166 -184.166 107.499 -335.499h-118c-4 118 -28.667 203.833 -74 257.5s-114.666 80.5 -207.999 80.5c-95.333 0 -168 -36.667 -218 -110s-75 -183 -75 -329v-143h451v-105h-451v-158c0 -148 25 -258.833 75 -332.5s122.667 -110.5 218 -110.5
c94 0 163.5 25.667 208.5 77s69.5 138.333 73.5 261h118z" />
    <glyph glyph-name="uni0405" unicode="&#x405;" horiz-adv-x="997" 
d="M797 357c0 80.667 -21.0049 145.332 -63.0049 193.999s-118.667 92.334 -230 131.001c-128 41.333 -223.667 93.5 -287 156.5s-95 149.5 -95 259.5c0 114 35.5 205.667 106.5 275s164.833 104 281.5 104c122.667 0 220 -41.333 292 -124s108 -186.667 108 -312h-118
c0 98.667 -24.667 178.334 -74 239.001s-118.666 91 -207.999 91c-87.333 0 -154.166 -25.333 -200.499 -76s-69.5 -115.334 -69.5 -194.001c0 -73.333 22.5 -134 67.5 -182s123.167 -90.667 234.5 -128c124.667 -40.667 217.834 -94.334 279.501 -161.001
s92.5 -157 92.5 -271c0 -119.333 -36.5 -212.5 -109.5 -279.5s-169.5 -100.5 -289.5 -100.5c-117.333 0 -218.333 36.333 -303 109s-127 181.334 -127 326.001h118c0 -115.333 29.833 -199.333 89.5 -252s133.834 -79 222.501 -79c86.667 0 155.334 24.667 206.001 74
s76 116 76 200z" />
    <glyph glyph-name="uni0406" unicode="&#x406;" horiz-adv-x="468" 
d="M293 0h-118v1456h118v-1456z" />
    <glyph glyph-name="uni0407" unicode="&#x407;" horiz-adv-x="468" 
d="M293 0h-118v1456h118v-1456zM507 1638h-155v160h155v-160zM121 1638h-156v160h156v-160z" />
    <glyph glyph-name="uni0408" unicode="&#x408;" horiz-adv-x="910" 
d="M640 1456l118.999 0.000976562v-1044c0 -135.333 -31 -241.333 -93 -318s-144 -115 -246 -115c-110 0 -196.167 35 -258.5 105s-93.5 175.667 -93.5 317h118c0 -106.667 19.833 -186.334 59.5 -239.001s97.834 -79 174.501 -79c65.333 0 118.333 29.167 159 87.5
s61 138.833 61 241.5v1044z" />
    <glyph glyph-name="uni0409" unicode="&#x409;" horiz-adv-x="1751" 
d="M998 1456v-608h283c122.667 0 216.5 -38.667 281.5 -116s97.5 -180 97.5 -308c0 -128.667 -32.667 -231.5 -98 -308.5s-159 -115.5 -281 -115.5h-401v1350h-422l-9 -554c-5.33301 -293.333 -33.5 -499.333 -84.5 -618s-142.833 -178 -275.5 -178h-35v104h30
c88 0 149.833 48.167 185.5 144.5s56.167 278.833 61.5 547.5l12 660h655zM998 744v-640h283c88.667 0 154.5 30.333 197.5 91s64.5 137.667 64.5 231c0 90 -21.5 165.5 -64.5 226.5s-108.833 91.5 -197.5 91.5h-283z" />
    <glyph glyph-name="uni040A" unicode="&#x40a;" horiz-adv-x="1756" 
d="M276 787h610v669h118v-632h283c122.667 0 216.5 -37 281.5 -111s97.5 -173.667 97.5 -299c0 -126 -32.5 -226.5 -97.5 -301.5s-158.833 -112.5 -281.5 -112.5h-401v683h-610v-683h-118v1456h118v-669zM1004 720v-612h283c89.333 0 155.166 28.667 197.499 86
s63.5 131.333 63.5 222c0 88 -21.167 160.667 -63.5 218s-108.166 86 -197.499 86h-283z" />
    <glyph glyph-name="uni040B" unicode="&#x40b;" horiz-adv-x="1322" 
d="M941 1350l-429.003 0.00195312v-535c46.667 15.333 91.834 27 135.501 35s92.834 12 147.501 12c127.333 0 222.5 -34.333 285.5 -103s94.5 -183.334 94.5 -344.001v-415h-118v415c0 125.333 -21 213.666 -63 264.999s-108.333 77 -199 77c-50.667 0 -98.667 -4 -144 -12
s-91.666 -19.667 -138.999 -35v-710h-117v1350h-335v106h881v-106z" />
    <glyph glyph-name="uni040C" unicode="&#x40c;" horiz-adv-x="1054" 
d="M422 683h-145v-683h-118v1456h118v-669h140l433 669h137l-471 -714l504 -742h-146zM587 1735h152l-216 -266h-99z" />
    </font>
</defs>
</svg>
